<ttFont>
    <TTGlyph name="A" xMin="-26" yMin="-9" xMax="724" yMax="742">
      <contour>
        <pt x="-26" y="95" on="1"/>
        <pt x="-13" y="105" on="1"/>
        <pt x="-12" y="126" on="1"/>
        <pt x="13" y="187" on="0"/>
        <pt x="66" y="299" on="0"/>
        <pt x="95" y="358" on="1"/>
        <pt x="104" y="377" on="0"/>
        <pt x="123" y="415" on="0"/>
        <pt x="132" y="435" on="1"/>
        <pt x="131" y="439" on="0"/>
        <pt x="131" y="448" on="0"/>
        <pt x="133" y="454" on="1"/>
        <pt x="147" y="474" on="0"/>
        <pt x="164" y="506" on="0"/>
        <pt x="172" y="523" on="1"/>
        <pt x="181" y="543" on="0"/>
        <pt x="202" y="583" on="0"/>
        <pt x="218" y="602" on="1"/>
        <pt x="225" y="612" on="1"/>
        <pt x="236" y="611" on="1"/>
        <pt x="240" y="613" on="0"/>
        <pt x="249" y="616" on="0"/>
        <pt x="256" y="616" on="1"/>
        <pt x="274" y="613" on="1"/>
        <pt x="307" y="628" on="0"/>
        <pt x="358" y="685" on="0"/>
        <pt x="384" y="725" on="1"/>
        <pt x="396" y="742" on="1"/>
        <pt x="412" y="732" on="1"/>
        <pt x="417" y="729" on="0"/>
        <pt x="439" y="723" on="0"/>
        <pt x="451" y="719" on="1"/>
        <pt x="472" y="714" on="0"/>
        <pt x="512" y="701" on="0"/>
        <pt x="523" y="690" on="1"/>
        <pt x="528" y="681" on="1"/>
        <pt x="530" y="670" on="0"/>
        <pt x="533" y="652" on="0"/>
        <pt x="535" y="643" on="1"/>
        <pt x="539" y="622" on="0"/>
        <pt x="545" y="581" on="0"/>
        <pt x="546" y="556" on="1"/>
        <pt x="551" y="536" on="0"/>
        <pt x="560" y="495" on="0"/>
        <pt x="564" y="475" on="1"/>
        <pt x="569" y="446" on="0"/>
        <pt x="581" y="393" on="0"/>
        <pt x="591" y="369" on="1"/>
        <pt x="601" y="369" on="0"/>
        <pt x="603" y="368" on="1"/>
        <pt x="615" y="373" on="0"/>
        <pt x="631" y="374" on="1"/>
        <pt x="644" y="375" on="1"/>
        <pt x="648" y="363" on="1"/>
        <pt x="650" y="360" on="0"/>
        <pt x="656" y="354" on="0"/>
        <pt x="660" y="351" on="1"/>
        <pt x="676" y="350" on="0"/>
        <pt x="691" y="339" on="0"/>
        <pt x="696" y="334" on="1"/>
        <pt x="698" y="332" on="0"/>
        <pt x="704" y="327" on="0"/>
        <pt x="706" y="326" on="1"/>
        <pt x="724" y="319" on="1"/>
        <pt x="714" y="300" on="1"/>
        <pt x="703" y="279" on="0"/>
        <pt x="658" y="239" on="0"/>
        <pt x="630" y="226" on="1"/>
        <pt x="632" y="219" on="0"/>
        <pt x="633" y="207" on="0"/>
        <pt x="635" y="199" on="1"/>
        <pt x="639" y="179" on="0"/>
        <pt x="644" y="136" on="0"/>
        <pt x="641" y="113" on="1"/>
        <pt x="631" y="87" on="0"/>
        <pt x="604" y="46" on="0"/>
        <pt x="567" y="13" on="0"/>
        <pt x="521" y="-8" on="0"/>
        <pt x="496" y="-9" on="1"/>
        <pt x="482" y="-6" on="0"/>
        <pt x="469" y="2" on="0"/>
        <pt x="464" y="6" on="1"/>
        <pt x="456" y="12" on="0"/>
        <pt x="451" y="14" on="1"/>
        <pt x="438" y="20" on="1"/>
        <pt x="442" y="35" on="1"/>
        <pt x="445" y="43" on="0"/>
        <pt x="438" y="55" on="0"/>
        <pt x="427" y="65" on="1"/>
        <pt x="423" y="68" on="0"/>
        <pt x="417" y="75" on="0"/>
        <pt x="413" y="79" on="1"/>
        <pt x="393" y="102" on="1"/>
        <pt x="426" y="111" on="1"/>
        <pt x="456" y="119" on="0"/>
        <pt x="476" y="144" on="0"/>
        <pt x="474" y="176" on="1"/>
        <pt x="449" y="181" on="0"/>
        <pt x="417" y="174" on="0"/>
        <pt x="401" y="170" on="1"/>
        <pt x="378" y="164" on="0"/>
        <pt x="334" y="155" on="0"/>
        <pt x="308" y="155" on="1"/>
        <pt x="291" y="155" on="0"/>
        <pt x="272" y="158" on="1"/>
        <pt x="261" y="159" on="1"/>
        <pt x="258" y="170" on="1"/>
        <pt x="258" y="172" on="0"/>
        <pt x="253" y="177" on="0"/>
        <pt x="251" y="179" on="1"/>
        <pt x="246" y="185" on="0"/>
        <pt x="232" y="205" on="0"/>
        <pt x="236" y="220" on="1"/>
        <pt x="229" y="231" on="0"/>
        <pt x="228" y="243" on="1"/>
        <pt x="224" y="235" on="0"/>
        <pt x="219" y="220" on="0"/>
        <pt x="217" y="213" on="1"/>
        <pt x="213" y="200" on="1"/>
        <pt x="200" y="198" on="1"/>
        <pt x="198" y="196" on="0"/>
        <pt x="195" y="188" on="0"/>
        <pt x="196" y="186" on="1"/>
        <pt x="200" y="175" on="1"/>
        <pt x="190" y="166" on="1"/>
        <pt x="188" y="163" on="0"/>
        <pt x="182" y="159" on="0"/>
        <pt x="180" y="157" on="1"/>
        <pt x="178" y="146" on="0"/>
        <pt x="171" y="126" on="0"/>
        <pt x="167" y="116" on="1"/>
        <pt x="162" y="100" on="0"/>
        <pt x="153" y="70" on="0"/>
        <pt x="153" y="55" on="1"/>
        <pt x="149" y="42" on="1"/>
        <pt x="144" y="34" on="0"/>
        <pt x="129" y="26" on="0"/>
        <pt x="122" y="23" on="1"/>
        <pt x="112" y="19" on="0"/>
        <pt x="108" y="15" on="1"/>
        <pt x="105" y="2" on="1"/>
        <pt x="90" y="0" on="1"/>
        <pt x="77" y="-3" on="0"/>
        <pt x="66" y="-5" on="0"/>
        <pt x="59" y="-5" on="1"/>
        <pt x="46" y="-4" on="1"/>
        <pt x="34" y="8" on="0"/>
        <pt x="19" y="21" on="0"/>
        <pt x="9" y="26" on="1"/>
        <pt x="3" y="34" on="1"/>
        <pt x="-1" y="42" on="0"/>
        <pt x="-3" y="55" on="0"/>
        <pt x="-5" y="62" on="1"/>
        <pt x="-7" y="75" on="0"/>
        <pt x="-11" y="80" on="1"/>
      </contour>
      <contour>
        <pt x="293" y="355" on="1"/>
        <pt x="279" y="335" on="0"/>
        <pt x="266" y="313" on="1"/>
        <pt x="273" y="314" on="0"/>
        <pt x="286" y="314" on="0"/>
        <pt x="293" y="315" on="1"/>
        <pt x="328" y="317" on="0"/>
        <pt x="388" y="323" on="0"/>
        <pt x="423" y="330" on="1"/>
        <pt x="415" y="367" on="0"/>
        <pt x="396" y="444" on="0"/>
        <pt x="385" y="483" on="1"/>
        <pt x="380" y="473" on="1"/>
        <pt x="355" y="446" on="0"/>
        <pt x="309" y="384" on="0"/>
        <pt x="294" y="356" on="1"/>
      </contour>
    </TTGlyph>
    <TTGlyph name="AE" xMin="-72" yMin="-9" xMax="1208" yMax="742">
      <contour>
        <pt x="-72" y="95" on="1"/>
        <pt x="-57" y="105" on="1"/>
        <pt x="-53" y="126" on="1"/>
        <pt x="-20" y="187" on="0"/>
        <pt x="49" y="299" on="0"/>
        <pt x="86" y="358" on="1"/>
        <pt x="98" y="377" on="0"/>
        <pt x="123" y="415" on="0"/>
        <pt x="135" y="435" on="1"/>
        <pt x="133" y="444" on="0"/>
        <pt x="138" y="454" on="1"/>
        <pt x="155" y="474" on="0"/>
        <pt x="176" y="506" on="0"/>
        <pt x="187" y="523" on="1"/>
        <pt x="199" y="543" on="0"/>
        <pt x="226" y="583" on="0"/>
        <pt x="244" y="602" on="1"/>
        <pt x="253" y="612" on="1"/>
        <pt x="264" y="611" on="1"/>
        <pt x="268" y="613" on="0"/>
        <pt x="277" y="616" on="0"/>
        <pt x="284" y="616" on="1"/>
        <pt x="302" y="613" on="1"/>
        <pt x="337" y="628" on="0"/>
        <pt x="396" y="685" on="0"/>
        <pt x="428" y="725" on="1"/>
        <pt x="442" y="742" on="1"/>
        <pt x="457" y="732" on="1"/>
        <pt x="462" y="729" on="0"/>
        <pt x="483" y="723" on="0"/>
        <pt x="494" y="719" on="1"/>
        <pt x="514" y="714" on="0"/>
        <pt x="552" y="701" on="0"/>
        <pt x="562" y="690" on="1"/>
        <pt x="566" y="670" on="0"/>
        <pt x="567" y="652" on="0"/>
        <pt x="567" y="643" on="1"/>
        <pt x="568" y="622" on="0"/>
        <pt x="568" y="581" on="0"/>
        <pt x="566" y="556" on="1"/>
        <pt x="570" y="518" on="0"/>
        <pt x="572" y="475" on="1"/>
        <pt x="574" y="446" on="0"/>
        <pt x="578" y="393" on="0"/>
        <pt x="584" y="369" on="1"/>
        <pt x="590" y="369" on="0"/>
        <pt x="605" y="369" on="0"/>
        <pt x="607" y="368" on="1"/>
        <pt x="612" y="370" on="0"/>
        <pt x="622" y="372" on="1"/>
        <pt x="632" y="392" on="0"/>
        <pt x="651" y="431" on="0"/>
        <pt x="659" y="454" on="1"/>
        <pt x="642" y="470" on="0"/>
        <pt x="627" y="507" on="0"/>
        <pt x="619" y="545" on="0"/>
        <pt x="615" y="584" on="0"/>
        <pt x="609" y="604" on="1"/>
        <pt x="621" y="622" on="0"/>
        <pt x="655" y="645" on="0"/>
        <pt x="697" y="660" on="0"/>
        <pt x="745" y="669" on="0"/>
        <pt x="771" y="675" on="1"/>
        <pt x="819" y="690" on="0"/>
        <pt x="895" y="707" on="0"/>
        <pt x="967" y="718" on="0"/>
        <pt x="1045" y="727" on="0"/>
        <pt x="1096" y="736" on="1"/>
        <pt x="1097" y="733" on="0"/>
        <pt x="1103" y="733" on="0"/>
        <pt x="1107" y="733" on="1"/>
        <pt x="1109" y="726" on="0"/>
        <pt x="1117" y="726" on="1"/>
        <pt x="1117" y="736" on="1"/>
        <pt x="1119" y="736" on="0"/>
        <pt x="1125" y="734" on="0"/>
        <pt x="1131" y="732" on="0"/>
        <pt x="1134" y="735" on="0"/>
        <pt x="1134" y="740" on="1"/>
        <pt x="1146" y="719" on="0"/>
        <pt x="1183" y="692" on="0"/>
        <pt x="1206" y="682" on="1"/>
        <pt x="1208" y="673" on="0"/>
        <pt x="1207" y="665" on="0"/>
        <pt x="1205" y="658" on="0"/>
        <pt x="1204" y="649" on="0"/>
        <pt x="1207" y="641" on="1"/>
        <pt x="1190" y="614" on="0"/>
        <pt x="1149" y="584" on="0"/>
        <pt x="1103" y="568" on="0"/>
        <pt x="1052" y="560" on="0"/>
        <pt x="999" y="551" on="0"/>
        <pt x="946" y="535" on="0"/>
        <pt x="920" y="519" on="1"/>
        <pt x="912" y="522" on="0"/>
        <pt x="899" y="521" on="0"/>
        <pt x="885" y="517" on="0"/>
        <pt x="867" y="513" on="0"/>
        <pt x="855" y="515" on="1"/>
        <pt x="848" y="508" on="0"/>
        <pt x="826" y="502" on="0"/>
        <pt x="815" y="499" on="1"/>
        <pt x="820" y="488" on="0"/>
        <pt x="819" y="466" on="0"/>
        <pt x="822" y="458" on="1"/>
        <pt x="864" y="454" on="0"/>
        <pt x="966" y="463" on="0"/>
        <pt x="1016" y="465" on="1"/>
        <pt x="1016" y="460" on="0"/>
        <pt x="1012" y="456" on="0"/>
        <pt x="1012" y="451" on="1"/>
        <pt x="1021" y="445" on="0"/>
        <pt x="1038" y="427" on="0"/>
        <pt x="1054" y="410" on="0"/>
        <pt x="1073" y="399" on="0"/>
        <pt x="1085" y="400" on="1"/>
        <pt x="1090" y="390" on="0"/>
        <pt x="1093" y="368" on="0"/>
        <pt x="1089" y="356" on="1"/>
        <pt x="1069" y="343" on="0"/>
        <pt x="1031" y="316" on="0"/>
        <pt x="989" y="294" on="0"/>
        <pt x="942" y="280" on="0"/>
        <pt x="914" y="281" on="1"/>
        <pt x="909" y="281" on="0"/>
        <pt x="901" y="281" on="0"/>
        <pt x="897" y="285" on="1"/>
        <pt x="886" y="280" on="0"/>
        <pt x="853" y="283" on="0"/>
        <pt x="842" y="278" on="1"/>
        <pt x="828" y="283" on="0"/>
        <pt x="792" y="283" on="0"/>
        <pt x="778" y="288" on="1"/>
        <pt x="759" y="262" on="0"/>
        <pt x="727" y="205" on="0"/>
        <pt x="715" y="173" on="1"/>
        <pt x="756" y="167" on="0"/>
        <pt x="811" y="169" on="0"/>
        <pt x="858" y="175" on="0"/>
        <pt x="909" y="181" on="0"/>
        <pt x="946" y="180" on="1"/>
        <pt x="972" y="192" on="0"/>
        <pt x="1036" y="201" on="0"/>
        <pt x="1065" y="210" on="1"/>
        <pt x="1075" y="207" on="0"/>
        <pt x="1088" y="190" on="0"/>
        <pt x="1101" y="173" on="0"/>
        <pt x="1116" y="161" on="0"/>
        <pt x="1127" y="163" on="1"/>
        <pt x="1132" y="158" on="0"/>
        <pt x="1135" y="144" on="0"/>
        <pt x="1137" y="132" on="0"/>
        <pt x="1143" y="125" on="0"/>
        <pt x="1151" y="126" on="1"/>
        <pt x="1132" y="87" on="0"/>
        <pt x="1085" y="45" on="0"/>
        <pt x="1026" y="22" on="0"/>
        <pt x="953" y="11" on="0"/>
        <pt x="908" y="3" on="1"/>
        <pt x="897" y="1" on="0"/>
        <pt x="883" y="6" on="0"/>
        <pt x="874" y="6" on="1"/>
        <pt x="846" y="1" on="0"/>
        <pt x="769" y="-9" on="0"/>
        <pt x="691" y="-7" on="0"/>
        <pt x="619" y="11" on="0"/>
        <pt x="595" y="34" on="1"/>
        <pt x="588" y="40" on="0"/>
        <pt x="583" y="57" on="0"/>
        <pt x="576" y="64" on="1"/>
        <pt x="564" y="49" on="0"/>
        <pt x="531" y="23" on="0"/>
        <pt x="493" y="3" on="0"/>
        <pt x="454" y="-9" on="0"/>
        <pt x="435" y="-9" on="1"/>
        <pt x="421" y="-6" on="0"/>
        <pt x="410" y="2" on="0"/>
        <pt x="405" y="6" on="1"/>
        <pt x="402" y="8" on="0"/>
        <pt x="397" y="12" on="0"/>
        <pt x="394" y="14" on="1"/>
        <pt x="381" y="20" on="1"/>
        <pt x="388" y="35" on="1"/>
        <pt x="392" y="43" on="0"/>
        <pt x="386" y="55" on="0"/>
        <pt x="377" y="65" on="1"/>
        <pt x="374" y="68" on="0"/>
        <pt x="368" y="75" on="0"/>
        <pt x="365" y="79" on="1"/>
        <pt x="348" y="102" on="1"/>
        <pt x="382" y="111" on="1"/>
        <pt x="413" y="119" on="0"/>
        <pt x="436" y="144" on="0"/>
        <pt x="439" y="176" on="1"/>
        <pt x="416" y="181" on="0"/>
        <pt x="382" y="174" on="0"/>
        <pt x="365" y="170" on="1"/>
        <pt x="342" y="164" on="0"/>
        <pt x="297" y="155" on="0"/>
        <pt x="271" y="155" on="1"/>
        <pt x="253" y="155" on="0"/>
        <pt x="235" y="158" on="1"/>
        <pt x="224" y="159" on="1"/>
        <pt x="223" y="170" on="1"/>
        <pt x="222" y="172" on="0"/>
        <pt x="219" y="177" on="0"/>
        <pt x="217" y="179" on="1"/>
        <pt x="212" y="185" on="0"/>
        <pt x="202" y="205" on="0"/>
        <pt x="207" y="220" on="1"/>
        <pt x="205" y="225" on="0"/>
        <pt x="203" y="237" on="0"/>
        <pt x="203" y="243" on="1"/>
        <pt x="198" y="235" on="0"/>
        <pt x="191" y="220" on="0"/>
        <pt x="187" y="213" on="1"/>
        <pt x="182" y="200" on="1"/>
        <pt x="169" y="198" on="1"/>
        <pt x="167" y="196" on="0"/>
        <pt x="163" y="188" on="0"/>
        <pt x="163" y="186" on="1"/>
        <pt x="165" y="175" on="1"/>
        <pt x="154" y="166" on="1"/>
        <pt x="151" y="163" on="0"/>
        <pt x="146" y="159" on="0"/>
        <pt x="143" y="157" on="1"/>
        <pt x="138" y="146" on="0"/>
        <pt x="129" y="126" on="0"/>
        <pt x="124" y="116" on="1"/>
        <pt x="116" y="100" on="0"/>
        <pt x="104" y="70" on="0"/>
        <pt x="102" y="55" on="1"/>
        <pt x="95" y="42" on="1"/>
        <pt x="89" y="34" on="0"/>
        <pt x="73" y="26" on="0"/>
        <pt x="65" y="23" on="1"/>
        <pt x="62" y="21" on="0"/>
        <pt x="53" y="17" on="0"/>
        <pt x="51" y="15" on="1"/>
        <pt x="45" y="2" on="1"/>
        <pt x="31" y="0" on="1"/>
        <pt x="17" y="-3" on="0"/>
        <pt x="6" y="-5" on="0"/>
        <pt x="-1" y="-5" on="1"/>
        <pt x="-14" y="-4" on="1"/>
        <pt x="-25" y="8" on="0"/>
        <pt x="-38" y="21" on="0"/>
        <pt x="-47" y="26" on="1"/>
        <pt x="-56" y="47" on="0"/>
        <pt x="-56" y="62" on="1"/>
        <pt x="-56" y="77" on="0"/>
        <pt x="-59" y="80" on="1"/>
      </contour>
      <contour>
        <pt x="284" y="355" on="1"/>
        <pt x="276" y="345" on="0"/>
        <pt x="259" y="324" on="0"/>
        <pt x="251" y="313" on="1"/>
        <pt x="259" y="314" on="0"/>
        <pt x="271" y="314" on="0"/>
        <pt x="278" y="315" on="1"/>
        <pt x="314" y="317" on="0"/>
        <pt x="374" y="323" on="0"/>
        <pt x="410" y="330" on="1"/>
        <pt x="408" y="367" on="0"/>
        <pt x="399" y="444" on="0"/>
        <pt x="394" y="483" on="1"/>
        <pt x="388" y="473" on="1"/>
        <pt x="359" y="446" on="0"/>
        <pt x="305" y="384" on="0"/>
        <pt x="285" y="356" on="1"/>
      </contour>
    </TTGlyph>
    <TTGlyph name="Aacute" xMin="-26" yMin="-9" xMax="724" yMax="1105">
      <component glyphName="A" x="0" y="0" flags="0x204"/>
      <component glyphName="acute" x="10" y="338" flags="0x4"/>
    </TTGlyph>
    <TTGlyph name="Acircumflex" xMin="-26" yMin="-9" xMax="724" yMax="1040">
      <component glyphName="A" x="0" y="0" flags="0x204"/>
      <component glyphName="circumflex" x="0" y="246" flags="0x4"/>
    </TTGlyph>
    <TTGlyph name="Adieresis" xMin="-26" yMin="-9" xMax="724" yMax="980">
      <component glyphName="A" x="0" y="0" flags="0x204"/>
      <component glyphName="dieresis" x="10" y="225" flags="0x4"/>
    </TTGlyph>
    <TTGlyph name="Agrave" xMin="-26" yMin="-9" xMax="724" yMax="1084">
      <component glyphName="A" x="0" y="0" flags="0x204"/>
      <component glyphName="grave" x="0" y="317" flags="0x4"/>
    </TTGlyph>
    <TTGlyph name="Aring" xMin="-26" yMin="-9" xMax="724" yMax="991">
      <contour>
        <pt x="293" y="355" on="1"/>
        <pt x="279" y="335" on="0"/>
        <pt x="266" y="313" on="1"/>
        <pt x="293" y="315" on="1"/>
        <pt x="328" y="317" on="0"/>
        <pt x="388" y="323" on="0"/>
        <pt x="423" y="330" on="1"/>
        <pt x="415" y="367" on="0"/>
        <pt x="396" y="444" on="0"/>
        <pt x="385" y="483" on="1"/>
        <pt x="380" y="473" on="1"/>
        <pt x="355" y="446" on="0"/>
        <pt x="309" y="384" on="0"/>
        <pt x="294" y="356" on="1"/>
      </contour>
      <contour>
        <pt x="572" y="701" on="1"/>
        <pt x="567" y="695" on="0"/>
        <pt x="555" y="693" on="0"/>
        <pt x="547" y="691" on="1"/>
        <pt x="543" y="689" on="0"/>
        <pt x="533" y="684" on="0"/>
        <pt x="528" y="682" on="1"/>
        <pt x="530" y="670" on="0"/>
        <pt x="533" y="652" on="0"/>
        <pt x="535" y="643" on="1"/>
        <pt x="539" y="622" on="0"/>
        <pt x="545" y="581" on="0"/>
        <pt x="546" y="556" on="1"/>
        <pt x="551" y="536" on="0"/>
        <pt x="560" y="495" on="0"/>
        <pt x="564" y="475" on="1"/>
        <pt x="569" y="446" on="0"/>
        <pt x="581" y="393" on="0"/>
        <pt x="591" y="369" on="1"/>
        <pt x="601" y="369" on="0"/>
        <pt x="603" y="368" on="1"/>
        <pt x="615" y="373" on="0"/>
        <pt x="631" y="374" on="1"/>
        <pt x="644" y="375" on="1"/>
        <pt x="648" y="363" on="1"/>
        <pt x="650" y="360" on="0"/>
        <pt x="656" y="354" on="0"/>
        <pt x="660" y="351" on="1"/>
        <pt x="676" y="350" on="0"/>
        <pt x="691" y="339" on="0"/>
        <pt x="696" y="334" on="1"/>
        <pt x="698" y="332" on="0"/>
        <pt x="704" y="327" on="0"/>
        <pt x="706" y="326" on="1"/>
        <pt x="724" y="319" on="1"/>
        <pt x="714" y="300" on="1"/>
        <pt x="703" y="279" on="0"/>
        <pt x="658" y="239" on="0"/>
        <pt x="630" y="226" on="1"/>
        <pt x="632" y="219" on="0"/>
        <pt x="633" y="207" on="0"/>
        <pt x="635" y="199" on="1"/>
        <pt x="639" y="179" on="0"/>
        <pt x="644" y="136" on="0"/>
        <pt x="641" y="113" on="1"/>
        <pt x="631" y="87" on="0"/>
        <pt x="604" y="46" on="0"/>
        <pt x="567" y="13" on="0"/>
        <pt x="521" y="-8" on="0"/>
        <pt x="496" y="-9" on="1"/>
        <pt x="482" y="-6" on="0"/>
        <pt x="469" y="2" on="0"/>
        <pt x="464" y="6" on="1"/>
        <pt x="456" y="12" on="0"/>
        <pt x="451" y="14" on="1"/>
        <pt x="438" y="20" on="1"/>
        <pt x="442" y="35" on="1"/>
        <pt x="445" y="43" on="0"/>
        <pt x="438" y="55" on="0"/>
        <pt x="427" y="65" on="1"/>
        <pt x="423" y="68" on="0"/>
        <pt x="417" y="75" on="0"/>
        <pt x="413" y="79" on="1"/>
        <pt x="393" y="102" on="1"/>
        <pt x="426" y="111" on="1"/>
        <pt x="456" y="119" on="0"/>
        <pt x="476" y="144" on="0"/>
        <pt x="474" y="176" on="1"/>
        <pt x="449" y="181" on="0"/>
        <pt x="417" y="174" on="0"/>
        <pt x="401" y="170" on="1"/>
        <pt x="378" y="164" on="0"/>
        <pt x="334" y="155" on="0"/>
        <pt x="308" y="155" on="1"/>
        <pt x="291" y="155" on="0"/>
        <pt x="272" y="158" on="1"/>
        <pt x="261" y="159" on="1"/>
        <pt x="258" y="170" on="1"/>
        <pt x="258" y="172" on="0"/>
        <pt x="253" y="177" on="0"/>
        <pt x="251" y="179" on="1"/>
        <pt x="246" y="185" on="0"/>
        <pt x="232" y="205" on="0"/>
        <pt x="236" y="220" on="1"/>
        <pt x="229" y="231" on="0"/>
        <pt x="228" y="243" on="1"/>
        <pt x="224" y="235" on="0"/>
        <pt x="219" y="220" on="0"/>
        <pt x="217" y="213" on="1"/>
        <pt x="213" y="200" on="1"/>
        <pt x="200" y="198" on="1"/>
        <pt x="198" y="196" on="0"/>
        <pt x="195" y="188" on="0"/>
        <pt x="196" y="186" on="1"/>
        <pt x="200" y="175" on="1"/>
        <pt x="190" y="166" on="1"/>
        <pt x="188" y="163" on="0"/>
        <pt x="182" y="159" on="0"/>
        <pt x="180" y="157" on="1"/>
        <pt x="178" y="146" on="0"/>
        <pt x="171" y="126" on="0"/>
        <pt x="167" y="116" on="1"/>
        <pt x="162" y="100" on="0"/>
        <pt x="153" y="70" on="0"/>
        <pt x="153" y="55" on="1"/>
        <pt x="149" y="42" on="1"/>
        <pt x="144" y="34" on="0"/>
        <pt x="129" y="26" on="0"/>
        <pt x="122" y="23" on="1"/>
        <pt x="112" y="19" on="0"/>
        <pt x="108" y="15" on="1"/>
        <pt x="105" y="2" on="1"/>
        <pt x="90" y="0" on="1"/>
        <pt x="77" y="-3" on="0"/>
        <pt x="66" y="-5" on="0"/>
        <pt x="59" y="-5" on="1"/>
        <pt x="46" y="-4" on="1"/>
        <pt x="34" y="8" on="0"/>
        <pt x="19" y="21" on="0"/>
        <pt x="9" y="26" on="1"/>
        <pt x="3" y="34" on="1"/>
        <pt x="-1" y="42" on="0"/>
        <pt x="-3" y="55" on="0"/>
        <pt x="-5" y="62" on="1"/>
        <pt x="-7" y="75" on="0"/>
        <pt x="-11" y="80" on="1"/>
        <pt x="-26" y="95" on="1"/>
        <pt x="-13" y="105" on="1"/>
        <pt x="-12" y="126" on="1"/>
        <pt x="13" y="187" on="0"/>
        <pt x="66" y="299" on="0"/>
        <pt x="95" y="358" on="1"/>
        <pt x="104" y="377" on="0"/>
        <pt x="123" y="415" on="0"/>
        <pt x="132" y="435" on="1"/>
        <pt x="131" y="439" on="0"/>
        <pt x="131" y="448" on="0"/>
        <pt x="133" y="454" on="1"/>
        <pt x="147" y="474" on="0"/>
        <pt x="164" y="506" on="0"/>
        <pt x="172" y="523" on="1"/>
        <pt x="181" y="543" on="0"/>
        <pt x="202" y="583" on="0"/>
        <pt x="218" y="602" on="1"/>
        <pt x="225" y="612" on="1"/>
        <pt x="236" y="611" on="1"/>
        <pt x="240" y="613" on="0"/>
        <pt x="249" y="616" on="0"/>
        <pt x="256" y="616" on="1"/>
        <pt x="274" y="613" on="1"/>
        <pt x="321" y="639" on="0"/>
        <pt x="358" y="688" on="1"/>
        <pt x="339" y="705" on="0"/>
        <pt x="330" y="730" on="1"/>
        <pt x="326" y="758" on="0"/>
        <pt x="338" y="805" on="0"/>
        <pt x="360" y="845" on="0"/>
        <pt x="389" y="879" on="0"/>
        <pt x="403" y="895" on="1"/>
        <pt x="409" y="893" on="0"/>
        <pt x="414" y="904" on="0"/>
        <pt x="419" y="906" on="1"/>
        <pt x="422" y="914" on="0"/>
        <pt x="436" y="921" on="0"/>
        <pt x="440" y="928" on="1"/>
        <pt x="448" y="930" on="0"/>
        <pt x="458" y="942" on="0"/>
        <pt x="466" y="944" on="1"/>
        <pt x="475" y="953" on="0"/>
        <pt x="484" y="963" on="0"/>
        <pt x="490" y="971" on="1"/>
        <pt x="495" y="972" on="0"/>
        <pt x="500" y="971" on="0"/>
        <pt x="505" y="973" on="1"/>
        <pt x="510" y="980" on="0"/>
        <pt x="516" y="986" on="0"/>
        <pt x="522" y="991" on="1"/>
        <pt x="529" y="988" on="0"/>
        <pt x="543" y="986" on="0"/>
        <pt x="549" y="980" on="1"/>
        <pt x="549" y="975" on="0"/>
        <pt x="554" y="969" on="0"/>
        <pt x="560" y="965" on="0"/>
        <pt x="566" y="959" on="0"/>
        <pt x="567" y="955" on="1"/>
        <pt x="574" y="949" on="0"/>
        <pt x="578" y="945" on="0"/>
        <pt x="580" y="938" on="1"/>
        <pt x="578" y="933" on="0"/>
        <pt x="575" y="922" on="0"/>
        <pt x="570" y="920" on="1"/>
        <pt x="575" y="908" on="0"/>
        <pt x="574" y="907" on="1"/>
        <pt x="585" y="887" on="0"/>
        <pt x="605" y="844" on="0"/>
        <pt x="617" y="824" on="1"/>
        <pt x="615" y="812" on="0"/>
        <pt x="627" y="791" on="0"/>
        <pt x="629" y="780" on="1"/>
        <pt x="631" y="762" on="0"/>
        <pt x="622" y="740" on="0"/>
        <pt x="606" y="723" on="0"/>
        <pt x="584" y="708" on="0"/>
        <pt x="574" y="699" on="1"/>
      </contour>
      <contour>
        <pt x="508" y="796" on="1"/>
        <pt x="510" y="806" on="0"/>
        <pt x="510" y="809" on="1"/>
        <pt x="506" y="815" on="0"/>
        <pt x="500" y="829" on="0"/>
        <pt x="496" y="835" on="1"/>
        <pt x="491" y="830" on="0"/>
        <pt x="486" y="831" on="0"/>
        <pt x="484" y="833" on="1"/>
        <pt x="479" y="828" on="0"/>
        <pt x="468" y="819" on="0"/>
        <pt x="463" y="814" on="1"/>
        <pt x="457" y="806" on="0"/>
        <pt x="447" y="795" on="0"/>
        <pt x="447" y="786" on="1"/>
        <pt x="454" y="781" on="0"/>
        <pt x="474" y="784" on="0"/>
        <pt x="482" y="784" on="1"/>
        <pt x="490" y="787" on="0"/>
        <pt x="502" y="793" on="0"/>
      </contour>
    </TTGlyph>
    <TTGlyph name="Atilde" xMin="-26" yMin="-9" xMax="747" yMax="990">
      <component glyphName="A" x="0" y="0" flags="0x204"/>
      <component glyphName="tilde" x="51" y="225" flags="0x4"/>
    </TTGlyph>
    <TTGlyph name="B" xMin="-31" yMin="-22" xMax="673" yMax="752">
      <contour>
        <pt x="83" y="483" on="1"/>
        <pt x="41" y="500" on="0"/>
        <pt x="-14" y="562" on="0"/>
        <pt x="-31" y="604" on="1"/>
        <pt x="-21" y="631" on="0"/>
        <pt x="23" y="668" on="0"/>
        <pt x="78" y="694" on="0"/>
        <pt x="140" y="710" on="0"/>
        <pt x="169" y="716" on="1"/>
        <pt x="175" y="714" on="0"/>
        <pt x="175" y="718" on="0"/>
        <pt x="180" y="714" on="1"/>
        <pt x="216" y="725" on="0"/>
        <pt x="310" y="746" on="0"/>
        <pt x="363" y="743" on="1"/>
        <pt x="370" y="747" on="0"/>
        <pt x="390" y="748" on="0"/>
        <pt x="412" y="748" on="0"/>
        <pt x="432" y="749" on="0"/>
        <pt x="439" y="752" on="1"/>
        <pt x="445" y="745" on="0"/>
        <pt x="469" y="742" on="0"/>
        <pt x="482" y="733" on="1"/>
        <pt x="486" y="732" on="0"/>
        <pt x="478" y="741" on="0"/>
        <pt x="483" y="743" on="1"/>
        <pt x="496" y="743" on="0"/>
        <pt x="516" y="731" on="0"/>
        <pt x="533" y="716" on="0"/>
        <pt x="548" y="704" on="0"/>
        <pt x="557" y="704" on="1"/>
        <pt x="566" y="693" on="0"/>
        <pt x="591" y="674" on="0"/>
        <pt x="614" y="654" on="0"/>
        <pt x="629" y="630" on="0"/>
        <pt x="629" y="615" on="1"/>
        <pt x="628" y="609" on="0"/>
        <pt x="638" y="607" on="0"/>
        <pt x="640" y="602" on="1"/>
        <pt x="641" y="565" on="0"/>
        <pt x="616" y="511" on="0"/>
        <pt x="578" y="466" on="0"/>
        <pt x="535" y="426" on="0"/>
        <pt x="517" y="403" on="1"/>
        <pt x="529" y="388" on="0"/>
        <pt x="560" y="363" on="0"/>
        <pt x="592" y="339" on="0"/>
        <pt x="621" y="312" on="0"/>
        <pt x="631" y="295" on="1"/>
        <pt x="634" y="289" on="0"/>
        <pt x="644" y="287" on="1"/>
        <pt x="647" y="275" on="0"/>
        <pt x="658" y="250" on="0"/>
        <pt x="668" y="227" on="0"/>
        <pt x="670" y="209" on="0"/>
        <pt x="664" y="203" on="1"/>
        <pt x="671" y="199" on="0"/>
        <pt x="673" y="182" on="0"/>
        <pt x="672" y="177" on="1"/>
        <pt x="650" y="150" on="0"/>
        <pt x="634" y="128" on="0"/>
        <pt x="626" y="118" on="0"/>
        <pt x="618" y="110" on="0"/>
        <pt x="604" y="98" on="1"/>
        <pt x="551" y="66" on="0"/>
        <pt x="436" y="15" on="0"/>
        <pt x="374" y="6" on="1"/>
        <pt x="369" y="-1" on="0"/>
        <pt x="350" y="-10" on="0"/>
        <pt x="326" y="-16" on="0"/>
        <pt x="299" y="-20" on="0"/>
        <pt x="288" y="-22" on="1"/>
        <pt x="283" y="-20" on="0"/>
        <pt x="282" y="-11" on="0"/>
        <pt x="277" y="-9" on="1"/>
        <pt x="276" y="-21" on="0"/>
        <pt x="257" y="-22" on="0"/>
        <pt x="229" y="-12" on="0"/>
        <pt x="199" y="6" on="0"/>
        <pt x="188" y="14" on="1"/>
        <pt x="183" y="5" on="0"/>
        <pt x="168" y="-15" on="0"/>
        <pt x="160" y="-19" on="1"/>
        <pt x="146" y="-17" on="0"/>
        <pt x="133" y="-15" on="0"/>
        <pt x="127" y="-21" on="1"/>
        <pt x="119" y="-17" on="0"/>
        <pt x="111" y="-8" on="0"/>
        <pt x="103" y="1" on="0"/>
        <pt x="93" y="8" on="0"/>
        <pt x="83" y="11" on="1"/>
        <pt x="85" y="16" on="0"/>
        <pt x="75" y="37" on="0"/>
        <pt x="66" y="39" on="1"/>
        <pt x="71" y="47" on="0"/>
        <pt x="53" y="72" on="0"/>
        <pt x="48" y="88" on="1"/>
        <pt x="49" y="95" on="0"/>
        <pt x="50" y="110" on="0"/>
        <pt x="53" y="123" on="0"/>
        <pt x="59" y="133" on="0"/>
        <pt x="66" y="135" on="1"/>
        <pt x="65" y="148" on="0"/>
        <pt x="58" y="160" on="1"/>
        <pt x="67" y="167" on="0"/>
        <pt x="73" y="188" on="0"/>
        <pt x="78" y="210" on="0"/>
        <pt x="86" y="231" on="0"/>
        <pt x="95" y="238" on="1"/>
        <pt x="93" y="241" on="0"/>
        <pt x="89" y="245" on="0"/>
        <pt x="89" y="250" on="1"/>
        <pt x="104" y="275" on="0"/>
        <pt x="116" y="310" on="0"/>
        <pt x="123" y="343" on="0"/>
        <pt x="131" y="381" on="0"/>
        <pt x="143" y="410" on="1"/>
        <pt x="142" y="428" on="0"/>
        <pt x="152" y="456" on="0"/>
        <pt x="163" y="483" on="0"/>
        <pt x="169" y="513" on="0"/>
        <pt x="165" y="533" on="1"/>
        <pt x="148" y="531" on="0"/>
        <pt x="133" y="511" on="0"/>
        <pt x="131" y="494" on="1"/>
        <pt x="122" y="486" on="0"/>
        <pt x="94" y="487" on="0"/>
      </contour>
      <contour>
        <pt x="523" y="290" on="1"/>
        <pt x="485" y="311" on="0"/>
        <pt x="422" y="319" on="0"/>
        <pt x="365" y="310" on="0"/>
        <pt x="313" y="294" on="0"/>
        <pt x="287" y="290" on="1"/>
        <pt x="274" y="256" on="0"/>
        <pt x="246" y="174" on="0"/>
        <pt x="233" y="135" on="1"/>
        <pt x="269" y="140" on="0"/>
        <pt x="329" y="160" on="0"/>
        <pt x="385" y="185" on="0"/>
        <pt x="439" y="210" on="0"/>
        <pt x="468" y="221" on="1"/>
        <pt x="471" y="233" on="0"/>
        <pt x="491" y="247" on="0"/>
        <pt x="511" y="260" on="0"/>
        <pt x="525" y="276" on="0"/>
      </contour>
      <contour>
        <pt x="453" y="603" on="1"/>
        <pt x="391" y="605" on="0"/>
        <pt x="271" y="579" on="0"/>
        <pt x="230" y="554" on="1"/>
        <pt x="250" y="537" on="0"/>
        <pt x="293" y="511" on="0"/>
        <pt x="304" y="489" on="1"/>
        <pt x="352" y="508" on="0"/>
        <pt x="424" y="567" on="0"/>
      </contour>
    </TTGlyph>
    <TTGlyph name="C" xMin="-1" yMin="-2" xMax="610" yMax="737">
      <contour>
        <pt x="93" y="87" on="1"/>
        <pt x="64" y="109" on="0"/>
        <pt x="27" y="175" on="0"/>
        <pt x="6" y="249" on="0"/>
        <pt x="-1" y="328" on="0"/>
        <pt x="0" y="364" on="1"/>
        <pt x="9" y="391" on="0"/>
        <pt x="35" y="436" on="0"/>
        <pt x="67" y="477" on="0"/>
        <pt x="102" y="514" on="0"/>
        <pt x="119" y="533" on="1"/>
        <pt x="125" y="533" on="0"/>
        <pt x="130" y="530" on="1"/>
        <pt x="134" y="541" on="0"/>
        <pt x="150" y="557" on="0"/>
        <pt x="168" y="570" on="0"/>
        <pt x="186" y="583" on="0"/>
        <pt x="192" y="592" on="1"/>
        <pt x="217" y="598" on="0"/>
        <pt x="256" y="620" on="0"/>
        <pt x="292" y="646" on="0"/>
        <pt x="330" y="668" on="0"/>
        <pt x="355" y="674" on="1"/>
        <pt x="364" y="684" on="0"/>
        <pt x="391" y="698" on="0"/>
        <pt x="418" y="710" on="0"/>
        <pt x="443" y="724" on="0"/>
        <pt x="451" y="736" on="1"/>
        <pt x="457" y="728" on="0"/>
        <pt x="479" y="733" on="0"/>
        <pt x="488" y="736" on="1"/>
        <pt x="494" y="737" on="0"/>
        <pt x="502" y="731" on="0"/>
        <pt x="509" y="724" on="0"/>
        <pt x="514" y="722" on="0"/>
        <pt x="517" y="729" on="1"/>
        <pt x="525" y="728" on="0"/>
        <pt x="518" y="716" on="0"/>
        <pt x="517" y="714" on="1"/>
        <pt x="527" y="716" on="0"/>
        <pt x="540" y="705" on="0"/>
        <pt x="554" y="703" on="1"/>
        <pt x="559" y="698" on="0"/>
        <pt x="555" y="692" on="0"/>
        <pt x="554" y="685" on="1"/>
        <pt x="590" y="674" on="0"/>
        <pt x="610" y="627" on="0"/>
        <pt x="594" y="576" on="0"/>
        <pt x="551" y="533" on="0"/>
        <pt x="525" y="526" on="1"/>
        <pt x="494" y="518" on="0"/>
        <pt x="441" y="502" on="0"/>
        <pt x="392" y="482" on="0"/>
        <pt x="349" y="455" on="0"/>
        <pt x="333" y="437" on="1"/>
        <pt x="305" y="429" on="0"/>
        <pt x="260" y="401" on="0"/>
        <pt x="221" y="367" on="0"/>
        <pt x="185" y="330" on="0"/>
        <pt x="167" y="312" on="1"/>
        <pt x="167" y="295" on="0"/>
        <pt x="155" y="277" on="0"/>
        <pt x="148" y="268" on="1"/>
        <pt x="150" y="249" on="0"/>
        <pt x="163" y="222" on="0"/>
        <pt x="170" y="208" on="1"/>
        <pt x="250" y="184" on="0"/>
        <pt x="429" y="173" on="0"/>
        <pt x="517" y="172" on="1"/>
        <pt x="526" y="160" on="0"/>
        <pt x="549" y="139" on="0"/>
        <pt x="568" y="117" on="0"/>
        <pt x="579" y="88" on="0"/>
        <pt x="576" y="68" on="1"/>
        <pt x="559" y="51" on="0"/>
        <pt x="519" y="20" on="0"/>
        <pt x="499" y="5" on="1"/>
        <pt x="490" y="4" on="0"/>
        <pt x="465" y="6" on="0"/>
        <pt x="438" y="6" on="0"/>
        <pt x="411" y="3" on="0"/>
        <pt x="399" y="-2" on="1"/>
        <pt x="336" y="0" on="0"/>
        <pt x="204" y="27" on="0"/>
        <pt x="148" y="46" on="1"/>
        <pt x="137" y="59" on="0"/>
        <pt x="113" y="82" on="0"/>
      </contour>
    </TTGlyph>
    <TTGlyph name="Ccedilla" xMin="-1" yMin="-325" xMax="610" yMax="737">
      <contour>
        <pt x="402" y="-149" on="1"/>
        <pt x="417" y="-163" on="0"/>
        <pt x="433" y="-200" on="0"/>
        <pt x="428" y="-225" on="1"/>
        <pt x="419" y="-245" on="0"/>
        <pt x="390" y="-274" on="0"/>
        <pt x="369" y="-290" on="1"/>
        <pt x="351" y="-298" on="0"/>
        <pt x="317" y="-306" on="0"/>
        <pt x="304" y="-314" on="1"/>
        <pt x="298" y="-312" on="0"/>
        <pt x="287" y="-313" on="0"/>
        <pt x="284" y="-311" on="1"/>
        <pt x="267" y="-319" on="0"/>
        <pt x="226" y="-325" on="0"/>
        <pt x="203" y="-319" on="1"/>
        <pt x="186" y="-321" on="0"/>
        <pt x="153" y="-320" on="0"/>
        <pt x="126" y="-313" on="0"/>
        <pt x="106" y="-300" on="0"/>
        <pt x="103" y="-288" on="1"/>
        <pt x="85" y="-278" on="0"/>
        <pt x="73" y="-244" on="0"/>
        <pt x="84" y="-227" on="1"/>
        <pt x="92" y="-226" on="0"/>
        <pt x="99" y="-220" on="1"/>
        <pt x="140" y="-221" on="0"/>
        <pt x="226" y="-220" on="0"/>
        <pt x="275" y="-209" on="1"/>
        <pt x="276" y="-204" on="0"/>
        <pt x="285" y="-199" on="0"/>
        <pt x="295" y="-195" on="0"/>
        <pt x="305" y="-191" on="0"/>
        <pt x="307" y="-187" on="1"/>
        <pt x="307" y="-184" on="0"/>
        <pt x="303" y="-181" on="0"/>
        <pt x="298" y="-178" on="0"/>
        <pt x="294" y="-174" on="0"/>
        <pt x="295" y="-170" on="1"/>
        <pt x="284" y="-171" on="0"/>
        <pt x="257" y="-162" on="0"/>
        <pt x="249" y="-156" on="1"/>
        <pt x="232" y="-155" on="0"/>
        <pt x="218" y="-152" on="0"/>
        <pt x="207" y="-148" on="0"/>
        <pt x="193" y="-142" on="0"/>
        <pt x="177" y="-137" on="1"/>
        <pt x="171" y="-131" on="0"/>
        <pt x="159" y="-123" on="0"/>
        <pt x="149" y="-116" on="0"/>
        <pt x="142" y="-107" on="0"/>
        <pt x="141" y="-98" on="1"/>
        <pt x="141" y="-88" on="0"/>
        <pt x="142" y="-74" on="0"/>
        <pt x="143" y="-59" on="0"/>
        <pt x="146" y="-43" on="0"/>
        <pt x="149" y="-32" on="1"/>
        <pt x="157" y="-24" on="0"/>
        <pt x="186" y="12" on="0"/>
        <pt x="206" y="28" on="1"/>
        <pt x="191" y="33" on="0"/>
        <pt x="162" y="41" on="0"/>
        <pt x="148" y="46" on="1"/>
        <pt x="137" y="59" on="0"/>
        <pt x="113" y="82" on="0"/>
        <pt x="93" y="87" on="1"/>
        <pt x="64" y="109" on="0"/>
        <pt x="27" y="175" on="0"/>
        <pt x="6" y="249" on="0"/>
        <pt x="-1" y="328" on="0"/>
        <pt x="0" y="364" on="1"/>
        <pt x="9" y="391" on="0"/>
        <pt x="35" y="436" on="0"/>
        <pt x="67" y="477" on="0"/>
        <pt x="102" y="514" on="0"/>
        <pt x="119" y="533" on="1"/>
        <pt x="125" y="533" on="0"/>
        <pt x="130" y="530" on="1"/>
        <pt x="134" y="541" on="0"/>
        <pt x="150" y="557" on="0"/>
        <pt x="168" y="570" on="0"/>
        <pt x="186" y="583" on="0"/>
        <pt x="192" y="592" on="1"/>
        <pt x="217" y="598" on="0"/>
        <pt x="256" y="620" on="0"/>
        <pt x="292" y="646" on="0"/>
        <pt x="330" y="668" on="0"/>
        <pt x="355" y="674" on="1"/>
        <pt x="364" y="684" on="0"/>
        <pt x="391" y="698" on="0"/>
        <pt x="418" y="710" on="0"/>
        <pt x="443" y="724" on="0"/>
        <pt x="451" y="736" on="1"/>
        <pt x="457" y="728" on="0"/>
        <pt x="479" y="733" on="0"/>
        <pt x="488" y="736" on="1"/>
        <pt x="494" y="737" on="0"/>
        <pt x="502" y="731" on="0"/>
        <pt x="509" y="724" on="0"/>
        <pt x="514" y="722" on="0"/>
        <pt x="517" y="729" on="1"/>
        <pt x="525" y="728" on="0"/>
        <pt x="518" y="716" on="0"/>
        <pt x="517" y="714" on="1"/>
        <pt x="527" y="716" on="0"/>
        <pt x="540" y="705" on="0"/>
        <pt x="554" y="703" on="1"/>
        <pt x="559" y="698" on="0"/>
        <pt x="555" y="692" on="0"/>
        <pt x="554" y="685" on="1"/>
        <pt x="590" y="674" on="0"/>
        <pt x="610" y="627" on="0"/>
        <pt x="594" y="576" on="0"/>
        <pt x="551" y="533" on="0"/>
        <pt x="525" y="526" on="1"/>
        <pt x="494" y="518" on="0"/>
        <pt x="441" y="502" on="0"/>
        <pt x="392" y="482" on="0"/>
        <pt x="349" y="455" on="0"/>
        <pt x="333" y="437" on="1"/>
        <pt x="305" y="429" on="0"/>
        <pt x="260" y="401" on="0"/>
        <pt x="221" y="367" on="0"/>
        <pt x="185" y="330" on="0"/>
        <pt x="167" y="312" on="1"/>
        <pt x="167" y="295" on="0"/>
        <pt x="155" y="277" on="0"/>
        <pt x="148" y="268" on="1"/>
        <pt x="150" y="249" on="0"/>
        <pt x="163" y="222" on="0"/>
        <pt x="170" y="208" on="1"/>
        <pt x="250" y="184" on="0"/>
        <pt x="429" y="173" on="0"/>
        <pt x="517" y="172" on="1"/>
        <pt x="526" y="160" on="0"/>
        <pt x="549" y="139" on="0"/>
        <pt x="568" y="117" on="0"/>
        <pt x="579" y="88" on="0"/>
        <pt x="576" y="68" on="1"/>
        <pt x="559" y="51" on="0"/>
        <pt x="519" y="20" on="0"/>
        <pt x="499" y="5" on="1"/>
        <pt x="490" y="4" on="0"/>
        <pt x="465" y="6" on="0"/>
        <pt x="438" y="6" on="0"/>
        <pt x="411" y="3" on="0"/>
        <pt x="399" y="-2" on="1"/>
        <pt x="353" y="-1" on="0"/>
        <pt x="305" y="7" on="1"/>
        <pt x="266" y="-51" on="1"/>
        <pt x="269" y="-57" on="0"/>
        <pt x="286" y="-59" on="0"/>
        <pt x="288" y="-65" on="1"/>
        <pt x="310" y="-68" on="0"/>
        <pt x="339" y="-85" on="0"/>
        <pt x="363" y="-106" on="0"/>
        <pt x="385" y="-129" on="0"/>
        <pt x="400" y="-138" on="1"/>
        <pt x="400" y="-141" on="0"/>
        <pt x="404" y="-144" on="0"/>
      </contour>
    </TTGlyph>
    <TTGlyph name="D" xMin="15" yMin="-11" xMax="588" yMax="745">
      <contour>
        <pt x="98" y="-11" on="1"/>
        <pt x="69" y="-4" on="0"/>
        <pt x="38" y="29" on="0"/>
        <pt x="23" y="74" on="0"/>
        <pt x="18" y="128" on="0"/>
        <pt x="15" y="157" on="1"/>
        <pt x="19" y="170" on="0"/>
        <pt x="32" y="188" on="0"/>
        <pt x="31" y="204" on="1"/>
        <pt x="42" y="236" on="0"/>
        <pt x="60" y="296" on="0"/>
        <pt x="63" y="328" on="1"/>
        <pt x="69" y="337" on="0"/>
        <pt x="75" y="340" on="1"/>
        <pt x="83" y="397" on="0"/>
        <pt x="71" y="517" on="0"/>
        <pt x="57" y="568" on="1"/>
        <pt x="58" y="579" on="0"/>
        <pt x="62" y="590" on="0"/>
        <pt x="60" y="594" on="1"/>
        <pt x="58" y="603" on="0"/>
        <pt x="74" y="603" on="0"/>
        <pt x="82" y="603" on="1"/>
        <pt x="82" y="621" on="0"/>
        <pt x="69" y="656" on="0"/>
        <pt x="63" y="679" on="1"/>
        <pt x="71" y="697" on="0"/>
        <pt x="77" y="731" on="0"/>
        <pt x="85" y="745" on="1"/>
        <pt x="117" y="735" on="0"/>
        <pt x="179" y="709" on="0"/>
        <pt x="239" y="684" on="0"/>
        <pt x="297" y="661" on="0"/>
        <pt x="325" y="654" on="1"/>
        <pt x="368" y="623" on="0"/>
        <pt x="459" y="562" on="0"/>
        <pt x="534" y="489" on="0"/>
        <pt x="584" y="395" on="0"/>
        <pt x="588" y="331" on="1"/>
        <pt x="586" y="325" on="0"/>
        <pt x="584" y="317" on="0"/>
        <pt x="582" y="309" on="0"/>
        <pt x="582" y="299" on="0"/>
        <pt x="582" y="290" on="1"/>
        <pt x="546" y="227" on="0"/>
        <pt x="436" y="141" on="0"/>
        <pt x="306" y="75" on="0"/>
        <pt x="165" y="20" on="0"/>
      </contour>
      <contour>
        <pt x="196" y="556" on="1"/>
        <pt x="187" y="556" on="0"/>
        <pt x="183" y="552" on="1"/>
        <pt x="195" y="507" on="0"/>
        <pt x="207" y="427" on="0"/>
        <pt x="208" y="347" on="0"/>
        <pt x="198" y="263" on="0"/>
        <pt x="189" y="214" on="1"/>
        <pt x="202" y="215" on="0"/>
        <pt x="222" y="223" on="0"/>
        <pt x="243" y="233" on="0"/>
        <pt x="266" y="241" on="0"/>
        <pt x="281" y="242" on="1"/>
        <pt x="285" y="250" on="0"/>
        <pt x="298" y="259" on="0"/>
        <pt x="303" y="264" on="1"/>
        <pt x="328" y="274" on="0"/>
        <pt x="378" y="296" on="0"/>
        <pt x="420" y="324" on="0"/>
        <pt x="454" y="360" on="0"/>
        <pt x="465" y="385" on="1"/>
        <pt x="457" y="400" on="0"/>
        <pt x="434" y="421" on="0"/>
        <pt x="409" y="442" on="0"/>
        <pt x="386" y="465" on="0"/>
        <pt x="379" y="480" on="1"/>
        <pt x="363" y="482" on="0"/>
        <pt x="339" y="495" on="0"/>
        <pt x="317" y="508" on="0"/>
        <pt x="292" y="520" on="0"/>
        <pt x="275" y="521" on="1"/>
        <pt x="249" y="535" on="0"/>
        <pt x="207" y="546" on="0"/>
      </contour>
    </TTGlyph>
    <TTGlyph name="Delta" xMin="-36" yMin="-16" xMax="547" yMax="616">
      <contour>
        <pt x="519" y="568" on="1"/>
        <pt x="532" y="567" on="0"/>
        <pt x="543" y="557" on="0"/>
        <pt x="547" y="542" on="0"/>
        <pt x="545" y="525" on="0"/>
        <pt x="545" y="517" on="1"/>
        <pt x="532" y="507" on="0"/>
        <pt x="491" y="494" on="0"/>
        <pt x="443" y="487" on="0"/>
        <pt x="391" y="484" on="0"/>
        <pt x="366" y="483" on="1"/>
        <pt x="362" y="456" on="0"/>
        <pt x="341" y="381" on="0"/>
        <pt x="319" y="310" on="0"/>
        <pt x="303" y="254" on="0"/>
        <pt x="304" y="246" on="1"/>
        <pt x="295" y="227" on="0"/>
        <pt x="284" y="200" on="0"/>
        <pt x="275" y="177" on="0"/>
        <pt x="266" y="154" on="0"/>
        <pt x="259" y="140" on="1"/>
        <pt x="316" y="140" on="1"/>
        <pt x="317" y="131" on="0"/>
        <pt x="329" y="124" on="0"/>
        <pt x="343" y="119" on="0"/>
        <pt x="353" y="112" on="0"/>
        <pt x="353" y="103" on="1"/>
        <pt x="369" y="99" on="0"/>
        <pt x="378" y="83" on="0"/>
        <pt x="374" y="63" on="0"/>
        <pt x="362" y="43" on="0"/>
        <pt x="356" y="36" on="1"/>
        <pt x="348" y="38" on="0"/>
        <pt x="334" y="27" on="0"/>
        <pt x="329" y="20" on="1"/>
        <pt x="305" y="23" on="0"/>
        <pt x="258" y="18" on="0"/>
        <pt x="238" y="16" on="1"/>
        <pt x="234" y="16" on="0"/>
        <pt x="235" y="8" on="0"/>
        <pt x="232" y="7" on="1"/>
        <pt x="206" y="16" on="0"/>
        <pt x="153" y="11" on="0"/>
        <pt x="97" y="-1" on="0"/>
        <pt x="38" y="-15" on="0"/>
        <pt x="8" y="-16" on="1"/>
        <pt x="-14" y="0" on="0"/>
        <pt x="-30" y="57" on="0"/>
        <pt x="-36" y="84" on="1"/>
        <pt x="-36" y="95" on="0"/>
        <pt x="-25" y="107" on="0"/>
        <pt x="-20" y="112" on="1"/>
        <pt x="0" y="113" on="0"/>
        <pt x="32" y="118" on="0"/>
        <pt x="62" y="122" on="0"/>
        <pt x="92" y="126" on="0"/>
        <pt x="110" y="126" on="1"/>
        <pt x="122" y="152" on="0"/>
        <pt x="143" y="199" on="0"/>
        <pt x="153" y="222" on="1"/>
        <pt x="159" y="243" on="0"/>
        <pt x="174" y="278" on="0"/>
        <pt x="189" y="311" on="0"/>
        <pt x="201" y="344" on="0"/>
        <pt x="203" y="362" on="1"/>
        <pt x="213" y="391" on="0"/>
        <pt x="228" y="440" on="0"/>
        <pt x="233" y="474" on="1"/>
        <pt x="201" y="469" on="0"/>
        <pt x="163" y="461" on="0"/>
        <pt x="155" y="456" on="1"/>
        <pt x="138" y="457" on="0"/>
        <pt x="119" y="469" on="0"/>
        <pt x="107" y="486" on="0"/>
        <pt x="98" y="507" on="0"/>
        <pt x="92" y="519" on="1"/>
        <pt x="96" y="527" on="0"/>
        <pt x="92" y="555" on="0"/>
        <pt x="84" y="562" on="1"/>
        <pt x="91" y="564" on="0"/>
        <pt x="98" y="583" on="0"/>
        <pt x="95" y="588" on="1"/>
        <pt x="109" y="592" on="0"/>
        <pt x="141" y="595" on="0"/>
        <pt x="172" y="597" on="0"/>
        <pt x="200" y="602" on="0"/>
        <pt x="211" y="608" on="1"/>
        <pt x="254" y="610" on="0"/>
        <pt x="348" y="614" on="0"/>
        <pt x="388" y="616" on="1"/>
        <pt x="403" y="611" on="0"/>
        <pt x="442" y="610" on="0"/>
        <pt x="481" y="605" on="0"/>
        <pt x="513" y="589" on="0"/>
      </contour>
    </TTGlyph>
    <TTGlyph name="E" xMin="9" yMin="-9" xMax="668" yMax="740">
      <contour>
        <pt x="56" y="34" on="1"/>
        <pt x="48" y="42" on="0"/>
        <pt x="41" y="64" on="0"/>
        <pt x="28" y="71" on="1"/>
        <pt x="26" y="86" on="0"/>
        <pt x="19" y="125" on="0"/>
        <pt x="12" y="166" on="0"/>
        <pt x="9" y="207" on="0"/>
        <pt x="12" y="224" on="1"/>
        <pt x="14" y="233" on="0"/>
        <pt x="23" y="249" on="0"/>
        <pt x="32" y="264" on="0"/>
        <pt x="37" y="280" on="0"/>
        <pt x="35" y="288" on="1"/>
        <pt x="41" y="289" on="0"/>
        <pt x="44" y="300" on="0"/>
        <pt x="52" y="298" on="1"/>
        <pt x="59" y="320" on="0"/>
        <pt x="75" y="358" on="0"/>
        <pt x="93" y="394" on="0"/>
        <pt x="112" y="431" on="0"/>
        <pt x="120" y="454" on="1"/>
        <pt x="103" y="470" on="0"/>
        <pt x="88" y="507" on="0"/>
        <pt x="80" y="545" on="0"/>
        <pt x="76" y="584" on="0"/>
        <pt x="70" y="604" on="1"/>
        <pt x="82" y="622" on="0"/>
        <pt x="116" y="645" on="0"/>
        <pt x="157" y="660" on="0"/>
        <pt x="205" y="669" on="0"/>
        <pt x="232" y="675" on="1"/>
        <pt x="280" y="690" on="0"/>
        <pt x="356" y="707" on="0"/>
        <pt x="428" y="718" on="0"/>
        <pt x="506" y="727" on="0"/>
        <pt x="557" y="736" on="1"/>
        <pt x="558" y="733" on="0"/>
        <pt x="563" y="733" on="0"/>
        <pt x="567" y="733" on="1"/>
        <pt x="570" y="726" on="0"/>
        <pt x="578" y="726" on="1"/>
        <pt x="578" y="729" on="0"/>
        <pt x="577" y="734" on="0"/>
        <pt x="577" y="736" on="1"/>
        <pt x="579" y="736" on="0"/>
        <pt x="586" y="734" on="0"/>
        <pt x="591" y="732" on="0"/>
        <pt x="595" y="735" on="0"/>
        <pt x="594" y="740" on="1"/>
        <pt x="606" y="719" on="0"/>
        <pt x="644" y="692" on="0"/>
        <pt x="667" y="682" on="1"/>
        <pt x="668" y="673" on="0"/>
        <pt x="667" y="665" on="0"/>
        <pt x="665" y="658" on="0"/>
        <pt x="665" y="649" on="0"/>
        <pt x="667" y="641" on="1"/>
        <pt x="651" y="614" on="0"/>
        <pt x="610" y="584" on="0"/>
        <pt x="564" y="568" on="0"/>
        <pt x="513" y="560" on="0"/>
        <pt x="460" y="551" on="0"/>
        <pt x="406" y="535" on="0"/>
        <pt x="380" y="519" on="1"/>
        <pt x="372" y="522" on="0"/>
        <pt x="359" y="521" on="0"/>
        <pt x="345" y="517" on="0"/>
        <pt x="328" y="513" on="0"/>
        <pt x="316" y="515" on="1"/>
        <pt x="308" y="508" on="0"/>
        <pt x="287" y="502" on="0"/>
        <pt x="276" y="499" on="1"/>
        <pt x="281" y="488" on="0"/>
        <pt x="280" y="466" on="0"/>
        <pt x="283" y="458" on="1"/>
        <pt x="325" y="454" on="0"/>
        <pt x="427" y="463" on="0"/>
        <pt x="476" y="465" on="1"/>
        <pt x="477" y="460" on="0"/>
        <pt x="473" y="456" on="0"/>
        <pt x="473" y="451" on="1"/>
        <pt x="482" y="445" on="0"/>
        <pt x="498" y="427" on="0"/>
        <pt x="515" y="410" on="0"/>
        <pt x="533" y="399" on="0"/>
        <pt x="545" y="400" on="1"/>
        <pt x="550" y="390" on="0"/>
        <pt x="554" y="368" on="0"/>
        <pt x="549" y="356" on="1"/>
        <pt x="529" y="343" on="0"/>
        <pt x="491" y="316" on="0"/>
        <pt x="450" y="294" on="0"/>
        <pt x="402" y="280" on="0"/>
        <pt x="374" y="281" on="1"/>
        <pt x="369" y="281" on="0"/>
        <pt x="362" y="281" on="0"/>
        <pt x="357" y="285" on="1"/>
        <pt x="347" y="280" on="0"/>
        <pt x="314" y="283" on="0"/>
        <pt x="303" y="278" on="1"/>
        <pt x="289" y="283" on="0"/>
        <pt x="252" y="283" on="0"/>
        <pt x="238" y="288" on="1"/>
        <pt x="220" y="262" on="0"/>
        <pt x="188" y="205" on="0"/>
        <pt x="176" y="173" on="1"/>
        <pt x="217" y="167" on="0"/>
        <pt x="271" y="169" on="0"/>
        <pt x="319" y="175" on="0"/>
        <pt x="370" y="181" on="0"/>
        <pt x="407" y="180" on="1"/>
        <pt x="432" y="192" on="0"/>
        <pt x="497" y="201" on="0"/>
        <pt x="525" y="210" on="1"/>
        <pt x="535" y="207" on="0"/>
        <pt x="549" y="190" on="0"/>
        <pt x="562" y="173" on="0"/>
        <pt x="576" y="161" on="0"/>
        <pt x="587" y="163" on="1"/>
        <pt x="592" y="158" on="0"/>
        <pt x="595" y="144" on="0"/>
        <pt x="598" y="132" on="0"/>
        <pt x="604" y="125" on="0"/>
        <pt x="612" y="126" on="1"/>
        <pt x="593" y="87" on="0"/>
        <pt x="546" y="45" on="0"/>
        <pt x="487" y="22" on="0"/>
        <pt x="414" y="11" on="0"/>
        <pt x="369" y="3" on="1"/>
        <pt x="358" y="1" on="0"/>
        <pt x="343" y="6" on="0"/>
        <pt x="335" y="6" on="1"/>
        <pt x="307" y="1" on="0"/>
        <pt x="230" y="-9" on="0"/>
        <pt x="152" y="-7" on="0"/>
        <pt x="80" y="11" on="0"/>
      </contour>
    </TTGlyph>
    <TTGlyph name="Eacute" xMin="9" yMin="-9" xMax="668" yMax="1095">
      <component glyphName="E" x="0" y="0" flags="0x204"/>
      <component glyphName="acute" x="0" y="328" flags="0x4"/>
    </TTGlyph>
    <TTGlyph name="Ecircumflex" xMin="9" yMin="-9" xMax="668" yMax="1060">
      <component glyphName="E" x="0" y="0" flags="0x204"/>
      <component glyphName="circumflex" x="-30" y="266" flags="0x4"/>
    </TTGlyph>
    <TTGlyph name="Edieresis" xMin="9" yMin="-9" xMax="668" yMax="970">
      <component glyphName="E" x="0" y="0" flags="0x204"/>
      <component glyphName="dieresis" x="-19" y="215" flags="0x4"/>
    </TTGlyph>
    <TTGlyph name="Egrave" xMin="9" yMin="-9" xMax="668" yMax="1105">
      <component glyphName="E" x="0" y="0" flags="0x204"/>
      <component glyphName="grave" x="-50" y="338" flags="0x4"/>
    </TTGlyph>
    <TTGlyph name="Eth" xMin="-15" yMin="-11" xMax="657" yMax="745">
      <contour>
        <pt x="-9" y="345" on="1"/>
        <pt x="-8" y="349" on="0"/>
        <pt x="-6" y="364" on="0"/>
        <pt x="-8" y="380" on="0"/>
        <pt x="-12" y="395" on="0"/>
        <pt x="-15" y="399" on="1"/>
        <pt x="-10" y="401" on="0"/>
        <pt x="-4" y="425" on="0"/>
        <pt x="-6" y="431" on="1"/>
        <pt x="6" y="436" on="0"/>
        <pt x="34" y="440" on="0"/>
        <pt x="60" y="443" on="0"/>
        <pt x="84" y="449" on="0"/>
        <pt x="93" y="457" on="1"/>
        <pt x="106" y="458" on="0"/>
        <pt x="131" y="460" on="0"/>
        <pt x="145" y="461" on="1"/>
        <pt x="141" y="516" on="0"/>
        <pt x="125" y="568" on="1"/>
        <pt x="127" y="579" on="0"/>
        <pt x="131" y="590" on="0"/>
        <pt x="129" y="594" on="1"/>
        <pt x="127" y="603" on="0"/>
        <pt x="143" y="603" on="0"/>
        <pt x="151" y="603" on="1"/>
        <pt x="151" y="621" on="0"/>
        <pt x="138" y="656" on="0"/>
        <pt x="132" y="679" on="1"/>
        <pt x="140" y="697" on="0"/>
        <pt x="146" y="731" on="0"/>
        <pt x="154" y="745" on="1"/>
        <pt x="218" y="725" on="0"/>
        <pt x="337" y="668" on="0"/>
        <pt x="394" y="654" on="1"/>
        <pt x="437" y="623" on="0"/>
        <pt x="528" y="562" on="0"/>
        <pt x="603" y="489" on="0"/>
        <pt x="653" y="395" on="0"/>
        <pt x="657" y="331" on="1"/>
        <pt x="655" y="325" on="0"/>
        <pt x="653" y="317" on="0"/>
        <pt x="651" y="309" on="0"/>
        <pt x="650" y="299" on="0"/>
        <pt x="651" y="290" on="1"/>
        <pt x="615" y="227" on="0"/>
        <pt x="505" y="141" on="0"/>
        <pt x="375" y="75" on="0"/>
        <pt x="234" y="20" on="0"/>
        <pt x="167" y="-11" on="1"/>
        <pt x="138" y="-4" on="0"/>
        <pt x="107" y="29" on="0"/>
        <pt x="92" y="74" on="0"/>
        <pt x="87" y="128" on="0"/>
        <pt x="84" y="157" on="1"/>
        <pt x="88" y="170" on="0"/>
        <pt x="101" y="188" on="0"/>
        <pt x="100" y="204" on="1"/>
        <pt x="108" y="227" on="0"/>
        <pt x="122" y="273" on="0"/>
        <pt x="127" y="296" on="1"/>
        <pt x="92" y="288" on="0"/>
        <pt x="51" y="274" on="0"/>
        <pt x="43" y="268" on="1"/>
        <pt x="29" y="269" on="0"/>
        <pt x="13" y="283" on="0"/>
        <pt x="3" y="304" on="0"/>
        <pt x="-4" y="331" on="0"/>
      </contour>
      <contour>
        <pt x="265" y="556" on="1"/>
        <pt x="256" y="556" on="0"/>
        <pt x="252" y="552" on="1"/>
        <pt x="264" y="505" on="0"/>
        <pt x="270" y="464" on="1"/>
        <pt x="282" y="463" on="0"/>
        <pt x="309" y="461" on="0"/>
        <pt x="332" y="452" on="0"/>
        <pt x="350" y="432" on="0"/>
        <pt x="354" y="412" on="1"/>
        <pt x="365" y="410" on="0"/>
        <pt x="375" y="398" on="0"/>
        <pt x="378" y="381" on="0"/>
        <pt x="377" y="359" on="0"/>
        <pt x="377" y="349" on="1"/>
        <pt x="360" y="330" on="0"/>
        <pt x="305" y="312" on="0"/>
        <pt x="273" y="308" on="1"/>
        <pt x="269" y="266" on="0"/>
        <pt x="258" y="214" on="1"/>
        <pt x="271" y="215" on="0"/>
        <pt x="291" y="223" on="0"/>
        <pt x="312" y="233" on="0"/>
        <pt x="335" y="241" on="0"/>
        <pt x="350" y="242" on="1"/>
        <pt x="354" y="250" on="0"/>
        <pt x="367" y="259" on="0"/>
        <pt x="372" y="264" on="1"/>
        <pt x="397" y="274" on="0"/>
        <pt x="446" y="296" on="0"/>
        <pt x="489" y="324" on="0"/>
        <pt x="523" y="360" on="0"/>
        <pt x="534" y="385" on="1"/>
        <pt x="526" y="400" on="0"/>
        <pt x="503" y="421" on="0"/>
        <pt x="478" y="442" on="0"/>
        <pt x="455" y="465" on="0"/>
        <pt x="448" y="480" on="1"/>
        <pt x="432" y="482" on="0"/>
        <pt x="408" y="495" on="0"/>
        <pt x="386" y="508" on="0"/>
        <pt x="361" y="520" on="0"/>
        <pt x="344" y="521" on="1"/>
        <pt x="318" y="535" on="0"/>
        <pt x="276" y="546" on="0"/>
      </contour>
    </TTGlyph>
    <TTGlyph name="Euro" xMin="-20" yMin="10" xMax="552" yMax="617">
      <contour>
        <pt x="482" y="443" on="1"/>
        <pt x="439" y="430" on="0"/>
        <pt x="359" y="400" on="0"/>
        <pt x="333" y="370" on="1"/>
        <pt x="313" y="364" on="0"/>
        <pt x="281" y="345" on="0"/>
        <pt x="267" y="333" on="1"/>
        <pt x="278" y="333" on="0"/>
        <pt x="299" y="334" on="0"/>
        <pt x="310" y="335" on="1"/>
        <pt x="326" y="330" on="0"/>
        <pt x="369" y="329" on="0"/>
        <pt x="410" y="324" on="0"/>
        <pt x="444" y="307" on="0"/>
        <pt x="451" y="287" on="1"/>
        <pt x="465" y="286" on="0"/>
        <pt x="478" y="276" on="0"/>
        <pt x="482" y="262" on="0"/>
        <pt x="481" y="245" on="0"/>
        <pt x="481" y="237" on="1"/>
        <pt x="460" y="223" on="0"/>
        <pt x="387" y="209" on="0"/>
        <pt x="306" y="204" on="0"/>
        <pt x="225" y="203" on="0"/>
        <pt x="196" y="202" on="1"/>
        <pt x="198" y="197" on="0"/>
        <pt x="203" y="188" on="0"/>
        <pt x="205" y="183" on="1"/>
        <pt x="268" y="163" on="0"/>
        <pt x="409" y="154" on="0"/>
        <pt x="479" y="152" on="1"/>
        <pt x="486" y="142" on="0"/>
        <pt x="504" y="126" on="0"/>
        <pt x="519" y="108" on="0"/>
        <pt x="528" y="84" on="0"/>
        <pt x="525" y="68" on="1"/>
        <pt x="511" y="54" on="0"/>
        <pt x="480" y="29" on="0"/>
        <pt x="464" y="16" on="1"/>
        <pt x="457" y="15" on="0"/>
        <pt x="437" y="16" on="0"/>
        <pt x="416" y="16" on="0"/>
        <pt x="395" y="14" on="0"/>
        <pt x="386" y="10" on="1"/>
        <pt x="335" y="12" on="0"/>
        <pt x="232" y="34" on="0"/>
        <pt x="188" y="50" on="1"/>
        <pt x="179" y="60" on="0"/>
        <pt x="160" y="79" on="0"/>
        <pt x="144" y="83" on="1"/>
        <pt x="121" y="102" on="0"/>
        <pt x="92" y="156" on="0"/>
        <pt x="84" y="187" on="1"/>
        <pt x="74" y="185" on="0"/>
        <pt x="61" y="181" on="0"/>
        <pt x="57" y="179" on="1"/>
        <pt x="39" y="180" on="0"/>
        <pt x="18" y="192" on="0"/>
        <pt x="4" y="209" on="0"/>
        <pt x="-5" y="230" on="0"/>
        <pt x="-12" y="241" on="1"/>
        <pt x="-8" y="249" on="0"/>
        <pt x="-12" y="276" on="0"/>
        <pt x="-20" y="283" on="1"/>
        <pt x="-13" y="285" on="0"/>
        <pt x="-6" y="304" on="0"/>
        <pt x="-9" y="309" on="1"/>
        <pt x="11" y="314" on="0"/>
        <pt x="54" y="315" on="0"/>
        <pt x="74" y="317" on="1"/>
        <pt x="89" y="358" on="0"/>
        <pt x="139" y="419" on="0"/>
        <pt x="165" y="449" on="1"/>
        <pt x="181" y="465" on="0"/>
        <pt x="212" y="482" on="0"/>
        <pt x="223" y="498" on="1"/>
        <pt x="242" y="502" on="0"/>
        <pt x="273" y="521" on="0"/>
        <pt x="301" y="541" on="0"/>
        <pt x="331" y="559" on="0"/>
        <pt x="351" y="564" on="1"/>
        <pt x="358" y="573" on="0"/>
        <pt x="379" y="584" on="0"/>
        <pt x="400" y="594" on="0"/>
        <pt x="420" y="606" on="0"/>
        <pt x="426" y="616" on="1"/>
        <pt x="431" y="608" on="0"/>
        <pt x="448" y="613" on="0"/>
        <pt x="456" y="616" on="1"/>
        <pt x="460" y="617" on="0"/>
        <pt x="467" y="611" on="0"/>
        <pt x="472" y="605" on="0"/>
        <pt x="477" y="604" on="0"/>
        <pt x="479" y="610" on="1"/>
        <pt x="484" y="609" on="0"/>
        <pt x="480" y="599" on="0"/>
        <pt x="479" y="598" on="1"/>
        <pt x="487" y="599" on="0"/>
        <pt x="497" y="590" on="0"/>
        <pt x="508" y="588" on="1"/>
        <pt x="512" y="584" on="0"/>
        <pt x="508" y="579" on="0"/>
        <pt x="508" y="573" on="1"/>
        <pt x="536" y="564" on="0"/>
        <pt x="552" y="525" on="0"/>
        <pt x="539" y="484" on="0"/>
        <pt x="505" y="449" on="0"/>
        <pt x="485" y="443" on="1"/>
      </contour>
    </TTGlyph>
    <TTGlyph name="F" xMin="-20" yMin="-10" xMax="732" yMax="751">
      <contour>
        <pt x="44" y="203" on="1"/>
        <pt x="14" y="220" on="0"/>
        <pt x="-18" y="282" on="0"/>
        <pt x="-20" y="310" on="1"/>
        <pt x="-17" y="334" on="0"/>
        <pt x="2" y="361" on="0"/>
        <pt x="28" y="378" on="0"/>
        <pt x="56" y="387" on="0"/>
        <pt x="69" y="390" on="1"/>
        <pt x="84" y="385" on="1"/>
        <pt x="89" y="380" on="0"/>
        <pt x="100" y="372" on="0"/>
        <pt x="105" y="368" on="1"/>
        <pt x="115" y="372" on="0"/>
        <pt x="120" y="388" on="0"/>
        <pt x="123" y="396" on="1"/>
        <pt x="126" y="407" on="0"/>
        <pt x="134" y="429" on="0"/>
        <pt x="140" y="440" on="1"/>
        <pt x="139" y="449" on="0"/>
        <pt x="143" y="463" on="0"/>
        <pt x="145" y="468" on="1"/>
        <pt x="139" y="473" on="0"/>
        <pt x="134" y="474" on="0"/>
        <pt x="128" y="476" on="1"/>
        <pt x="125" y="476" on="0"/>
        <pt x="119" y="477" on="0"/>
        <pt x="115" y="478" on="1"/>
        <pt x="100" y="489" on="0"/>
        <pt x="91" y="504" on="0"/>
        <pt x="86" y="512" on="1"/>
        <pt x="81" y="520" on="0"/>
        <pt x="73" y="532" on="0"/>
        <pt x="68" y="537" on="1"/>
        <pt x="56" y="545" on="1"/>
        <pt x="62" y="557" on="1"/>
        <pt x="64" y="559" on="0"/>
        <pt x="64" y="566" on="0"/>
        <pt x="60" y="573" on="1"/>
        <pt x="57" y="586" on="0"/>
        <pt x="59" y="592" on="1"/>
        <pt x="61" y="604" on="1"/>
        <pt x="71" y="617" on="0"/>
        <pt x="72" y="619" on="1"/>
        <pt x="82" y="629" on="1"/>
        <pt x="105" y="635" on="0"/>
        <pt x="153" y="650" on="0"/>
        <pt x="176" y="658" on="1"/>
        <pt x="199" y="666" on="0"/>
        <pt x="247" y="682" on="0"/>
        <pt x="271" y="688" on="1"/>
        <pt x="279" y="695" on="0"/>
        <pt x="298" y="698" on="0"/>
        <pt x="306" y="699" on="1"/>
        <pt x="313" y="699" on="0"/>
        <pt x="325" y="701" on="0"/>
        <pt x="328" y="705" on="1"/>
        <pt x="345" y="711" on="0"/>
        <pt x="361" y="715" on="1"/>
        <pt x="391" y="723" on="0"/>
        <pt x="489" y="745" on="0"/>
        <pt x="550" y="750" on="1"/>
        <pt x="571" y="751" on="1"/>
        <pt x="577" y="750" on="0"/>
        <pt x="589" y="751" on="0"/>
        <pt x="595" y="751" on="1"/>
        <pt x="647" y="751" on="0"/>
        <pt x="664" y="719" on="1"/>
        <pt x="674" y="714" on="0"/>
        <pt x="690" y="699" on="0"/>
        <pt x="697" y="692" on="1"/>
        <pt x="702" y="687" on="0"/>
        <pt x="710" y="680" on="0"/>
        <pt x="713" y="678" on="1"/>
        <pt x="721" y="670" on="1"/>
        <pt x="732" y="646" on="0"/>
        <pt x="725" y="623" on="1"/>
        <pt x="719" y="611" on="0"/>
        <pt x="705" y="607" on="0"/>
        <pt x="698" y="605" on="1"/>
        <pt x="685" y="598" on="1"/>
        <pt x="672" y="599" on="0"/>
        <pt x="659" y="599" on="0"/>
        <pt x="651" y="599" on="1"/>
        <pt x="621" y="599" on="0"/>
        <pt x="542" y="592" on="0"/>
        <pt x="460" y="579" on="0"/>
        <pt x="382" y="560" on="0"/>
        <pt x="353" y="549" on="1"/>
        <pt x="345" y="543" on="0"/>
        <pt x="332" y="538" on="1"/>
        <pt x="329" y="537" on="0"/>
        <pt x="323" y="533" on="1"/>
        <pt x="324" y="525" on="0"/>
        <pt x="322" y="510" on="0"/>
        <pt x="320" y="503" on="1"/>
        <pt x="319" y="498" on="0"/>
        <pt x="318" y="487" on="0"/>
        <pt x="317" y="481" on="1"/>
        <pt x="296" y="456" on="0"/>
        <pt x="297" y="422" on="1"/>
        <pt x="292" y="412" on="1"/>
        <pt x="288" y="408" on="0"/>
        <pt x="283" y="393" on="0"/>
        <pt x="285" y="385" on="1"/>
        <pt x="289" y="373" on="1"/>
        <pt x="309" y="375" on="0"/>
        <pt x="348" y="380" on="0"/>
        <pt x="370" y="383" on="1"/>
        <pt x="398" y="388" on="0"/>
        <pt x="455" y="395" on="0"/>
        <pt x="486" y="395" on="1"/>
        <pt x="525" y="395" on="1"/>
        <pt x="516" y="386" on="1"/>
        <pt x="527" y="385" on="1"/>
        <pt x="521" y="369" on="1"/>
        <pt x="528" y="366" on="0"/>
        <pt x="535" y="363" on="0"/>
        <pt x="538" y="361" on="1"/>
        <pt x="545" y="351" on="1"/>
        <pt x="550" y="348" on="0"/>
        <pt x="558" y="335" on="0"/>
        <pt x="559" y="324" on="1"/>
        <pt x="556" y="314" on="1"/>
        <pt x="509" y="254" on="1"/>
        <pt x="503" y="246" on="1"/>
        <pt x="493" y="249" on="1"/>
        <pt x="474" y="250" on="0"/>
        <pt x="457" y="245" on="1"/>
        <pt x="449" y="243" on="0"/>
        <pt x="431" y="238" on="0"/>
        <pt x="422" y="238" on="1"/>
        <pt x="398" y="234" on="0"/>
        <pt x="366" y="229" on="0"/>
        <pt x="350" y="227" on="1"/>
        <pt x="328" y="223" on="0"/>
        <pt x="287" y="216" on="0"/>
        <pt x="269" y="209" on="1"/>
        <pt x="258" y="208" on="0"/>
        <pt x="254" y="209" on="0"/>
        <pt x="252" y="209" on="1"/>
        <pt x="242" y="209" on="0"/>
        <pt x="222" y="203" on="0"/>
        <pt x="213" y="200" on="1"/>
        <pt x="207" y="195" on="0"/>
        <pt x="203" y="184" on="0"/>
        <pt x="201" y="178" on="1"/>
        <pt x="199" y="171" on="0"/>
        <pt x="192" y="158" on="0"/>
        <pt x="187" y="151" on="1"/>
        <pt x="188" y="133" on="1"/>
        <pt x="179" y="131" on="0"/>
        <pt x="179" y="130" on="0"/>
        <pt x="178" y="130" on="1"/>
        <pt x="178" y="122" on="0"/>
        <pt x="173" y="108" on="0"/>
        <pt x="171" y="102" on="1"/>
        <pt x="169" y="98" on="0"/>
        <pt x="167" y="92" on="0"/>
        <pt x="167" y="89" on="1"/>
        <pt x="177" y="71" on="0"/>
        <pt x="172" y="48" on="1"/>
        <pt x="168" y="29" on="0"/>
        <pt x="146" y="0" on="0"/>
        <pt x="131" y="-8" on="1"/>
        <pt x="115" y="-10" on="0"/>
        <pt x="100" y="-4" on="0"/>
        <pt x="92" y="-1" on="1"/>
        <pt x="87" y="1" on="0"/>
        <pt x="77" y="4" on="0"/>
        <pt x="72" y="5" on="1"/>
        <pt x="60" y="15" on="1"/>
        <pt x="57" y="21" on="0"/>
        <pt x="49" y="32" on="0"/>
        <pt x="45" y="38" on="1"/>
        <pt x="40" y="45" on="0"/>
        <pt x="30" y="59" on="0"/>
        <pt x="26" y="68" on="1"/>
        <pt x="19" y="103" on="0"/>
        <pt x="28" y="150" on="0"/>
        <pt x="36" y="173" on="1"/>
        <pt x="38" y="181" on="0"/>
        <pt x="42" y="195" on="0"/>
      </contour>
    </TTGlyph>
    <TTGlyph name="G" xMin="0" yMin="-3" xMax="851" yMax="745">
      <contour>
        <pt x="0" y="237" on="1"/>
        <pt x="0" y="248" on="0"/>
        <pt x="6" y="266" on="0"/>
        <pt x="4" y="280" on="1"/>
        <pt x="35" y="346" on="0"/>
        <pt x="114" y="459" on="0"/>
        <pt x="169" y="502" on="1"/>
        <pt x="178" y="509" on="0"/>
        <pt x="189" y="524" on="0"/>
        <pt x="200" y="538" on="0"/>
        <pt x="214" y="549" on="0"/>
        <pt x="225" y="551" on="1"/>
        <pt x="250" y="580" on="0"/>
        <pt x="320" y="628" on="0"/>
        <pt x="396" y="672" on="0"/>
        <pt x="473" y="718" on="0"/>
        <pt x="504" y="745" on="1"/>
        <pt x="515" y="738" on="0"/>
        <pt x="528" y="743" on="0"/>
        <pt x="535" y="741" on="1"/>
        <pt x="544" y="722" on="0"/>
        <pt x="573" y="707" on="0"/>
        <pt x="604" y="692" on="0"/>
        <pt x="631" y="671" on="0"/>
        <pt x="638" y="653" on="1"/>
        <pt x="631" y="653" on="0"/>
        <pt x="632" y="643" on="0"/>
        <pt x="636" y="631" on="0"/>
        <pt x="636" y="621" on="0"/>
        <pt x="627" y="621" on="1"/>
        <pt x="627" y="614" on="0"/>
        <pt x="641" y="614" on="0"/>
        <pt x="641" y="607" on="1"/>
        <pt x="641" y="601" on="0"/>
        <pt x="636" y="594" on="0"/>
        <pt x="638" y="586" on="1"/>
        <pt x="614" y="570" on="0"/>
        <pt x="555" y="541" on="0"/>
        <pt x="490" y="509" on="0"/>
        <pt x="423" y="472" on="0"/>
        <pt x="390" y="448" on="1"/>
        <pt x="357" y="424" on="0"/>
        <pt x="290" y="366" on="0"/>
        <pt x="228" y="301" on="0"/>
        <pt x="174" y="232" on="0"/>
        <pt x="155" y="199" on="1"/>
        <pt x="157" y="194" on="0"/>
        <pt x="164" y="186" on="0"/>
        <pt x="166" y="181" on="1"/>
        <pt x="204" y="179" on="0"/>
        <pt x="270" y="184" on="0"/>
        <pt x="303" y="177" on="1"/>
        <pt x="307" y="180" on="0"/>
        <pt x="309" y="190" on="0"/>
        <pt x="314" y="192" on="1"/>
        <pt x="382" y="199" on="0"/>
        <pt x="500" y="230" on="0"/>
        <pt x="561" y="246" on="1"/>
        <pt x="543" y="253" on="0"/>
        <pt x="529" y="257" on="1"/>
        <pt x="523" y="263" on="0"/>
        <pt x="536" y="272" on="0"/>
        <pt x="540" y="277" on="1"/>
        <pt x="524" y="286" on="0"/>
        <pt x="503" y="316" on="0"/>
        <pt x="501" y="340" on="1"/>
        <pt x="508" y="346" on="0"/>
        <pt x="508" y="362" on="0"/>
        <pt x="501" y="367" on="1"/>
        <pt x="496" y="369" on="0"/>
        <pt x="494" y="365" on="0"/>
        <pt x="493" y="361" on="0"/>
        <pt x="490" y="357" on="0"/>
        <pt x="486" y="359" on="1"/>
        <pt x="487" y="370" on="0"/>
        <pt x="495" y="384" on="0"/>
        <pt x="497" y="394" on="1"/>
        <pt x="580" y="449" on="1"/>
        <pt x="593" y="439" on="0"/>
        <pt x="631" y="417" on="0"/>
        <pt x="673" y="395" on="0"/>
        <pt x="717" y="372" on="0"/>
        <pt x="736" y="361" on="1"/>
        <pt x="754" y="353" on="0"/>
        <pt x="780" y="330" on="0"/>
        <pt x="804" y="305" on="0"/>
        <pt x="828" y="281" on="0"/>
        <pt x="845" y="273" on="1"/>
        <pt x="843" y="257" on="0"/>
        <pt x="851" y="237" on="0"/>
        <pt x="849" y="223" on="1"/>
        <pt x="830" y="189" on="0"/>
        <pt x="776" y="142" on="0"/>
        <pt x="709" y="108" on="0"/>
        <pt x="633" y="85" on="0"/>
        <pt x="553" y="64" on="0"/>
        <pt x="472" y="41" on="0"/>
        <pt x="433" y="26" on="1"/>
        <pt x="416" y="26" on="0"/>
        <pt x="392" y="24" on="0"/>
        <pt x="370" y="20" on="0"/>
        <pt x="348" y="16" on="0"/>
        <pt x="335" y="15" on="1"/>
        <pt x="330" y="16" on="0"/>
        <pt x="327" y="10" on="0"/>
        <pt x="324" y="8" on="1"/>
        <pt x="304" y="5" on="0"/>
        <pt x="272" y="5" on="0"/>
        <pt x="261" y="5" on="1"/>
        <pt x="247" y="5" on="0"/>
        <pt x="217" y="-3" on="0"/>
        <pt x="204" y="-2" on="1"/>
        <pt x="114" y="2" on="0"/>
        <pt x="12" y="122" on="0"/>
        <pt x="7" y="227" on="1"/>
        <pt x="8" y="232" on="0"/>
        <pt x="2" y="235" on="0"/>
      </contour>
    </TTGlyph>
    <TTGlyph name="H" xMin="-10" yMin="-14" xMax="692" yMax="758">
      <contour>
        <pt x="15" y="34" on="1"/>
        <pt x="12" y="33" on="0"/>
        <pt x="10" y="39" on="0"/>
        <pt x="11" y="45" on="0"/>
        <pt x="16" y="49" on="0"/>
        <pt x="20" y="47" on="1"/>
        <pt x="7" y="63" on="0"/>
        <pt x="0" y="89" on="0"/>
        <pt x="-10" y="108" on="1"/>
        <pt x="-7" y="111" on="0"/>
        <pt x="-5" y="122" on="0"/>
        <pt x="-2" y="132" on="0"/>
        <pt x="3" y="137" on="0"/>
        <pt x="7" y="133" on="1"/>
        <pt x="5" y="144" on="0"/>
        <pt x="9" y="158" on="0"/>
        <pt x="14" y="170" on="0"/>
        <pt x="16" y="182" on="0"/>
        <pt x="12" y="190" on="1"/>
        <pt x="31" y="216" on="0"/>
        <pt x="43" y="277" on="0"/>
        <pt x="44" y="302" on="1"/>
        <pt x="53" y="311" on="0"/>
        <pt x="66" y="341" on="0"/>
        <pt x="72" y="373" on="0"/>
        <pt x="72" y="404" on="0"/>
        <pt x="68" y="413" on="1"/>
        <pt x="69" y="417" on="0"/>
        <pt x="76" y="418" on="0"/>
        <pt x="81" y="417" on="1"/>
        <pt x="88" y="457" on="0"/>
        <pt x="93" y="555" on="0"/>
        <pt x="108" y="646" on="0"/>
        <pt x="142" y="715" on="0"/>
        <pt x="179" y="725" on="1"/>
        <pt x="186" y="700" on="0"/>
        <pt x="209" y="662" on="0"/>
        <pt x="236" y="626" on="0"/>
        <pt x="264" y="590" on="0"/>
        <pt x="276" y="568" on="1"/>
        <pt x="275" y="545" on="0"/>
        <pt x="268" y="485" on="0"/>
        <pt x="257" y="423" on="0"/>
        <pt x="246" y="365" on="0"/>
        <pt x="241" y="345" on="1"/>
        <pt x="242" y="340" on="0"/>
        <pt x="254" y="337" on="0"/>
        <pt x="250" y="327" on="1"/>
        <pt x="279" y="334" on="0"/>
        <pt x="342" y="347" on="0"/>
        <pt x="403" y="360" on="0"/>
        <pt x="462" y="378" on="0"/>
        <pt x="488" y="391" on="1"/>
        <pt x="494" y="439" on="0"/>
        <pt x="512" y="533" on="0"/>
        <pt x="505" y="581" on="1"/>
        <pt x="511" y="586" on="0"/>
        <pt x="519" y="600" on="0"/>
        <pt x="527" y="602" on="1"/>
        <pt x="521" y="625" on="0"/>
        <pt x="523" y="676" on="0"/>
        <pt x="538" y="720" on="0"/>
        <pt x="568" y="753" on="0"/>
        <pt x="590" y="758" on="1"/>
        <pt x="603" y="739" on="0"/>
        <pt x="623" y="695" on="0"/>
        <pt x="643" y="650" on="0"/>
        <pt x="666" y="610" on="0"/>
        <pt x="684" y="596" on="1"/>
        <pt x="687" y="561" on="0"/>
        <pt x="691" y="488" on="0"/>
        <pt x="692" y="449" on="1"/>
        <pt x="683" y="404" on="0"/>
        <pt x="660" y="319" on="0"/>
        <pt x="655" y="271" on="1"/>
        <pt x="647" y="262" on="0"/>
        <pt x="637" y="237" on="0"/>
        <pt x="628" y="212" on="0"/>
        <pt x="616" y="188" on="0"/>
        <pt x="607" y="180" on="1"/>
        <pt x="611" y="166" on="0"/>
        <pt x="606" y="141" on="0"/>
        <pt x="615" y="124" on="1"/>
        <pt x="617" y="93" on="0"/>
        <pt x="598" y="52" on="0"/>
        <pt x="565" y="23" on="0"/>
        <pt x="522" y="6" on="0"/>
        <pt x="501" y="-1" on="1"/>
        <pt x="491" y="5" on="0"/>
        <pt x="474" y="18" on="0"/>
        <pt x="462" y="21" on="1"/>
        <pt x="467" y="30" on="1"/>
        <pt x="447" y="50" on="0"/>
        <pt x="418" y="95" on="0"/>
        <pt x="419" y="124" on="1"/>
        <pt x="419" y="125" on="0"/>
        <pt x="423" y="150" on="0"/>
        <pt x="428" y="178" on="0"/>
        <pt x="433" y="203" on="0"/>
        <pt x="433" y="204" on="1"/>
        <pt x="405" y="201" on="0"/>
        <pt x="345" y="181" on="0"/>
        <pt x="288" y="156" on="0"/>
        <pt x="239" y="129" on="0"/>
        <pt x="224" y="120" on="1"/>
        <pt x="224" y="117" on="0"/>
        <pt x="214" y="89" on="0"/>
        <pt x="200" y="58" on="0"/>
        <pt x="183" y="34" on="0"/>
        <pt x="174" y="35" on="1"/>
        <pt x="176" y="30" on="0"/>
        <pt x="180" y="25" on="0"/>
        <pt x="178" y="18" on="1"/>
        <pt x="161" y="13" on="0"/>
        <pt x="134" y="-3" on="0"/>
        <pt x="106" y="-14" on="0"/>
        <pt x="73" y="-13" on="0"/>
        <pt x="50" y="-1" on="1"/>
        <pt x="50" y="6" on="0"/>
        <pt x="38" y="17" on="0"/>
        <pt x="25" y="25" on="0"/>
        <pt x="15" y="31" on="0"/>
      </contour>
    </TTGlyph>
    <TTGlyph name="I" xMin="-36" yMin="-12" xMax="662" yMax="745">
      <contour>
        <pt x="17" y="-12" on="1"/>
        <pt x="3" y="-3" on="0"/>
        <pt x="-14" y="25" on="0"/>
        <pt x="-25" y="57" on="0"/>
        <pt x="-32" y="92" on="0"/>
        <pt x="-36" y="108" on="1"/>
        <pt x="-36" y="122" on="0"/>
        <pt x="-24" y="135" on="0"/>
        <pt x="-17" y="141" on="1"/>
        <pt x="7" y="142" on="0"/>
        <pt x="45" y="148" on="0"/>
        <pt x="81" y="154" on="0"/>
        <pt x="117" y="159" on="0"/>
        <pt x="138" y="159" on="1"/>
        <pt x="153" y="190" on="0"/>
        <pt x="179" y="247" on="0"/>
        <pt x="191" y="273" on="1"/>
        <pt x="197" y="298" on="0"/>
        <pt x="216" y="341" on="0"/>
        <pt x="234" y="380" on="0"/>
        <pt x="248" y="419" on="0"/>
        <pt x="250" y="441" on="1"/>
        <pt x="262" y="476" on="0"/>
        <pt x="281" y="535" on="0"/>
        <pt x="286" y="576" on="1"/>
        <pt x="248" y="570" on="0"/>
        <pt x="202" y="559" on="0"/>
        <pt x="192" y="554" on="1"/>
        <pt x="172" y="555" on="0"/>
        <pt x="149" y="569" on="0"/>
        <pt x="135" y="589" on="0"/>
        <pt x="125" y="615" on="0"/>
        <pt x="118" y="629" on="1"/>
        <pt x="122" y="638" on="0"/>
        <pt x="118" y="673" on="0"/>
        <pt x="108" y="681" on="1"/>
        <pt x="116" y="683" on="0"/>
        <pt x="124" y="706" on="0"/>
        <pt x="121" y="712" on="1"/>
        <pt x="138" y="717" on="0"/>
        <pt x="176" y="720" on="0"/>
        <pt x="213" y="723" on="0"/>
        <pt x="247" y="728" on="0"/>
        <pt x="259" y="736" on="1"/>
        <pt x="311" y="738" on="0"/>
        <pt x="424" y="742" on="0"/>
        <pt x="472" y="745" on="1"/>
        <pt x="490" y="739" on="0"/>
        <pt x="537" y="739" on="0"/>
        <pt x="584" y="733" on="0"/>
        <pt x="621" y="713" on="0"/>
        <pt x="628" y="688" on="1"/>
        <pt x="643" y="686" on="0"/>
        <pt x="658" y="674" on="0"/>
        <pt x="662" y="657" on="0"/>
        <pt x="661" y="636" on="0"/>
        <pt x="661" y="626" on="1"/>
        <pt x="645" y="614" on="0"/>
        <pt x="596" y="599" on="0"/>
        <pt x="538" y="590" on="0"/>
        <pt x="475" y="587" on="0"/>
        <pt x="445" y="586" on="1"/>
        <pt x="440" y="553" on="0"/>
        <pt x="415" y="464" on="0"/>
        <pt x="389" y="379" on="0"/>
        <pt x="370" y="312" on="0"/>
        <pt x="371" y="302" on="1"/>
        <pt x="361" y="279" on="0"/>
        <pt x="348" y="247" on="0"/>
        <pt x="337" y="219" on="0"/>
        <pt x="326" y="192" on="0"/>
        <pt x="318" y="175" on="1"/>
        <pt x="386" y="175" on="1"/>
        <pt x="388" y="164" on="0"/>
        <pt x="402" y="156" on="0"/>
        <pt x="418" y="150" on="0"/>
        <pt x="431" y="141" on="0"/>
        <pt x="431" y="131" on="1"/>
        <pt x="450" y="126" on="0"/>
        <pt x="460" y="106" on="0"/>
        <pt x="455" y="83" on="0"/>
        <pt x="440" y="59" on="0"/>
        <pt x="433" y="50" on="1"/>
        <pt x="424" y="52" on="0"/>
        <pt x="408" y="39" on="0"/>
        <pt x="401" y="31" on="1"/>
        <pt x="372" y="35" on="0"/>
        <pt x="316" y="29" on="0"/>
        <pt x="292" y="27" on="1"/>
        <pt x="287" y="26" on="0"/>
        <pt x="289" y="17" on="0"/>
        <pt x="286" y="15" on="1"/>
        <pt x="255" y="25" on="0"/>
        <pt x="190" y="21" on="0"/>
        <pt x="123" y="6" on="0"/>
        <pt x="53" y="-11" on="0"/>
      </contour>
    </TTGlyph>
    <TTGlyph name="Iacute" xMin="-36" yMin="-12" xMax="662" yMax="1136">
      <component glyphName="I" x="0" y="0" flags="0x204"/>
      <component glyphName="acute" x="51" y="369" flags="0x4"/>
    </TTGlyph>
    <TTGlyph name="Icircumflex" xMin="-36" yMin="-12" xMax="662" yMax="1091">
      <component glyphName="I" x="0" y="0" flags="0x204"/>
      <component glyphName="circumflex" x="-19" y="297" flags="0x4"/>
    </TTGlyph>
    <TTGlyph name="Idieresis" xMin="-36" yMin="-12" xMax="670" yMax="1001">
      <component glyphName="I" x="0" y="0" flags="0x204"/>
      <component glyphName="dieresis" x="0" y="246" flags="0x4"/>
    </TTGlyph>
    <TTGlyph name="Igrave" xMin="-36" yMin="-12" xMax="662" yMax="1136">
      <component glyphName="I" x="0" y="0" flags="0x204"/>
      <component glyphName="grave" x="-81" y="369" flags="0x4"/>
    </TTGlyph>
    <TTGlyph name="J" xMin="-20" yMin="0" xMax="821" yMax="726">
      <contour>
        <pt x="326" y="18" on="1"/>
        <pt x="311" y="16" on="0"/>
        <pt x="284" y="10" on="0"/>
        <pt x="270" y="6" on="1"/>
        <pt x="264" y="4" on="0"/>
        <pt x="252" y="2" on="0"/>
        <pt x="245" y="0" on="1"/>
        <pt x="227" y="4" on="0"/>
        <pt x="194" y="8" on="0"/>
        <pt x="181" y="8" on="1"/>
        <pt x="166" y="12" on="1"/>
        <pt x="154" y="16" on="0"/>
        <pt x="142" y="21" on="0"/>
        <pt x="131" y="24" on="0"/>
        <pt x="116" y="26" on="0"/>
        <pt x="102" y="28" on="1"/>
        <pt x="85" y="21" on="0"/>
        <pt x="69" y="21" on="1"/>
        <pt x="58" y="21" on="0"/>
        <pt x="34" y="28" on="0"/>
        <pt x="10" y="49" on="0"/>
        <pt x="-12" y="86" on="0"/>
        <pt x="-20" y="115" on="1"/>
        <pt x="-17" y="138" on="0"/>
        <pt x="-9" y="172" on="0"/>
        <pt x="-5" y="182" on="1"/>
        <pt x="3" y="191" on="1"/>
        <pt x="21" y="198" on="0"/>
        <pt x="44" y="198" on="1"/>
        <pt x="66" y="198" on="0"/>
        <pt x="108" y="184" on="0"/>
        <pt x="129" y="176" on="1"/>
        <pt x="138" y="172" on="0"/>
        <pt x="146" y="168" on="0"/>
        <pt x="150" y="166" on="0"/>
        <pt x="157" y="166" on="0"/>
        <pt x="166" y="166" on="1"/>
        <pt x="171" y="166" on="0"/>
        <pt x="180" y="167" on="0"/>
        <pt x="185" y="168" on="1"/>
        <pt x="197" y="167" on="1"/>
        <pt x="204" y="163" on="0"/>
        <pt x="214" y="163" on="1"/>
        <pt x="221" y="163" on="0"/>
        <pt x="236" y="167" on="0"/>
        <pt x="244" y="169" on="1"/>
        <pt x="252" y="172" on="0"/>
        <pt x="264" y="174" on="0"/>
        <pt x="269" y="176" on="1"/>
        <pt x="279" y="185" on="1"/>
        <pt x="289" y="189" on="0"/>
        <pt x="300" y="199" on="0"/>
        <pt x="308" y="212" on="0"/>
        <pt x="315" y="226" on="0"/>
        <pt x="321" y="234" on="1"/>
        <pt x="326" y="240" on="0"/>
        <pt x="335" y="252" on="0"/>
        <pt x="340" y="257" on="1"/>
        <pt x="340" y="267" on="1"/>
        <pt x="356" y="304" on="0"/>
        <pt x="380" y="380" on="0"/>
        <pt x="398" y="456" on="0"/>
        <pt x="411" y="528" on="0"/>
        <pt x="416" y="557" on="1"/>
        <pt x="413" y="557" on="0"/>
        <pt x="407" y="558" on="0"/>
        <pt x="405" y="558" on="1"/>
        <pt x="375" y="558" on="0"/>
        <pt x="337" y="556" on="0"/>
        <pt x="305" y="552" on="0"/>
        <pt x="270" y="545" on="0"/>
        <pt x="243" y="540" on="1"/>
        <pt x="226" y="537" on="1"/>
        <pt x="207" y="528" on="0"/>
        <pt x="172" y="513" on="0"/>
        <pt x="153" y="513" on="1"/>
        <pt x="123" y="513" on="0"/>
        <pt x="101" y="537" on="1"/>
        <pt x="78" y="551" on="0"/>
        <pt x="75" y="577" on="1"/>
        <pt x="70" y="586" on="0"/>
        <pt x="71" y="594" on="1"/>
        <pt x="67" y="608" on="0"/>
        <pt x="66" y="631" on="0"/>
        <pt x="66" y="641" on="1"/>
        <pt x="67" y="658" on="1"/>
        <pt x="82" y="658" on="1"/>
        <pt x="88" y="664" on="0"/>
        <pt x="93" y="670" on="0"/>
        <pt x="94" y="674" on="1"/>
        <pt x="97" y="684" on="1"/>
        <pt x="107" y="685" on="1"/>
        <pt x="128" y="688" on="0"/>
        <pt x="172" y="696" on="0"/>
        <pt x="195" y="701" on="1"/>
        <pt x="218" y="705" on="0"/>
        <pt x="251" y="711" on="0"/>
        <pt x="281" y="714" on="0"/>
        <pt x="313" y="715" on="0"/>
        <pt x="334" y="715" on="1"/>
        <pt x="342" y="715" on="0"/>
        <pt x="355" y="714" on="0"/>
        <pt x="362" y="714" on="1"/>
        <pt x="366" y="719" on="0"/>
        <pt x="374" y="721" on="0"/>
        <pt x="376" y="721" on="1"/>
        <pt x="383" y="720" on="0"/>
        <pt x="390" y="718" on="0"/>
        <pt x="392" y="717" on="1"/>
        <pt x="426" y="723" on="0"/>
        <pt x="483" y="726" on="0"/>
        <pt x="506" y="726" on="1"/>
        <pt x="517" y="726" on="0"/>
        <pt x="539" y="726" on="0"/>
        <pt x="549" y="725" on="1"/>
        <pt x="587" y="725" on="1"/>
        <pt x="614" y="725" on="1"/>
        <pt x="619" y="726" on="0"/>
        <pt x="628" y="726" on="0"/>
        <pt x="633" y="726" on="1"/>
        <pt x="643" y="726" on="0"/>
        <pt x="654" y="726" on="0"/>
        <pt x="662" y="725" on="0"/>
        <pt x="670" y="724" on="0"/>
        <pt x="677" y="723" on="1"/>
        <pt x="694" y="720" on="0"/>
        <pt x="722" y="716" on="0"/>
        <pt x="736" y="716" on="1"/>
        <pt x="755" y="717" on="1"/>
        <pt x="758" y="705" on="1"/>
        <pt x="767" y="692" on="1"/>
        <pt x="770" y="686" on="0"/>
        <pt x="780" y="676" on="0"/>
        <pt x="786" y="671" on="1"/>
        <pt x="798" y="660" on="0"/>
        <pt x="821" y="627" on="0"/>
        <pt x="818" y="596" on="1"/>
        <pt x="809" y="584" on="1"/>
        <pt x="805" y="582" on="0"/>
        <pt x="798" y="576" on="0"/>
        <pt x="794" y="572" on="1"/>
        <pt x="784" y="563" on="1"/>
        <pt x="771" y="562" on="0"/>
        <pt x="753" y="561" on="0"/>
        <pt x="742" y="561" on="1"/>
        <pt x="724" y="561" on="0"/>
        <pt x="687" y="563" on="0"/>
        <pt x="667" y="564" on="1"/>
        <pt x="656" y="565" on="0"/>
        <pt x="644" y="565" on="0"/>
        <pt x="634" y="565" on="0"/>
        <pt x="621" y="564" on="0"/>
        <pt x="611" y="564" on="1"/>
        <pt x="601" y="564" on="0"/>
        <pt x="592" y="564" on="0"/>
        <pt x="584" y="563" on="1"/>
        <pt x="582" y="531" on="0"/>
        <pt x="571" y="484" on="0"/>
        <pt x="563" y="458" on="1"/>
        <pt x="544" y="360" on="0"/>
        <pt x="489" y="186" on="0"/>
        <pt x="455" y="116" on="1"/>
        <pt x="423" y="82" on="0"/>
        <pt x="365" y="29" on="0"/>
        <pt x="329" y="18" on="1"/>
      </contour>
    </TTGlyph>
    <TTGlyph name="K" xMin="9" yMin="-13" xMax="815" yMax="742">
      <contour>
        <pt x="20" y="183" on="1"/>
        <pt x="21" y="187" on="0"/>
        <pt x="22" y="191" on="0"/>
        <pt x="18" y="194" on="1"/>
        <pt x="16" y="201" on="0"/>
        <pt x="26" y="205" on="0"/>
        <pt x="31" y="207" on="1"/>
        <pt x="36" y="267" on="0"/>
        <pt x="67" y="366" on="0"/>
        <pt x="104" y="460" on="0"/>
        <pt x="141" y="555" on="0"/>
        <pt x="153" y="611" on="1"/>
        <pt x="166" y="624" on="0"/>
        <pt x="183" y="660" on="0"/>
        <pt x="200" y="697" on="0"/>
        <pt x="223" y="731" on="0"/>
        <pt x="243" y="742" on="1"/>
        <pt x="252" y="741" on="0"/>
        <pt x="267" y="736" on="0"/>
        <pt x="281" y="730" on="0"/>
        <pt x="297" y="726" on="0"/>
        <pt x="306" y="726" on="1"/>
        <pt x="310" y="721" on="0"/>
        <pt x="316" y="708" on="0"/>
        <pt x="321" y="703" on="1"/>
        <pt x="339" y="706" on="1"/>
        <pt x="352" y="695" on="0"/>
        <pt x="372" y="662" on="0"/>
        <pt x="380" y="627" on="0"/>
        <pt x="370" y="594" on="0"/>
        <pt x="352" y="585" on="1"/>
        <pt x="353" y="579" on="0"/>
        <pt x="351" y="573" on="0"/>
        <pt x="348" y="568" on="0"/>
        <pt x="348" y="563" on="0"/>
        <pt x="352" y="559" on="1"/>
        <pt x="341" y="550" on="0"/>
        <pt x="323" y="523" on="0"/>
        <pt x="311" y="493" on="0"/>
        <pt x="304" y="463" on="0"/>
        <pt x="303" y="450" on="1"/>
        <pt x="332" y="480" on="0"/>
        <pt x="410" y="532" on="0"/>
        <pt x="439" y="555" on="1"/>
        <pt x="462" y="571" on="0"/>
        <pt x="497" y="600" on="0"/>
        <pt x="533" y="625" on="0"/>
        <pt x="572" y="648" on="0"/>
        <pt x="592" y="662" on="1"/>
        <pt x="602" y="666" on="0"/>
        <pt x="613" y="662" on="0"/>
        <pt x="618" y="659" on="1"/>
        <pt x="619" y="666" on="0"/>
        <pt x="611" y="669" on="0"/>
        <pt x="612" y="677" on="1"/>
        <pt x="629" y="682" on="0"/>
        <pt x="656" y="696" on="0"/>
        <pt x="671" y="702" on="1"/>
        <pt x="681" y="691" on="0"/>
        <pt x="701" y="666" on="0"/>
        <pt x="718" y="665" on="1"/>
        <pt x="724" y="652" on="0"/>
        <pt x="741" y="639" on="0"/>
        <pt x="758" y="627" on="0"/>
        <pt x="770" y="610" on="0"/>
        <pt x="771" y="592" on="1"/>
        <pt x="767" y="584" on="0"/>
        <pt x="756" y="565" on="0"/>
        <pt x="752" y="551" on="1"/>
        <pt x="728" y="529" on="0"/>
        <pt x="679" y="496" on="0"/>
        <pt x="628" y="466" on="0"/>
        <pt x="575" y="434" on="0"/>
        <pt x="548" y="413" on="1"/>
        <pt x="542" y="404" on="0"/>
        <pt x="524" y="390" on="0"/>
        <pt x="505" y="377" on="0"/>
        <pt x="488" y="363" on="0"/>
        <pt x="483" y="353" on="1"/>
        <pt x="479" y="353" on="0"/>
        <pt x="473" y="352" on="0"/>
        <pt x="469" y="351" on="1"/>
        <pt x="465" y="343" on="0"/>
        <pt x="450" y="333" on="0"/>
        <pt x="447" y="325" on="1"/>
        <pt x="465" y="286" on="0"/>
        <pt x="523" y="246" on="0"/>
        <pt x="595" y="228" on="0"/>
        <pt x="679" y="226" on="0"/>
        <pt x="724" y="226" on="1"/>
        <pt x="729" y="227" on="0"/>
        <pt x="728" y="236" on="0"/>
        <pt x="734" y="235" on="1"/>
        <pt x="749" y="230" on="0"/>
        <pt x="769" y="216" on="0"/>
        <pt x="787" y="200" on="0"/>
        <pt x="804" y="183" on="0"/>
        <pt x="815" y="174" on="1"/>
        <pt x="813" y="127" on="0"/>
        <pt x="762" y="68" on="0"/>
        <pt x="720" y="50" on="1"/>
        <pt x="662" y="48" on="0"/>
        <pt x="576" y="58" on="0"/>
        <pt x="534" y="75" on="1"/>
        <pt x="531" y="76" on="0"/>
        <pt x="526" y="86" on="0"/>
        <pt x="524" y="88" on="1"/>
        <pt x="516" y="93" on="0"/>
        <pt x="496" y="91" on="0"/>
        <pt x="489" y="94" on="1"/>
        <pt x="480" y="98" on="0"/>
        <pt x="439" y="126" on="0"/>
        <pt x="422" y="138" on="1"/>
        <pt x="401" y="155" on="0"/>
        <pt x="362" y="188" on="0"/>
        <pt x="347" y="208" on="1"/>
        <pt x="344" y="213" on="0"/>
        <pt x="333" y="213" on="0"/>
        <pt x="328" y="216" on="1"/>
        <pt x="293" y="194" on="0"/>
        <pt x="246" y="129" on="0"/>
        <pt x="202" y="62" on="0"/>
        <pt x="153" y="3" on="0"/>
        <pt x="116" y="-13" on="1"/>
        <pt x="105" y="-13" on="0"/>
        <pt x="89" y="-6" on="0"/>
        <pt x="75" y="5" on="0"/>
        <pt x="61" y="15" on="0"/>
        <pt x="52" y="17" on="1"/>
        <pt x="52" y="31" on="0"/>
        <pt x="41" y="56" on="0"/>
        <pt x="30" y="77" on="0"/>
        <pt x="25" y="97" on="0"/>
        <pt x="33" y="107" on="1"/>
        <pt x="22" y="116" on="0"/>
        <pt x="12" y="122" on="1"/>
        <pt x="19" y="129" on="0"/>
        <pt x="18" y="141" on="0"/>
        <pt x="12" y="153" on="0"/>
        <pt x="9" y="166" on="0"/>
        <pt x="14" y="174" on="1"/>
        <pt x="18" y="175" on="0"/>
        <pt x="17" y="181" on="0"/>
      </contour>
    </TTGlyph>
    <TTGlyph name="L" xMin="9" yMin="-12" xMax="628" yMax="747">
      <contour>
        <pt x="57" y="37" on="1"/>
        <pt x="53" y="41" on="0"/>
        <pt x="47" y="52" on="0"/>
        <pt x="45" y="61" on="1"/>
        <pt x="31" y="78" on="0"/>
        <pt x="15" y="122" on="0"/>
        <pt x="9" y="169" on="0"/>
        <pt x="13" y="217" on="0"/>
        <pt x="18" y="238" on="1"/>
        <pt x="21" y="248" on="0"/>
        <pt x="23" y="259" on="1"/>
        <pt x="28" y="278" on="0"/>
        <pt x="38" y="315" on="0"/>
        <pt x="48" y="327" on="1"/>
        <pt x="44" y="338" on="0"/>
        <pt x="54" y="364" on="0"/>
        <pt x="59" y="375" on="1"/>
        <pt x="61" y="378" on="0"/>
        <pt x="63" y="383" on="0"/>
        <pt x="64" y="385" on="1"/>
        <pt x="76" y="420" on="0"/>
        <pt x="99" y="485" on="0"/>
        <pt x="110" y="515" on="1"/>
        <pt x="130" y="570" on="0"/>
        <pt x="167" y="676" on="0"/>
        <pt x="182" y="736" on="1"/>
        <pt x="190" y="742" on="0"/>
        <pt x="196" y="744" on="1"/>
        <pt x="198" y="745" on="0"/>
        <pt x="204" y="747" on="0"/>
        <pt x="208" y="747" on="1"/>
        <pt x="229" y="736" on="0"/>
        <pt x="286" y="717" on="0"/>
        <pt x="306" y="717" on="1"/>
        <pt x="323" y="702" on="1"/>
        <pt x="336" y="687" on="0"/>
        <pt x="355" y="654" on="0"/>
        <pt x="351" y="628" on="1"/>
        <pt x="345" y="619" on="0"/>
        <pt x="341" y="617" on="1"/>
        <pt x="335" y="594" on="0"/>
        <pt x="321" y="559" on="0"/>
        <pt x="314" y="543" on="1"/>
        <pt x="306" y="525" on="0"/>
        <pt x="292" y="489" on="0"/>
        <pt x="287" y="463" on="1"/>
        <pt x="281" y="456" on="0"/>
        <pt x="278" y="446" on="0"/>
        <pt x="276" y="441" on="1"/>
        <pt x="274" y="435" on="0"/>
        <pt x="268" y="422" on="0"/>
        <pt x="262" y="417" on="1"/>
        <pt x="258" y="386" on="0"/>
        <pt x="242" y="347" on="0"/>
        <pt x="234" y="328" on="1"/>
        <pt x="220" y="293" on="0"/>
        <pt x="196" y="224" on="0"/>
        <pt x="194" y="180" on="1"/>
        <pt x="206" y="183" on="0"/>
        <pt x="216" y="183" on="1"/>
        <pt x="229" y="183" on="0"/>
        <pt x="241" y="179" on="1"/>
        <pt x="277" y="197" on="0"/>
        <pt x="362" y="205" on="0"/>
        <pt x="404" y="206" on="1"/>
        <pt x="439" y="206" on="0"/>
        <pt x="469" y="209" on="1"/>
        <pt x="479" y="202" on="0"/>
        <pt x="485" y="201" on="0"/>
        <pt x="492" y="201" on="1"/>
        <pt x="495" y="201" on="0"/>
        <pt x="501" y="201" on="0"/>
        <pt x="506" y="200" on="1"/>
        <pt x="520" y="186" on="0"/>
        <pt x="546" y="175" on="0"/>
        <pt x="561" y="170" on="1"/>
        <pt x="574" y="165" on="0"/>
        <pt x="599" y="154" on="0"/>
        <pt x="611" y="145" on="1"/>
        <pt x="620" y="94" on="1"/>
        <pt x="628" y="83" on="0"/>
        <pt x="627" y="79" on="1"/>
        <pt x="627" y="71" on="0"/>
        <pt x="623" y="65" on="1"/>
        <pt x="625" y="52" on="1"/>
        <pt x="606" y="48" on="0"/>
        <pt x="594" y="39" on="0"/>
        <pt x="587" y="32" on="1"/>
        <pt x="576" y="31" on="0"/>
        <pt x="566" y="31" on="1"/>
        <pt x="546" y="31" on="0"/>
        <pt x="525" y="25" on="1"/>
        <pt x="495" y="36" on="0"/>
        <pt x="459" y="36" on="1"/>
        <pt x="445" y="36" on="0"/>
        <pt x="416" y="34" on="0"/>
        <pt x="402" y="32" on="1"/>
        <pt x="387" y="30" on="0"/>
        <pt x="357" y="27" on="0"/>
        <pt x="342" y="27" on="1"/>
        <pt x="330" y="25" on="0"/>
        <pt x="320" y="23" on="0"/>
        <pt x="315" y="21" on="1"/>
        <pt x="281" y="10" on="0"/>
        <pt x="202" y="-12" on="0"/>
        <pt x="162" y="-12" on="1"/>
        <pt x="103" y="-12" on="0"/>
        <pt x="67" y="18" on="1"/>
        <pt x="63" y="27" on="0"/>
        <pt x="59" y="33" on="0"/>
      </contour>
    </TTGlyph>
    <TTGlyph name="Lslash" xMin="-100" yMin="-12" xMax="628" yMax="747">
      <contour>
        <pt x="383" y="479" on="1"/>
        <pt x="398" y="482" on="0"/>
        <pt x="413" y="475" on="0"/>
        <pt x="421" y="461" on="0"/>
        <pt x="424" y="444" on="0"/>
        <pt x="426" y="435" on="1"/>
        <pt x="414" y="422" on="0"/>
        <pt x="375" y="399" on="0"/>
        <pt x="327" y="379" on="0"/>
        <pt x="272" y="361" on="0"/>
        <pt x="245" y="353" on="1"/>
        <pt x="242" y="347" on="0"/>
        <pt x="237" y="335" on="0"/>
        <pt x="234" y="328" on="1"/>
        <pt x="220" y="293" on="0"/>
        <pt x="196" y="224" on="0"/>
        <pt x="194" y="180" on="1"/>
        <pt x="206" y="183" on="0"/>
        <pt x="216" y="183" on="1"/>
        <pt x="229" y="183" on="0"/>
        <pt x="241" y="179" on="1"/>
        <pt x="277" y="197" on="0"/>
        <pt x="362" y="205" on="0"/>
        <pt x="404" y="206" on="1"/>
        <pt x="439" y="206" on="0"/>
        <pt x="469" y="209" on="1"/>
        <pt x="479" y="202" on="0"/>
        <pt x="485" y="201" on="0"/>
        <pt x="492" y="201" on="1"/>
        <pt x="495" y="201" on="0"/>
        <pt x="501" y="201" on="0"/>
        <pt x="506" y="200" on="1"/>
        <pt x="520" y="186" on="0"/>
        <pt x="546" y="175" on="0"/>
        <pt x="561" y="170" on="1"/>
        <pt x="574" y="165" on="0"/>
        <pt x="599" y="154" on="0"/>
        <pt x="611" y="145" on="1"/>
        <pt x="620" y="94" on="1"/>
        <pt x="628" y="83" on="0"/>
        <pt x="627" y="79" on="1"/>
        <pt x="627" y="71" on="0"/>
        <pt x="623" y="65" on="1"/>
        <pt x="625" y="52" on="1"/>
        <pt x="606" y="48" on="0"/>
        <pt x="594" y="39" on="0"/>
        <pt x="587" y="32" on="1"/>
        <pt x="576" y="31" on="0"/>
        <pt x="566" y="31" on="1"/>
        <pt x="546" y="31" on="0"/>
        <pt x="525" y="25" on="1"/>
        <pt x="495" y="36" on="0"/>
        <pt x="459" y="36" on="1"/>
        <pt x="445" y="36" on="0"/>
        <pt x="416" y="34" on="0"/>
        <pt x="402" y="32" on="1"/>
        <pt x="387" y="30" on="0"/>
        <pt x="357" y="27" on="0"/>
        <pt x="342" y="27" on="1"/>
        <pt x="330" y="25" on="0"/>
        <pt x="320" y="23" on="0"/>
        <pt x="315" y="21" on="1"/>
        <pt x="281" y="10" on="0"/>
        <pt x="202" y="-12" on="0"/>
        <pt x="162" y="-12" on="1"/>
        <pt x="103" y="-12" on="0"/>
        <pt x="67" y="18" on="1"/>
        <pt x="63" y="27" on="0"/>
        <pt x="59" y="33" on="0"/>
        <pt x="57" y="37" on="1"/>
        <pt x="53" y="41" on="0"/>
        <pt x="47" y="52" on="0"/>
        <pt x="45" y="61" on="1"/>
        <pt x="31" y="78" on="0"/>
        <pt x="15" y="122" on="0"/>
        <pt x="9" y="169" on="0"/>
        <pt x="13" y="217" on="0"/>
        <pt x="18" y="238" on="1"/>
        <pt x="21" y="248" on="0"/>
        <pt x="23" y="259" on="1"/>
        <pt x="25" y="264" on="0"/>
        <pt x="26" y="272" on="0"/>
        <pt x="28" y="277" on="1"/>
        <pt x="13" y="269" on="0"/>
        <pt x="7" y="265" on="1"/>
        <pt x="-12" y="261" on="0"/>
        <pt x="-37" y="267" on="0"/>
        <pt x="-55" y="280" on="0"/>
        <pt x="-70" y="299" on="0"/>
        <pt x="-80" y="309" on="1"/>
        <pt x="-78" y="318" on="0"/>
        <pt x="-89" y="346" on="0"/>
        <pt x="-100" y="351" on="1"/>
        <pt x="-93" y="354" on="0"/>
        <pt x="-90" y="375" on="0"/>
        <pt x="-95" y="380" on="1"/>
        <pt x="-80" y="388" on="0"/>
        <pt x="-45" y="400" on="0"/>
        <pt x="-11" y="411" on="0"/>
        <pt x="19" y="424" on="0"/>
        <pt x="29" y="433" on="1"/>
        <pt x="43" y="437" on="0"/>
        <pt x="72" y="444" on="0"/>
        <pt x="86" y="449" on="1"/>
        <pt x="98" y="483" on="0"/>
        <pt x="110" y="515" on="1"/>
        <pt x="130" y="570" on="0"/>
        <pt x="167" y="676" on="0"/>
        <pt x="182" y="736" on="1"/>
        <pt x="190" y="742" on="0"/>
        <pt x="196" y="744" on="1"/>
        <pt x="198" y="745" on="0"/>
        <pt x="204" y="747" on="0"/>
        <pt x="208" y="747" on="1"/>
        <pt x="229" y="736" on="0"/>
        <pt x="286" y="717" on="0"/>
        <pt x="306" y="717" on="1"/>
        <pt x="323" y="702" on="1"/>
        <pt x="336" y="687" on="0"/>
        <pt x="355" y="654" on="0"/>
        <pt x="351" y="628" on="1"/>
        <pt x="345" y="619" on="0"/>
        <pt x="341" y="617" on="1"/>
        <pt x="335" y="594" on="0"/>
        <pt x="321" y="559" on="0"/>
        <pt x="314" y="543" on="1"/>
        <pt x="309" y="533" on="0"/>
        <pt x="301" y="513" on="0"/>
        <pt x="297" y="502" on="1"/>
        <pt x="323" y="506" on="0"/>
        <pt x="369" y="501" on="0"/>
      </contour>
    </TTGlyph>
    <TTGlyph name="M" xMin="5" yMin="-14" xMax="992" yMax="753">
      <contour>
        <pt x="90" y="-14" on="1"/>
        <pt x="80" y="-14" on="0"/>
        <pt x="59" y="-11" on="1"/>
        <pt x="43" y="6" on="0"/>
        <pt x="18" y="65" on="0"/>
        <pt x="5" y="132" on="0"/>
        <pt x="6" y="199" on="0"/>
        <pt x="17" y="225" on="1"/>
        <pt x="17" y="226" on="0"/>
        <pt x="36" y="272" on="0"/>
        <pt x="66" y="343" on="0"/>
        <pt x="104" y="430" on="0"/>
        <pt x="142" y="514" on="0"/>
        <pt x="177" y="583" on="0"/>
        <pt x="190" y="602" on="1"/>
        <pt x="199" y="616" on="0"/>
        <pt x="214" y="642" on="0"/>
        <pt x="221" y="653" on="1"/>
        <pt x="232" y="671" on="0"/>
        <pt x="251" y="702" on="0"/>
        <pt x="274" y="727" on="0"/>
        <pt x="302" y="746" on="0"/>
        <pt x="322" y="753" on="1"/>
        <pt x="334" y="748" on="0"/>
        <pt x="352" y="737" on="0"/>
        <pt x="359" y="729" on="1"/>
        <pt x="362" y="715" on="1"/>
        <pt x="364" y="708" on="0"/>
        <pt x="373" y="703" on="0"/>
        <pt x="376" y="703" on="1"/>
        <pt x="389" y="700" on="0"/>
        <pt x="408" y="693" on="0"/>
        <pt x="419" y="692" on="1"/>
        <pt x="423" y="686" on="0"/>
        <pt x="430" y="674" on="0"/>
        <pt x="434" y="669" on="1"/>
        <pt x="454" y="640" on="0"/>
        <pt x="480" y="586" on="0"/>
        <pt x="467" y="554" on="1"/>
        <pt x="468" y="543" on="1"/>
        <pt x="473" y="536" on="0"/>
        <pt x="473" y="524" on="0"/>
        <pt x="471" y="513" on="1"/>
        <pt x="470" y="505" on="0"/>
        <pt x="469" y="486" on="0"/>
        <pt x="472" y="475" on="1"/>
        <pt x="479" y="467" on="1"/>
        <pt x="495" y="459" on="0"/>
        <pt x="510" y="459" on="1"/>
        <pt x="530" y="459" on="0"/>
        <pt x="562" y="477" on="0"/>
        <pt x="576" y="486" on="1"/>
        <pt x="587" y="494" on="0"/>
        <pt x="606" y="504" on="0"/>
        <pt x="615" y="506" on="1"/>
        <pt x="636" y="526" on="0"/>
        <pt x="671" y="557" on="0"/>
        <pt x="690" y="573" on="1"/>
        <pt x="726" y="602" on="0"/>
        <pt x="794" y="669" on="0"/>
        <pt x="814" y="719" on="1"/>
        <pt x="825" y="726" on="0"/>
        <pt x="839" y="726" on="1"/>
        <pt x="853" y="726" on="0"/>
        <pt x="881" y="715" on="0"/>
        <pt x="895" y="708" on="1"/>
        <pt x="898" y="706" on="0"/>
        <pt x="903" y="704" on="0"/>
        <pt x="906" y="702" on="1"/>
        <pt x="906" y="691" on="0"/>
        <pt x="915" y="682" on="1"/>
        <pt x="920" y="678" on="0"/>
        <pt x="924" y="676" on="0"/>
        <pt x="926" y="675" on="1"/>
        <pt x="934" y="670" on="0"/>
        <pt x="945" y="662" on="0"/>
        <pt x="948" y="655" on="1"/>
        <pt x="957" y="628" on="0"/>
        <pt x="978" y="613" on="1"/>
        <pt x="976" y="602" on="0"/>
        <pt x="982" y="581" on="0"/>
        <pt x="986" y="571" on="1"/>
        <pt x="988" y="567" on="0"/>
        <pt x="990" y="560" on="0"/>
        <pt x="992" y="555" on="1"/>
        <pt x="970" y="557" on="1"/>
        <pt x="973" y="535" on="1"/>
        <pt x="976" y="518" on="0"/>
        <pt x="965" y="476" on="0"/>
        <pt x="958" y="464" on="1"/>
        <pt x="960" y="434" on="0"/>
        <pt x="960" y="399" on="0"/>
        <pt x="956" y="369" on="0"/>
        <pt x="947" y="342" on="0"/>
        <pt x="940" y="327" on="1"/>
        <pt x="944" y="251" on="0"/>
        <pt x="901" y="125" on="0"/>
        <pt x="876" y="70" on="1"/>
        <pt x="873" y="63" on="0"/>
        <pt x="867" y="51" on="0"/>
        <pt x="865" y="45" on="1"/>
        <pt x="854" y="42" on="0"/>
        <pt x="836" y="34" on="0"/>
        <pt x="828" y="29" on="1"/>
        <pt x="817" y="22" on="0"/>
        <pt x="795" y="13" on="0"/>
        <pt x="783" y="13" on="1"/>
        <pt x="735" y="48" on="0"/>
        <pt x="732" y="220" on="0"/>
        <pt x="770" y="353" on="1"/>
        <pt x="777" y="358" on="0"/>
        <pt x="776" y="368" on="1"/>
        <pt x="776" y="379" on="1"/>
        <pt x="766" y="380" on="1"/>
        <pt x="761" y="380" on="0"/>
        <pt x="753" y="378" on="0"/>
        <pt x="751" y="370" on="1"/>
        <pt x="719" y="347" on="0"/>
        <pt x="644" y="298" on="0"/>
        <pt x="564" y="257" on="0"/>
        <pt x="481" y="230" on="0"/>
        <pt x="442" y="230" on="1"/>
        <pt x="342" y="230" on="0"/>
        <pt x="291" y="332" on="1"/>
        <pt x="282" y="350" on="1"/>
        <pt x="272" y="334" on="1"/>
        <pt x="269" y="329" on="0"/>
        <pt x="254" y="300" on="0"/>
        <pt x="239" y="262" on="0"/>
        <pt x="228" y="222" on="0"/>
        <pt x="230" y="207" on="1"/>
        <pt x="218" y="196" on="0"/>
        <pt x="195" y="168" on="0"/>
        <pt x="190" y="150" on="1"/>
        <pt x="188" y="145" on="0"/>
        <pt x="190" y="136" on="0"/>
        <pt x="192" y="131" on="1"/>
        <pt x="191" y="124" on="0"/>
        <pt x="185" y="118" on="0"/>
        <pt x="181" y="115" on="1"/>
        <pt x="176" y="110" on="0"/>
        <pt x="166" y="99" on="0"/>
        <pt x="162" y="92" on="1"/>
        <pt x="160" y="86" on="0"/>
        <pt x="158" y="73" on="0"/>
        <pt x="157" y="68" on="1"/>
        <pt x="157" y="57" on="0"/>
        <pt x="154" y="53" on="1"/>
        <pt x="144" y="32" on="0"/>
        <pt x="129" y="5" on="0"/>
        <pt x="115" y="-9" on="0"/>
        <pt x="100" y="-14" on="0"/>
      </contour>
    </TTGlyph>
    <TTGlyph name="N" xMin="-15" yMin="-2" xMax="727" yMax="747">
      <contour>
        <pt x="181" y="94" on="1"/>
        <pt x="171" y="86" on="0"/>
        <pt x="167" y="61" on="0"/>
        <pt x="161" y="37" on="0"/>
        <pt x="146" y="20" on="0"/>
        <pt x="127" y="21" on="1"/>
        <pt x="123" y="16" on="0"/>
        <pt x="128" y="14" on="0"/>
        <pt x="130" y="6" on="1"/>
        <pt x="116" y="8" on="0"/>
        <pt x="104" y="0" on="0"/>
        <pt x="95" y="-2" on="1"/>
        <pt x="72" y="5" on="0"/>
        <pt x="41" y="42" on="0"/>
        <pt x="18" y="86" on="0"/>
        <pt x="1" y="132" on="0"/>
        <pt x="-8" y="149" on="1"/>
        <pt x="-8" y="153" on="0"/>
        <pt x="-1" y="152" on="0"/>
        <pt x="2" y="152" on="1"/>
        <pt x="-3" y="162" on="0"/>
        <pt x="-8" y="187" on="0"/>
        <pt x="-15" y="195" on="1"/>
        <pt x="14" y="257" on="0"/>
        <pt x="80" y="392" on="0"/>
        <pt x="147" y="531" on="0"/>
        <pt x="214" y="672" on="0"/>
        <pt x="245" y="740" on="1"/>
        <pt x="273" y="730" on="0"/>
        <pt x="326" y="703" on="0"/>
        <pt x="370" y="667" on="0"/>
        <pt x="401" y="620" on="0"/>
        <pt x="406" y="590" on="1"/>
        <pt x="404" y="584" on="0"/>
        <pt x="398" y="588" on="0"/>
        <pt x="396" y="584" on="1"/>
        <pt x="401" y="578" on="0"/>
        <pt x="402" y="573" on="0"/>
        <pt x="400" y="568" on="0"/>
        <pt x="400" y="560" on="0"/>
        <pt x="405" y="553" on="1"/>
        <pt x="400" y="554" on="0"/>
        <pt x="396" y="549" on="0"/>
        <pt x="391" y="551" on="1"/>
        <pt x="396" y="537" on="0"/>
        <pt x="392" y="521" on="0"/>
        <pt x="384" y="508" on="0"/>
        <pt x="379" y="493" on="0"/>
        <pt x="383" y="480" on="1"/>
        <pt x="379" y="480" on="0"/>
        <pt x="376" y="477" on="0"/>
        <pt x="374" y="473" on="0"/>
        <pt x="371" y="470" on="0"/>
        <pt x="367" y="471" on="1"/>
        <pt x="370" y="445" on="0"/>
        <pt x="368" y="392" on="0"/>
        <pt x="366" y="337" on="0"/>
        <pt x="368" y="279" on="0"/>
        <pt x="375" y="248" on="1"/>
        <pt x="418" y="273" on="0"/>
        <pt x="471" y="353" on="0"/>
        <pt x="502" y="451" on="0"/>
        <pt x="519" y="563" on="0"/>
        <pt x="528" y="621" on="1"/>
        <pt x="539" y="632" on="0"/>
        <pt x="552" y="664" on="0"/>
        <pt x="561" y="698" on="0"/>
        <pt x="570" y="733" on="0"/>
        <pt x="578" y="747" on="1"/>
        <pt x="596" y="745" on="0"/>
        <pt x="621" y="728" on="0"/>
        <pt x="643" y="707" on="0"/>
        <pt x="667" y="689" on="0"/>
        <pt x="685" y="686" on="1"/>
        <pt x="699" y="666" on="0"/>
        <pt x="723" y="629" on="0"/>
        <pt x="727" y="606" on="1"/>
        <pt x="721" y="596" on="0"/>
        <pt x="715" y="572" on="0"/>
        <pt x="708" y="548" on="0"/>
        <pt x="696" y="528" on="0"/>
        <pt x="685" y="521" on="1"/>
        <pt x="682" y="491" on="0"/>
        <pt x="670" y="439" on="0"/>
        <pt x="660" y="389" on="0"/>
        <pt x="652" y="335" on="0"/>
        <pt x="653" y="303" on="1"/>
        <pt x="644" y="274" on="0"/>
        <pt x="622" y="213" on="0"/>
        <pt x="617" y="187" on="1"/>
        <pt x="598" y="172" on="0"/>
        <pt x="576" y="128" on="0"/>
        <pt x="564" y="106" on="1"/>
        <pt x="559" y="102" on="0"/>
        <pt x="557" y="107" on="0"/>
        <pt x="549" y="108" on="1"/>
        <pt x="550" y="99" on="0"/>
        <pt x="541" y="94" on="0"/>
        <pt x="546" y="82" on="1"/>
        <pt x="529" y="74" on="0"/>
        <pt x="503" y="48" on="0"/>
        <pt x="472" y="26" on="0"/>
        <pt x="431" y="19" on="0"/>
        <pt x="398" y="31" on="1"/>
        <pt x="349" y="67" on="0"/>
        <pt x="271" y="161" on="0"/>
        <pt x="248" y="225" on="1"/>
        <pt x="238" y="222" on="0"/>
        <pt x="228" y="202" on="0"/>
        <pt x="220" y="180" on="0"/>
        <pt x="212" y="162" on="0"/>
        <pt x="204" y="162" on="1"/>
        <pt x="202" y="153" on="0"/>
        <pt x="191" y="138" on="0"/>
        <pt x="181" y="123" on="0"/>
        <pt x="176" y="105" on="0"/>
      </contour>
    </TTGlyph>
    <TTGlyph name="Ntilde" xMin="-15" yMin="-2" xMax="768" yMax="1011">
      <component glyphName="N" x="0" y="0" flags="0x204"/>
      <component glyphName="tilde" x="72" y="246" flags="0x4"/>
    </TTGlyph>
    <TTGlyph name="O" xMin="5" yMin="-14" xMax="727" yMax="763">
      <contour>
        <pt x="241" y="-4" on="1"/>
        <pt x="197" y="-10" on="0"/>
        <pt x="125" y="10" on="0"/>
        <pt x="68" y="52" on="0"/>
        <pt x="27" y="110" on="0"/>
        <pt x="14" y="143" on="1"/>
        <pt x="5" y="211" on="0"/>
        <pt x="33" y="322" on="0"/>
        <pt x="87" y="416" on="0"/>
        <pt x="156" y="498" on="0"/>
        <pt x="188" y="536" on="1"/>
        <pt x="195" y="533" on="0"/>
        <pt x="204" y="539" on="0"/>
        <pt x="211" y="549" on="0"/>
        <pt x="220" y="559" on="0"/>
        <pt x="226" y="561" on="1"/>
        <pt x="230" y="570" on="0"/>
        <pt x="243" y="582" on="0"/>
        <pt x="258" y="593" on="0"/>
        <pt x="271" y="605" on="0"/>
        <pt x="276" y="614" on="1"/>
        <pt x="286" y="616" on="0"/>
        <pt x="301" y="626" on="0"/>
        <pt x="314" y="638" on="0"/>
        <pt x="328" y="648" on="0"/>
        <pt x="338" y="651" on="1"/>
        <pt x="338" y="664" on="1"/>
        <pt x="360" y="674" on="0"/>
        <pt x="380" y="698" on="0"/>
        <pt x="394" y="717" on="1"/>
        <pt x="405" y="718" on="0"/>
        <pt x="418" y="718" on="0"/>
        <pt x="432" y="720" on="1"/>
        <pt x="441" y="737" on="0"/>
        <pt x="457" y="753" on="0"/>
        <pt x="472" y="763" on="1"/>
        <pt x="487" y="755" on="0"/>
        <pt x="521" y="752" on="0"/>
        <pt x="535" y="738" on="1"/>
        <pt x="536" y="726" on="0"/>
        <pt x="548" y="713" on="0"/>
        <pt x="562" y="702" on="0"/>
        <pt x="576" y="690" on="0"/>
        <pt x="578" y="679" on="1"/>
        <pt x="583" y="679" on="0"/>
        <pt x="586" y="683" on="0"/>
        <pt x="591" y="682" on="1"/>
        <pt x="593" y="674" on="0"/>
        <pt x="597" y="664" on="0"/>
        <pt x="602" y="656" on="0"/>
        <pt x="607" y="646" on="0"/>
        <pt x="609" y="639" on="1"/>
        <pt x="604" y="627" on="0"/>
        <pt x="596" y="600" on="0"/>
        <pt x="584" y="595" on="1"/>
        <pt x="584" y="587" on="0"/>
        <pt x="596" y="586" on="0"/>
        <pt x="597" y="579" on="1"/>
        <pt x="598" y="570" on="0"/>
        <pt x="594" y="564" on="1"/>
        <pt x="622" y="517" on="0"/>
        <pt x="668" y="414" on="0"/>
        <pt x="697" y="367" on="1"/>
        <pt x="695" y="353" on="0"/>
        <pt x="702" y="326" on="0"/>
        <pt x="713" y="300" on="0"/>
        <pt x="723" y="274" on="0"/>
        <pt x="725" y="261" on="1"/>
        <pt x="727" y="244" on="0"/>
        <pt x="723" y="205" on="0"/>
        <pt x="711" y="169" on="0"/>
        <pt x="691" y="138" on="0"/>
        <pt x="678" y="130" on="1"/>
        <pt x="662" y="110" on="0"/>
        <pt x="614" y="85" on="0"/>
        <pt x="594" y="68" on="1"/>
        <pt x="580" y="60" on="0"/>
        <pt x="548" y="53" on="0"/>
        <pt x="531" y="49" on="1"/>
        <pt x="518" y="41" on="0"/>
        <pt x="482" y="26" on="0"/>
        <pt x="444" y="14" on="0"/>
        <pt x="406" y="7" on="0"/>
        <pt x="391" y="9" on="1"/>
        <pt x="355" y="-4" on="0"/>
        <pt x="287" y="-14" on="0"/>
      </contour>
      <contour>
        <pt x="254" y="360" on="1"/>
        <pt x="244" y="337" on="0"/>
        <pt x="217" y="300" on="0"/>
        <pt x="191" y="262" on="0"/>
        <pt x="172" y="219" on="0"/>
        <pt x="171" y="190" on="1"/>
        <pt x="191" y="173" on="0"/>
        <pt x="246" y="166" on="0"/>
        <pt x="304" y="171" on="0"/>
        <pt x="362" y="181" on="0"/>
        <pt x="385" y="181" on="1"/>
        <pt x="385" y="190" on="0"/>
        <pt x="393" y="190" on="1"/>
        <pt x="435" y="194" on="0"/>
        <pt x="507" y="233" on="0"/>
        <pt x="546" y="253" on="1"/>
        <pt x="551" y="265" on="0"/>
        <pt x="567" y="283" on="0"/>
        <pt x="568" y="300" on="1"/>
        <pt x="563" y="309" on="0"/>
        <pt x="560" y="321" on="0"/>
        <pt x="560" y="333" on="1"/>
        <pt x="534" y="369" on="0"/>
        <pt x="496" y="454" on="0"/>
        <pt x="471" y="492" on="1"/>
        <pt x="469" y="487" on="0"/>
        <pt x="457" y="477" on="0"/>
        <pt x="450" y="484" on="1"/>
        <pt x="447" y="474" on="0"/>
        <pt x="435" y="467" on="0"/>
        <pt x="420" y="467" on="0"/>
        <pt x="405" y="473" on="0"/>
        <pt x="399" y="478" on="1"/>
        <pt x="364" y="450" on="0"/>
        <pt x="295" y="398" on="0"/>
        <pt x="267" y="363" on="1"/>
        <pt x="262" y="360" on="0"/>
        <pt x="260" y="362" on="0"/>
      </contour>
    </TTGlyph>
    <TTGlyph name="OE" xMin="5" yMin="-14" xMax="1268" yMax="763">
      <contour>
        <pt x="241" y="-4" on="1"/>
        <pt x="197" y="-10" on="0"/>
        <pt x="125" y="10" on="0"/>
        <pt x="68" y="52" on="0"/>
        <pt x="27" y="110" on="0"/>
        <pt x="14" y="143" on="1"/>
        <pt x="5" y="211" on="0"/>
        <pt x="33" y="322" on="0"/>
        <pt x="87" y="416" on="0"/>
        <pt x="156" y="498" on="0"/>
        <pt x="188" y="536" on="1"/>
        <pt x="195" y="533" on="0"/>
        <pt x="204" y="539" on="0"/>
        <pt x="211" y="549" on="0"/>
        <pt x="220" y="559" on="0"/>
        <pt x="226" y="561" on="1"/>
        <pt x="230" y="570" on="0"/>
        <pt x="243" y="582" on="0"/>
        <pt x="258" y="593" on="0"/>
        <pt x="271" y="605" on="0"/>
        <pt x="276" y="614" on="1"/>
        <pt x="286" y="616" on="0"/>
        <pt x="301" y="626" on="0"/>
        <pt x="314" y="638" on="0"/>
        <pt x="328" y="648" on="0"/>
        <pt x="338" y="651" on="1"/>
        <pt x="338" y="664" on="1"/>
        <pt x="360" y="674" on="0"/>
        <pt x="380" y="698" on="0"/>
        <pt x="394" y="717" on="1"/>
        <pt x="405" y="718" on="0"/>
        <pt x="418" y="718" on="0"/>
        <pt x="432" y="720" on="1"/>
        <pt x="441" y="737" on="0"/>
        <pt x="457" y="753" on="0"/>
        <pt x="472" y="763" on="1"/>
        <pt x="487" y="755" on="0"/>
        <pt x="521" y="752" on="0"/>
        <pt x="535" y="738" on="1"/>
        <pt x="536" y="726" on="0"/>
        <pt x="548" y="713" on="0"/>
        <pt x="562" y="702" on="0"/>
        <pt x="576" y="690" on="0"/>
        <pt x="578" y="679" on="1"/>
        <pt x="583" y="679" on="0"/>
        <pt x="586" y="683" on="0"/>
        <pt x="591" y="682" on="1"/>
        <pt x="593" y="674" on="0"/>
        <pt x="597" y="664" on="0"/>
        <pt x="602" y="656" on="0"/>
        <pt x="607" y="646" on="0"/>
        <pt x="609" y="639" on="1"/>
        <pt x="604" y="627" on="0"/>
        <pt x="596" y="600" on="0"/>
        <pt x="584" y="595" on="1"/>
        <pt x="584" y="587" on="0"/>
        <pt x="596" y="586" on="0"/>
        <pt x="597" y="579" on="1"/>
        <pt x="598" y="570" on="0"/>
        <pt x="594" y="564" on="1"/>
        <pt x="620" y="521" on="0"/>
        <pt x="662" y="426" on="0"/>
        <pt x="688" y="382" on="1"/>
        <pt x="696" y="399" on="0"/>
        <pt x="712" y="434" on="0"/>
        <pt x="720" y="454" on="1"/>
        <pt x="703" y="470" on="0"/>
        <pt x="688" y="507" on="0"/>
        <pt x="680" y="545" on="0"/>
        <pt x="676" y="584" on="0"/>
        <pt x="670" y="604" on="1"/>
        <pt x="682" y="622" on="0"/>
        <pt x="716" y="645" on="0"/>
        <pt x="757" y="660" on="0"/>
        <pt x="805" y="669" on="0"/>
        <pt x="832" y="675" on="1"/>
        <pt x="880" y="690" on="0"/>
        <pt x="956" y="707" on="0"/>
        <pt x="1028" y="718" on="0"/>
        <pt x="1106" y="727" on="0"/>
        <pt x="1157" y="736" on="1"/>
        <pt x="1158" y="733" on="0"/>
        <pt x="1163" y="733" on="0"/>
        <pt x="1167" y="733" on="1"/>
        <pt x="1170" y="726" on="0"/>
        <pt x="1178" y="726" on="1"/>
        <pt x="1178" y="729" on="0"/>
        <pt x="1177" y="734" on="0"/>
        <pt x="1177" y="736" on="1"/>
        <pt x="1179" y="736" on="0"/>
        <pt x="1186" y="734" on="0"/>
        <pt x="1191" y="732" on="0"/>
        <pt x="1195" y="735" on="0"/>
        <pt x="1194" y="740" on="1"/>
        <pt x="1206" y="719" on="0"/>
        <pt x="1244" y="692" on="0"/>
        <pt x="1267" y="682" on="1"/>
        <pt x="1268" y="673" on="0"/>
        <pt x="1267" y="665" on="0"/>
        <pt x="1265" y="658" on="0"/>
        <pt x="1265" y="649" on="0"/>
        <pt x="1267" y="641" on="1"/>
        <pt x="1251" y="614" on="0"/>
        <pt x="1210" y="584" on="0"/>
        <pt x="1164" y="568" on="0"/>
        <pt x="1113" y="560" on="0"/>
        <pt x="1060" y="551" on="0"/>
        <pt x="1006" y="535" on="0"/>
        <pt x="980" y="519" on="1"/>
        <pt x="972" y="522" on="0"/>
        <pt x="959" y="521" on="0"/>
        <pt x="945" y="517" on="0"/>
        <pt x="928" y="513" on="0"/>
        <pt x="916" y="515" on="1"/>
        <pt x="908" y="508" on="0"/>
        <pt x="887" y="502" on="0"/>
        <pt x="876" y="499" on="1"/>
        <pt x="881" y="488" on="0"/>
        <pt x="880" y="466" on="0"/>
        <pt x="883" y="458" on="1"/>
        <pt x="925" y="454" on="0"/>
        <pt x="1027" y="463" on="0"/>
        <pt x="1076" y="465" on="1"/>
        <pt x="1077" y="460" on="0"/>
        <pt x="1073" y="456" on="0"/>
        <pt x="1073" y="451" on="1"/>
        <pt x="1082" y="445" on="0"/>
        <pt x="1098" y="427" on="0"/>
        <pt x="1115" y="410" on="0"/>
        <pt x="1133" y="399" on="0"/>
        <pt x="1145" y="400" on="1"/>
        <pt x="1150" y="390" on="0"/>
        <pt x="1154" y="368" on="0"/>
        <pt x="1149" y="356" on="1"/>
        <pt x="1129" y="343" on="0"/>
        <pt x="1091" y="316" on="0"/>
        <pt x="1050" y="294" on="0"/>
        <pt x="1002" y="280" on="0"/>
        <pt x="974" y="281" on="1"/>
        <pt x="969" y="281" on="0"/>
        <pt x="962" y="281" on="0"/>
        <pt x="957" y="285" on="1"/>
        <pt x="947" y="280" on="0"/>
        <pt x="914" y="283" on="0"/>
        <pt x="903" y="278" on="1"/>
        <pt x="889" y="283" on="0"/>
        <pt x="852" y="283" on="0"/>
        <pt x="838" y="288" on="1"/>
        <pt x="820" y="262" on="0"/>
        <pt x="788" y="205" on="0"/>
        <pt x="776" y="173" on="1"/>
        <pt x="817" y="167" on="0"/>
        <pt x="871" y="169" on="0"/>
        <pt x="919" y="175" on="0"/>
        <pt x="970" y="181" on="0"/>
        <pt x="1007" y="180" on="1"/>
        <pt x="1032" y="192" on="0"/>
        <pt x="1097" y="201" on="0"/>
        <pt x="1125" y="210" on="1"/>
        <pt x="1135" y="207" on="0"/>
        <pt x="1149" y="190" on="0"/>
        <pt x="1162" y="173" on="0"/>
        <pt x="1176" y="161" on="0"/>
        <pt x="1187" y="163" on="1"/>
        <pt x="1192" y="158" on="0"/>
        <pt x="1195" y="144" on="0"/>
        <pt x="1198" y="132" on="0"/>
        <pt x="1204" y="125" on="0"/>
        <pt x="1212" y="126" on="1"/>
        <pt x="1193" y="87" on="0"/>
        <pt x="1146" y="45" on="0"/>
        <pt x="1087" y="22" on="0"/>
        <pt x="1014" y="11" on="0"/>
        <pt x="969" y="3" on="1"/>
        <pt x="958" y="1" on="0"/>
        <pt x="943" y="6" on="0"/>
        <pt x="935" y="6" on="1"/>
        <pt x="907" y="1" on="0"/>
        <pt x="830" y="-9" on="0"/>
        <pt x="752" y="-7" on="0"/>
        <pt x="680" y="11" on="0"/>
        <pt x="656" y="34" on="1"/>
        <pt x="648" y="42" on="0"/>
        <pt x="641" y="64" on="0"/>
        <pt x="628" y="71" on="1"/>
        <pt x="628" y="76" on="0"/>
        <pt x="627" y="85" on="0"/>
        <pt x="626" y="90" on="1"/>
        <pt x="617" y="85" on="0"/>
        <pt x="601" y="74" on="0"/>
        <pt x="594" y="68" on="1"/>
        <pt x="580" y="60" on="0"/>
        <pt x="548" y="53" on="0"/>
        <pt x="531" y="49" on="1"/>
        <pt x="518" y="41" on="0"/>
        <pt x="482" y="26" on="0"/>
        <pt x="444" y="14" on="0"/>
        <pt x="406" y="7" on="0"/>
        <pt x="391" y="9" on="1"/>
        <pt x="355" y="-4" on="0"/>
        <pt x="287" y="-14" on="0"/>
      </contour>
      <contour>
        <pt x="254" y="360" on="1"/>
        <pt x="244" y="337" on="0"/>
        <pt x="217" y="300" on="0"/>
        <pt x="191" y="262" on="0"/>
        <pt x="172" y="219" on="0"/>
        <pt x="171" y="190" on="1"/>
        <pt x="191" y="173" on="0"/>
        <pt x="246" y="166" on="0"/>
        <pt x="304" y="171" on="0"/>
        <pt x="362" y="181" on="0"/>
        <pt x="385" y="181" on="1"/>
        <pt x="385" y="190" on="0"/>
        <pt x="393" y="190" on="1"/>
        <pt x="435" y="194" on="0"/>
        <pt x="507" y="233" on="0"/>
        <pt x="546" y="253" on="1"/>
        <pt x="551" y="265" on="0"/>
        <pt x="567" y="283" on="0"/>
        <pt x="568" y="300" on="1"/>
        <pt x="563" y="309" on="0"/>
        <pt x="560" y="321" on="0"/>
        <pt x="560" y="333" on="1"/>
        <pt x="534" y="369" on="0"/>
        <pt x="496" y="454" on="0"/>
        <pt x="471" y="492" on="1"/>
        <pt x="469" y="487" on="0"/>
        <pt x="457" y="477" on="0"/>
        <pt x="450" y="484" on="1"/>
        <pt x="447" y="474" on="0"/>
        <pt x="435" y="467" on="0"/>
        <pt x="420" y="467" on="0"/>
        <pt x="405" y="473" on="0"/>
        <pt x="399" y="478" on="1"/>
        <pt x="364" y="450" on="0"/>
        <pt x="295" y="398" on="0"/>
        <pt x="267" y="363" on="1"/>
        <pt x="262" y="360" on="0"/>
        <pt x="260" y="362" on="0"/>
      </contour>
    </TTGlyph>
    <TTGlyph name="Oacute" xMin="5" yMin="-14" xMax="727" yMax="1095">
      <component glyphName="O" x="0" y="0" flags="0x204"/>
      <component glyphName="acute" x="10" y="328" flags="0x4"/>
    </TTGlyph>
    <TTGlyph name="Ocircumflex" xMin="5" yMin="-14" xMax="727" yMax="1050">
      <component glyphName="O" x="0" y="0" flags="0x204"/>
      <component glyphName="circumflex" x="51" y="256" flags="0x4"/>
    </TTGlyph>
    <TTGlyph name="Odieresis" xMin="5" yMin="-14" xMax="727" yMax="980">
      <component glyphName="O" x="0" y="0" flags="0x204"/>
      <component glyphName="dieresis" x="51" y="225" flags="0x4"/>
    </TTGlyph>
    <TTGlyph name="Ograve" xMin="5" yMin="-14" xMax="727" yMax="1084">
      <component glyphName="O" x="0" y="0" flags="0x204"/>
      <component glyphName="grave" x="82" y="317" flags="0x4"/>
    </TTGlyph>
    <TTGlyph name="Oslash" xMin="5" yMin="-133" xMax="727" yMax="763">
      <contour>
        <pt x="103" y="26" on="1"/>
        <pt x="72" y="47" on="0"/>
        <pt x="28" y="108" on="0"/>
        <pt x="14" y="143" on="1"/>
        <pt x="5" y="211" on="0"/>
        <pt x="33" y="322" on="0"/>
        <pt x="87" y="416" on="0"/>
        <pt x="156" y="498" on="0"/>
        <pt x="188" y="536" on="1"/>
        <pt x="195" y="533" on="0"/>
        <pt x="204" y="539" on="0"/>
        <pt x="211" y="549" on="0"/>
        <pt x="220" y="559" on="0"/>
        <pt x="226" y="561" on="1"/>
        <pt x="230" y="570" on="0"/>
        <pt x="243" y="582" on="0"/>
        <pt x="258" y="593" on="0"/>
        <pt x="271" y="605" on="0"/>
        <pt x="276" y="614" on="1"/>
        <pt x="286" y="616" on="0"/>
        <pt x="301" y="626" on="0"/>
        <pt x="314" y="638" on="0"/>
        <pt x="328" y="648" on="0"/>
        <pt x="338" y="651" on="1"/>
        <pt x="338" y="664" on="1"/>
        <pt x="360" y="674" on="0"/>
        <pt x="380" y="698" on="0"/>
        <pt x="394" y="717" on="1"/>
        <pt x="405" y="718" on="0"/>
        <pt x="418" y="718" on="0"/>
        <pt x="432" y="720" on="1"/>
        <pt x="441" y="737" on="0"/>
        <pt x="457" y="753" on="0"/>
        <pt x="472" y="763" on="1"/>
        <pt x="487" y="755" on="0"/>
        <pt x="521" y="752" on="0"/>
        <pt x="535" y="738" on="1"/>
        <pt x="536" y="726" on="0"/>
        <pt x="548" y="713" on="0"/>
        <pt x="562" y="702" on="0"/>
        <pt x="576" y="690" on="0"/>
        <pt x="578" y="679" on="1"/>
        <pt x="583" y="679" on="0"/>
        <pt x="586" y="683" on="0"/>
        <pt x="591" y="682" on="1"/>
        <pt x="617" y="712" on="0"/>
        <pt x="672" y="756" on="0"/>
        <pt x="700" y="753" on="1"/>
        <pt x="719" y="709" on="0"/>
        <pt x="722" y="625" on="0"/>
        <pt x="711" y="571" on="1"/>
        <pt x="700" y="558" on="0"/>
        <pt x="660" y="513" on="0"/>
        <pt x="636" y="485" on="1"/>
        <pt x="650" y="455" on="0"/>
        <pt x="680" y="395" on="0"/>
        <pt x="697" y="367" on="1"/>
        <pt x="695" y="353" on="0"/>
        <pt x="702" y="326" on="0"/>
        <pt x="713" y="300" on="0"/>
        <pt x="723" y="274" on="0"/>
        <pt x="725" y="261" on="1"/>
        <pt x="727" y="244" on="0"/>
        <pt x="723" y="205" on="0"/>
        <pt x="711" y="169" on="0"/>
        <pt x="691" y="138" on="0"/>
        <pt x="678" y="130" on="1"/>
        <pt x="662" y="110" on="0"/>
        <pt x="614" y="85" on="0"/>
        <pt x="594" y="68" on="1"/>
        <pt x="580" y="60" on="0"/>
        <pt x="548" y="53" on="0"/>
        <pt x="531" y="49" on="1"/>
        <pt x="518" y="41" on="0"/>
        <pt x="482" y="26" on="0"/>
        <pt x="444" y="14" on="0"/>
        <pt x="406" y="7" on="0"/>
        <pt x="391" y="9" on="1"/>
        <pt x="359" y="-2" on="0"/>
        <pt x="299" y="-13" on="0"/>
        <pt x="261" y="-7" on="1"/>
        <pt x="259" y="-22" on="0"/>
        <pt x="268" y="-50" on="0"/>
        <pt x="266" y="-66" on="1"/>
        <pt x="258" y="-74" on="0"/>
        <pt x="247" y="-92" on="0"/>
        <pt x="235" y="-110" on="0"/>
        <pt x="220" y="-127" on="0"/>
        <pt x="208" y="-133" on="1"/>
        <pt x="184" y="-131" on="0"/>
        <pt x="152" y="-122" on="0"/>
        <pt x="131" y="-118" on="1"/>
        <pt x="116" y="-105" on="0"/>
        <pt x="100" y="-71" on="0"/>
        <pt x="96" y="-32" on="0"/>
        <pt x="99" y="8" on="0"/>
      </contour>
      <contour>
        <pt x="560" y="333" on="1"/>
        <pt x="553" y="341" on="0"/>
        <pt x="542" y="360" on="0"/>
        <pt x="536" y="370" on="1"/>
        <pt x="513" y="343" on="0"/>
        <pt x="479" y="298" on="0"/>
        <pt x="473" y="285" on="1"/>
        <pt x="458" y="269" on="0"/>
        <pt x="414" y="218" on="0"/>
        <pt x="389" y="189" on="1"/>
        <pt x="435" y="194" on="0"/>
        <pt x="507" y="233" on="0"/>
        <pt x="546" y="253" on="1"/>
        <pt x="551" y="265" on="0"/>
        <pt x="567" y="283" on="0"/>
        <pt x="568" y="300" on="1"/>
        <pt x="563" y="309" on="0"/>
        <pt x="560" y="321" on="0"/>
      </contour>
      <contour>
        <pt x="254" y="360" on="1"/>
        <pt x="244" y="337" on="0"/>
        <pt x="217" y="300" on="0"/>
        <pt x="191" y="262" on="0"/>
        <pt x="172" y="219" on="0"/>
        <pt x="171" y="190" on="1"/>
        <pt x="175" y="187" on="0"/>
        <pt x="182" y="182" on="0"/>
        <pt x="186" y="180" on="1"/>
        <pt x="203" y="199" on="0"/>
        <pt x="243" y="242" on="0"/>
        <pt x="281" y="283" on="0"/>
        <pt x="313" y="319" on="0"/>
        <pt x="323" y="331" on="1"/>
        <pt x="327" y="343" on="0"/>
        <pt x="349" y="374" on="0"/>
        <pt x="379" y="410" on="0"/>
        <pt x="414" y="448" on="0"/>
        <pt x="430" y="467" on="1"/>
        <pt x="422" y="466" on="0"/>
        <pt x="406" y="473" on="0"/>
        <pt x="399" y="478" on="1"/>
        <pt x="364" y="450" on="0"/>
        <pt x="295" y="398" on="0"/>
        <pt x="267" y="363" on="1"/>
        <pt x="262" y="360" on="0"/>
        <pt x="260" y="362" on="0"/>
      </contour>
    </TTGlyph>
    <TTGlyph name="Otilde" xMin="5" yMin="-14" xMax="768" yMax="1001">
      <component glyphName="O" x="0" y="0" flags="0x204"/>
      <component glyphName="tilde" x="72" y="236" flags="0x4"/>
    </TTGlyph>
    <TTGlyph name="P" xMin="36" yMin="-16" xMax="686" yMax="750">
      <contour>
        <pt x="45" y="282" on="1"/>
        <pt x="46" y="286" on="0"/>
        <pt x="53" y="285" on="0"/>
        <pt x="56" y="286" on="1"/>
        <pt x="48" y="294" on="0"/>
        <pt x="44" y="321" on="0"/>
        <pt x="36" y="330" on="1"/>
        <pt x="38" y="335" on="0"/>
        <pt x="41" y="345" on="0"/>
        <pt x="48" y="344" on="1"/>
        <pt x="45" y="366" on="0"/>
        <pt x="53" y="404" on="0"/>
        <pt x="70" y="438" on="0"/>
        <pt x="93" y="471" on="0"/>
        <pt x="104" y="488" on="1"/>
        <pt x="113" y="490" on="0"/>
        <pt x="117" y="483" on="0"/>
        <pt x="122" y="488" on="1"/>
        <pt x="138" y="499" on="0"/>
        <pt x="150" y="526" on="0"/>
        <pt x="150" y="542" on="1"/>
        <pt x="159" y="568" on="0"/>
        <pt x="182" y="619" on="0"/>
        <pt x="212" y="663" on="0"/>
        <pt x="246" y="696" on="0"/>
        <pt x="266" y="705" on="1"/>
        <pt x="280" y="717" on="0"/>
        <pt x="323" y="737" on="0"/>
        <pt x="372" y="748" on="0"/>
        <pt x="424" y="749" on="0"/>
        <pt x="446" y="743" on="1"/>
        <pt x="451" y="741" on="0"/>
        <pt x="453" y="750" on="0"/>
        <pt x="457" y="750" on="1"/>
        <pt x="507" y="744" on="0"/>
        <pt x="586" y="716" on="0"/>
        <pt x="614" y="691" on="1"/>
        <pt x="633" y="661" on="0"/>
        <pt x="667" y="592" on="0"/>
        <pt x="686" y="517" on="0"/>
        <pt x="684" y="437" on="0"/>
        <pt x="668" y="397" on="1"/>
        <pt x="633" y="353" on="0"/>
        <pt x="533" y="300" on="0"/>
        <pt x="418" y="265" on="0"/>
        <pt x="295" y="243" on="0"/>
        <pt x="237" y="230" on="1"/>
        <pt x="238" y="203" on="0"/>
        <pt x="236" y="142" on="0"/>
        <pt x="225" y="81" on="0"/>
        <pt x="204" y="23" on="0"/>
        <pt x="186" y="-2" on="1"/>
        <pt x="166" y="-1" on="0"/>
        <pt x="123" y="-11" on="0"/>
        <pt x="106" y="-16" on="1"/>
        <pt x="98" y="-11" on="0"/>
        <pt x="83" y="-2" on="0"/>
        <pt x="72" y="-1" on="1"/>
        <pt x="75" y="11" on="0"/>
        <pt x="58" y="37" on="0"/>
        <pt x="41" y="62" on="0"/>
        <pt x="36" y="87" on="0"/>
        <pt x="50" y="97" on="1"/>
        <pt x="42" y="104" on="0"/>
        <pt x="42" y="119" on="1"/>
        <pt x="46" y="115" on="0"/>
        <pt x="52" y="115" on="1"/>
        <pt x="50" y="133" on="0"/>
        <pt x="63" y="183" on="0"/>
        <pt x="72" y="232" on="0"/>
        <pt x="66" y="273" on="0"/>
      </contour>
      <contour>
        <pt x="305" y="516" on="1"/>
        <pt x="301" y="505" on="0"/>
        <pt x="296" y="488" on="0"/>
        <pt x="290" y="474" on="0"/>
        <pt x="283" y="460" on="0"/>
        <pt x="279" y="451" on="1"/>
        <pt x="281" y="445" on="0"/>
        <pt x="293" y="439" on="0"/>
        <pt x="295" y="433" on="1"/>
        <pt x="309" y="440" on="0"/>
        <pt x="337" y="447" on="0"/>
        <pt x="365" y="451" on="0"/>
        <pt x="393" y="457" on="0"/>
        <pt x="408" y="464" on="1"/>
        <pt x="423" y="471" on="0"/>
        <pt x="456" y="480" on="0"/>
        <pt x="488" y="490" on="0"/>
        <pt x="518" y="503" on="0"/>
        <pt x="529" y="514" on="1"/>
        <pt x="515" y="527" on="0"/>
        <pt x="459" y="547" on="0"/>
        <pt x="394" y="552" on="0"/>
        <pt x="329" y="538" on="0"/>
      </contour>
    </TTGlyph>
    <TTGlyph name="Q" xMin="-5" yMin="-65" xMax="738" yMax="750">
      <contour>
        <pt x="15" y="87" on="1"/>
        <pt x="15" y="103" on="0"/>
        <pt x="10" y="128" on="0"/>
        <pt x="5" y="150" on="0"/>
        <pt x="3" y="174" on="0"/>
        <pt x="7" y="190" on="1"/>
        <pt x="4" y="199" on="0"/>
        <pt x="-2" y="216" on="0"/>
        <pt x="-5" y="225" on="1"/>
        <pt x="-3" y="270" on="0"/>
        <pt x="29" y="343" on="0"/>
        <pt x="75" y="404" on="0"/>
        <pt x="129" y="455" on="0"/>
        <pt x="154" y="479" on="1"/>
        <pt x="159" y="474" on="0"/>
        <pt x="164" y="481" on="0"/>
        <pt x="173" y="479" on="1"/>
        <pt x="174" y="485" on="0"/>
        <pt x="184" y="503" on="0"/>
        <pt x="199" y="518" on="0"/>
        <pt x="217" y="528" on="0"/>
        <pt x="225" y="527" on="1"/>
        <pt x="235" y="546" on="0"/>
        <pt x="276" y="575" on="0"/>
        <pt x="318" y="603" on="0"/>
        <pt x="352" y="637" on="0"/>
        <pt x="356" y="662" on="1"/>
        <pt x="376" y="662" on="1"/>
        <pt x="364" y="680" on="0"/>
        <pt x="366" y="719" on="0"/>
        <pt x="389" y="744" on="0"/>
        <pt x="429" y="750" on="0"/>
        <pt x="455" y="737" on="1"/>
        <pt x="466" y="735" on="0"/>
        <pt x="474" y="747" on="0"/>
        <pt x="483" y="749" on="1"/>
        <pt x="529" y="729" on="0"/>
        <pt x="601" y="671" on="0"/>
        <pt x="630" y="634" on="1"/>
        <pt x="628" y="631" on="0"/>
        <pt x="623" y="628" on="0"/>
        <pt x="619" y="625" on="0"/>
        <pt x="618" y="621" on="0"/>
        <pt x="622" y="618" on="1"/>
        <pt x="656" y="575" on="0"/>
        <pt x="710" y="478" on="0"/>
        <pt x="733" y="424" on="1"/>
        <pt x="738" y="383" on="0"/>
        <pt x="734" y="302" on="0"/>
        <pt x="725" y="257" on="1"/>
        <pt x="717" y="240" on="0"/>
        <pt x="696" y="211" on="0"/>
        <pt x="672" y="184" on="0"/>
        <pt x="648" y="157" on="0"/>
        <pt x="638" y="142" on="1"/>
        <pt x="655" y="102" on="1"/>
        <pt x="654" y="94" on="0"/>
        <pt x="662" y="75" on="0"/>
        <pt x="670" y="56" on="0"/>
        <pt x="675" y="38" on="0"/>
        <pt x="672" y="32" on="1"/>
        <pt x="675" y="26" on="0"/>
        <pt x="685" y="28" on="1"/>
        <pt x="681" y="26" on="0"/>
        <pt x="678" y="14" on="0"/>
        <pt x="689" y="16" on="1"/>
        <pt x="687" y="5" on="0"/>
        <pt x="673" y="-23" on="0"/>
        <pt x="651" y="-48" on="0"/>
        <pt x="620" y="-65" on="0"/>
        <pt x="601" y="-65" on="1"/>
        <pt x="581" y="-55" on="0"/>
        <pt x="558" y="-35" on="0"/>
        <pt x="542" y="-21" on="1"/>
        <pt x="505" y="66" on="1"/>
        <pt x="432" y="33" on="0"/>
        <pt x="266" y="-8" on="0"/>
        <pt x="173" y="-13" on="1"/>
        <pt x="123" y="1" on="0"/>
        <pt x="41" y="49" on="0"/>
      </contour>
      <contour>
        <pt x="272" y="351" on="1"/>
        <pt x="228" y="315" on="0"/>
        <pt x="157" y="219" on="0"/>
        <pt x="135" y="162" on="1"/>
        <pt x="144" y="157" on="0"/>
        <pt x="170" y="155" on="0"/>
        <pt x="181" y="152" on="1"/>
        <pt x="238" y="168" on="0"/>
        <pt x="359" y="197" on="0"/>
        <pt x="415" y="219" on="1"/>
        <pt x="392" y="247" on="0"/>
        <pt x="351" y="299" on="0"/>
        <pt x="339" y="325" on="1"/>
        <pt x="342" y="331" on="0"/>
        <pt x="347" y="347" on="0"/>
        <pt x="355" y="363" on="0"/>
        <pt x="369" y="375" on="0"/>
        <pt x="381" y="375" on="1"/>
        <pt x="399" y="368" on="0"/>
        <pt x="448" y="366" on="0"/>
        <pt x="468" y="362" on="1"/>
        <pt x="488" y="348" on="0"/>
        <pt x="518" y="307" on="0"/>
        <pt x="533" y="287" on="1"/>
        <pt x="555" y="307" on="0"/>
        <pt x="587" y="356" on="0"/>
        <pt x="595" y="387" on="1"/>
        <pt x="589" y="403" on="0"/>
        <pt x="571" y="443" on="0"/>
        <pt x="548" y="481" on="0"/>
        <pt x="519" y="511" on="0"/>
        <pt x="502" y="516" on="1"/>
        <pt x="494" y="518" on="0"/>
        <pt x="489" y="509" on="0"/>
        <pt x="479" y="512" on="1"/>
        <pt x="425" y="473" on="0"/>
        <pt x="317" y="398" on="0"/>
      </contour>
    </TTGlyph>
    <TTGlyph name="R" xMin="10" yMin="-43" xMax="668" yMax="750">
      <contour>
        <pt x="28" y="86" on="1"/>
        <pt x="23" y="85" on="0"/>
        <pt x="15" y="102" on="0"/>
        <pt x="10" y="110" on="1"/>
        <pt x="21" y="110" on="1"/>
        <pt x="14" y="132" on="0"/>
        <pt x="21" y="169" on="0"/>
        <pt x="31" y="204" on="0"/>
        <pt x="38" y="237" on="0"/>
        <pt x="31" y="255" on="1"/>
        <pt x="36" y="252" on="0"/>
        <pt x="41" y="263" on="0"/>
        <pt x="44" y="280" on="0"/>
        <pt x="43" y="299" on="0"/>
        <pt x="42" y="305" on="1"/>
        <pt x="55" y="336" on="0"/>
        <pt x="70" y="402" on="0"/>
        <pt x="82" y="467" on="0"/>
        <pt x="97" y="528" on="0"/>
        <pt x="109" y="555" on="1"/>
        <pt x="123" y="557" on="0"/>
        <pt x="154" y="546" on="0"/>
        <pt x="159" y="538" on="1"/>
        <pt x="190" y="562" on="0"/>
        <pt x="238" y="630" on="0"/>
        <pt x="287" y="695" on="0"/>
        <pt x="349" y="745" on="0"/>
        <pt x="395" y="750" on="1"/>
        <pt x="419" y="733" on="0"/>
        <pt x="479" y="694" on="0"/>
        <pt x="498" y="665" on="1"/>
        <pt x="506" y="660" on="0"/>
        <pt x="521" y="649" on="0"/>
        <pt x="529" y="644" on="1"/>
        <pt x="529" y="629" on="1"/>
        <pt x="543" y="616" on="0"/>
        <pt x="562" y="581" on="0"/>
        <pt x="577" y="542" on="0"/>
        <pt x="591" y="502" on="0"/>
        <pt x="600" y="485" on="1"/>
        <pt x="598" y="479" on="0"/>
        <pt x="599" y="470" on="0"/>
        <pt x="602" y="461" on="0"/>
        <pt x="604" y="450" on="0"/>
        <pt x="604" y="442" on="1"/>
        <pt x="600" y="389" on="0"/>
        <pt x="539" y="324" on="0"/>
        <pt x="452" y="283" on="0"/>
        <pt x="354" y="254" on="0"/>
        <pt x="314" y="237" on="1"/>
        <pt x="314" y="233" on="0"/>
        <pt x="323" y="233" on="0"/>
        <pt x="321" y="227" on="1"/>
        <pt x="351" y="209" on="0"/>
        <pt x="384" y="187" on="0"/>
        <pt x="413" y="172" on="0"/>
        <pt x="448" y="162" on="0"/>
        <pt x="479" y="155" on="1"/>
        <pt x="510" y="148" on="0"/>
        <pt x="545" y="139" on="0"/>
        <pt x="573" y="134" on="0"/>
        <pt x="605" y="130" on="0"/>
        <pt x="632" y="127" on="1"/>
        <pt x="643" y="116" on="0"/>
        <pt x="657" y="86" on="0"/>
        <pt x="663" y="56" on="0"/>
        <pt x="660" y="29" on="0"/>
        <pt x="653" y="21" on="1"/>
        <pt x="654" y="17" on="0"/>
        <pt x="663" y="18" on="0"/>
        <pt x="668" y="17" on="1"/>
        <pt x="661" y="12" on="0"/>
        <pt x="651" y="-2" on="0"/>
        <pt x="641" y="-16" on="0"/>
        <pt x="628" y="-28" on="0"/>
        <pt x="618" y="-29" on="1"/>
        <pt x="582" y="-43" on="0"/>
        <pt x="470" y="-17" on="0"/>
        <pt x="383" y="16" on="1"/>
        <pt x="340" y="32" on="0"/>
        <pt x="286" y="58" on="0"/>
        <pt x="246" y="83" on="0"/>
        <pt x="212" y="112" on="0"/>
        <pt x="190" y="132" on="1"/>
        <pt x="187" y="131" on="0"/>
        <pt x="186" y="125" on="0"/>
        <pt x="183" y="124" on="1"/>
        <pt x="178" y="84" on="0"/>
        <pt x="157" y="34" on="0"/>
        <pt x="137" y="8" on="1"/>
        <pt x="121" y="11" on="0"/>
        <pt x="110" y="-1" on="0"/>
        <pt x="102" y="-6" on="1"/>
        <pt x="92" y="-8" on="0"/>
        <pt x="82" y="-3" on="0"/>
        <pt x="74" y="3" on="0"/>
        <pt x="64" y="9" on="0"/>
        <pt x="53" y="8" on="1"/>
        <pt x="50" y="17" on="0"/>
        <pt x="44" y="34" on="0"/>
        <pt x="31" y="33" on="1"/>
        <pt x="34" y="42" on="0"/>
        <pt x="32" y="55" on="0"/>
        <pt x="28" y="66" on="0"/>
        <pt x="25" y="78" on="0"/>
      </contour>
      <contour>
        <pt x="362" y="543" on="1"/>
        <pt x="349" y="524" on="0"/>
        <pt x="317" y="493" on="0"/>
        <pt x="286" y="460" on="0"/>
        <pt x="262" y="421" on="0"/>
        <pt x="257" y="394" on="1"/>
        <pt x="299" y="399" on="0"/>
        <pt x="391" y="436" on="0"/>
        <pt x="432" y="453" on="1"/>
        <pt x="427" y="490" on="0"/>
        <pt x="385" y="535" on="0"/>
      </contour>
    </TTGlyph>
    <TTGlyph name="S" xMin="10" yMin="-12" xMax="706" yMax="750">
      <contour>
        <pt x="13" y="451" on="1"/>
        <pt x="16" y="466" on="0"/>
        <pt x="18" y="485" on="0"/>
        <pt x="10" y="496" on="1"/>
        <pt x="14" y="512" on="0"/>
        <pt x="19" y="530" on="0"/>
        <pt x="17" y="546" on="1"/>
        <pt x="26" y="572" on="0"/>
        <pt x="63" y="608" on="0"/>
        <pt x="107" y="633" on="0"/>
        <pt x="155" y="650" on="0"/>
        <pt x="176" y="656" on="1"/>
        <pt x="176" y="660" on="0"/>
        <pt x="168" y="660" on="0"/>
        <pt x="170" y="665" on="1"/>
        <pt x="224" y="675" on="0"/>
        <pt x="333" y="713" on="0"/>
        <pt x="447" y="743" on="0"/>
        <pt x="567" y="750" on="0"/>
        <pt x="633" y="731" on="1"/>
        <pt x="637" y="719" on="0"/>
        <pt x="651" y="697" on="0"/>
        <pt x="666" y="676" on="0"/>
        <pt x="678" y="656" on="0"/>
        <pt x="679" y="645" on="1"/>
        <pt x="691" y="634" on="0"/>
        <pt x="706" y="609" on="0"/>
        <pt x="701" y="588" on="1"/>
        <pt x="690" y="580" on="0"/>
        <pt x="666" y="564" on="0"/>
        <pt x="653" y="557" on="1"/>
        <pt x="608" y="568" on="0"/>
        <pt x="518" y="562" on="0"/>
        <pt x="482" y="558" on="1"/>
        <pt x="471" y="570" on="0"/>
        <pt x="441" y="569" on="0"/>
        <pt x="408" y="560" on="0"/>
        <pt x="376" y="551" on="0"/>
        <pt x="362" y="553" on="1"/>
        <pt x="351" y="543" on="0"/>
        <pt x="315" y="536" on="0"/>
        <pt x="295" y="534" on="1"/>
        <pt x="294" y="529" on="0"/>
        <pt x="300" y="525" on="0"/>
        <pt x="298" y="519" on="1"/>
        <pt x="305" y="510" on="0"/>
        <pt x="329" y="503" on="0"/>
        <pt x="354" y="497" on="0"/>
        <pt x="374" y="486" on="0"/>
        <pt x="377" y="474" on="1"/>
        <pt x="395" y="473" on="0"/>
        <pt x="421" y="456" on="0"/>
        <pt x="439" y="432" on="0"/>
        <pt x="447" y="405" on="0"/>
        <pt x="446" y="394" on="1"/>
        <pt x="450" y="384" on="0"/>
        <pt x="459" y="388" on="0"/>
        <pt x="465" y="381" on="1"/>
        <pt x="469" y="366" on="0"/>
        <pt x="498" y="333" on="0"/>
        <pt x="506" y="314" on="1"/>
        <pt x="508" y="284" on="0"/>
        <pt x="511" y="236" on="0"/>
        <pt x="501" y="213" on="1"/>
        <pt x="484" y="169" on="0"/>
        <pt x="420" y="99" on="0"/>
        <pt x="339" y="46" on="0"/>
        <pt x="249" y="7" on="0"/>
        <pt x="205" y="-6" on="1"/>
        <pt x="201" y="-5" on="0"/>
        <pt x="190" y="-7" on="0"/>
        <pt x="193" y="0" on="1"/>
        <pt x="184" y="-8" on="0"/>
        <pt x="161" y="-12" on="0"/>
        <pt x="134" y="-11" on="0"/>
        <pt x="107" y="-9" on="0"/>
        <pt x="94" y="-11" on="1"/>
        <pt x="86" y="-3" on="0"/>
        <pt x="73" y="13" on="0"/>
        <pt x="69" y="24" on="1"/>
        <pt x="64" y="25" on="0"/>
        <pt x="65" y="36" on="0"/>
        <pt x="60" y="36" on="1"/>
        <pt x="60" y="40" on="0"/>
        <pt x="62" y="44" on="0"/>
        <pt x="63" y="46" on="1"/>
        <pt x="67" y="49" on="0"/>
        <pt x="66" y="52" on="0"/>
        <pt x="61" y="55" on="0"/>
        <pt x="56" y="59" on="0"/>
        <pt x="57" y="62" on="1"/>
        <pt x="62" y="71" on="0"/>
        <pt x="59" y="96" on="0"/>
        <pt x="57" y="122" on="0"/>
        <pt x="63" y="145" on="0"/>
        <pt x="77" y="153" on="1"/>
        <pt x="118" y="149" on="0"/>
        <pt x="191" y="165" on="0"/>
        <pt x="256" y="193" on="0"/>
        <pt x="315" y="226" on="0"/>
        <pt x="343" y="240" on="1"/>
        <pt x="346" y="250" on="0"/>
        <pt x="359" y="264" on="0"/>
        <pt x="373" y="277" on="0"/>
        <pt x="385" y="292" on="0"/>
        <pt x="388" y="303" on="1"/>
        <pt x="389" y="307" on="0"/>
        <pt x="387" y="311" on="0"/>
        <pt x="383" y="314" on="0"/>
        <pt x="379" y="318" on="0"/>
        <pt x="379" y="322" on="1"/>
        <pt x="376" y="323" on="0"/>
        <pt x="371" y="325" on="0"/>
        <pt x="369" y="325" on="1"/>
        <pt x="343" y="338" on="0"/>
        <pt x="285" y="356" on="0"/>
        <pt x="265" y="367" on="1"/>
        <pt x="253" y="359" on="0"/>
        <pt x="229" y="367" on="0"/>
        <pt x="212" y="371" on="1"/>
        <pt x="170" y="373" on="0"/>
        <pt x="95" y="385" on="0"/>
        <pt x="60" y="400" on="1"/>
        <pt x="58" y="406" on="0"/>
        <pt x="52" y="415" on="0"/>
        <pt x="41" y="413" on="1"/>
        <pt x="34" y="423" on="0"/>
        <pt x="19" y="440" on="0"/>
      </contour>
    </TTGlyph>
    <TTGlyph name="Scaron" xMin="10" yMin="-12" xMax="706" yMax="1091">
      <component glyphName="S" x="0" y="0" flags="0x204"/>
      <component glyphName="caron" x="-19" y="297" flags="0x4"/>
    </TTGlyph>
    <TTGlyph name="T" xMin="0" yMin="-21" xMax="800" yMax="747">
      <contour>
        <pt x="22" y="564" on="1"/>
        <pt x="21" y="572" on="0"/>
        <pt x="16" y="585" on="0"/>
        <pt x="13" y="593" on="1"/>
        <pt x="8" y="605" on="0"/>
        <pt x="0" y="633" on="0"/>
        <pt x="0" y="652" on="1"/>
        <pt x="2" y="662" on="0"/>
        <pt x="8" y="671" on="0"/>
        <pt x="11" y="674" on="1"/>
        <pt x="15" y="692" on="1"/>
        <pt x="30" y="692" on="1"/>
        <pt x="38" y="691" on="0"/>
        <pt x="55" y="691" on="0"/>
        <pt x="63" y="691" on="1"/>
        <pt x="101" y="691" on="0"/>
        <pt x="181" y="697" on="0"/>
        <pt x="223" y="701" on="1"/>
        <pt x="269" y="707" on="0"/>
        <pt x="322" y="710" on="1"/>
        <pt x="327" y="721" on="0"/>
        <pt x="330" y="727" on="0"/>
        <pt x="332" y="731" on="1"/>
        <pt x="343" y="737" on="1"/>
        <pt x="366" y="738" on="0"/>
        <pt x="384" y="725" on="0"/>
        <pt x="389" y="719" on="1"/>
        <pt x="415" y="721" on="0"/>
        <pt x="469" y="728" on="0"/>
        <pt x="498" y="732" on="1"/>
        <pt x="538" y="737" on="0"/>
        <pt x="620" y="747" on="0"/>
        <pt x="659" y="747" on="1"/>
        <pt x="676" y="747" on="0"/>
        <pt x="706" y="745" on="0"/>
        <pt x="720" y="743" on="1"/>
        <pt x="732" y="734" on="1"/>
        <pt x="736" y="727" on="0"/>
        <pt x="748" y="715" on="0"/>
        <pt x="756" y="709" on="1"/>
        <pt x="771" y="697" on="0"/>
        <pt x="800" y="661" on="0"/>
        <pt x="796" y="626" on="1"/>
        <pt x="791" y="616" on="1"/>
        <pt x="787" y="612" on="0"/>
        <pt x="781" y="608" on="1"/>
        <pt x="771" y="595" on="1"/>
        <pt x="760" y="595" on="1"/>
        <pt x="750" y="595" on="0"/>
        <pt x="740" y="592" on="0"/>
        <pt x="733" y="589" on="1"/>
        <pt x="729" y="587" on="0"/>
        <pt x="719" y="584" on="0"/>
        <pt x="713" y="582" on="1"/>
        <pt x="702" y="583" on="0"/>
        <pt x="690" y="583" on="0"/>
        <pt x="682" y="583" on="1"/>
        <pt x="652" y="583" on="0"/>
        <pt x="582" y="575" on="0"/>
        <pt x="549" y="570" on="1"/>
        <pt x="525" y="567" on="0"/>
        <pt x="481" y="562" on="0"/>
        <pt x="463" y="560" on="1"/>
        <pt x="453" y="534" on="0"/>
        <pt x="437" y="494" on="0"/>
        <pt x="428" y="474" on="1"/>
        <pt x="419" y="454" on="0"/>
        <pt x="403" y="413" on="0"/>
        <pt x="396" y="388" on="1"/>
        <pt x="384" y="370" on="0"/>
        <pt x="368" y="337" on="0"/>
        <pt x="363" y="316" on="1"/>
        <pt x="348" y="299" on="0"/>
        <pt x="335" y="259" on="0"/>
        <pt x="330" y="245" on="1"/>
        <pt x="326" y="230" on="1"/>
        <pt x="319" y="223" on="0"/>
        <pt x="316" y="215" on="0"/>
        <pt x="312" y="210" on="1"/>
        <pt x="309" y="197" on="0"/>
        <pt x="304" y="185" on="1"/>
        <pt x="302" y="180" on="0"/>
        <pt x="298" y="169" on="0"/>
        <pt x="299" y="166" on="1"/>
        <pt x="297" y="155" on="0"/>
        <pt x="293" y="149" on="1"/>
        <pt x="293" y="143" on="0"/>
        <pt x="291" y="131" on="0"/>
        <pt x="290" y="125" on="1"/>
        <pt x="288" y="118" on="0"/>
        <pt x="286" y="107" on="0"/>
        <pt x="288" y="102" on="1"/>
        <pt x="291" y="98" on="0"/>
        <pt x="297" y="90" on="0"/>
        <pt x="299" y="84" on="1"/>
        <pt x="301" y="82" on="0"/>
        <pt x="307" y="80" on="0"/>
        <pt x="309" y="78" on="1"/>
        <pt x="317" y="71" on="0"/>
        <pt x="324" y="70" on="1"/>
        <pt x="334" y="58" on="1"/>
        <pt x="340" y="22" on="0"/>
        <pt x="323" y="2" on="1"/>
        <pt x="305" y="-21" on="0"/>
        <pt x="263" y="-21" on="1"/>
        <pt x="249" y="-20" on="1"/>
        <pt x="242" y="-13" on="0"/>
        <pt x="241" y="-11" on="1"/>
        <pt x="232" y="-7" on="0"/>
        <pt x="220" y="-2" on="0"/>
        <pt x="215" y="5" on="1"/>
        <pt x="213" y="7" on="0"/>
        <pt x="207" y="8" on="0"/>
        <pt x="205" y="10" on="1"/>
        <pt x="195" y="13" on="0"/>
        <pt x="189" y="17" on="1"/>
        <pt x="178" y="23" on="1"/>
        <pt x="179" y="33" on="0"/>
        <pt x="179" y="37" on="1"/>
        <pt x="171" y="48" on="0"/>
        <pt x="162" y="74" on="0"/>
        <pt x="159" y="88" on="1"/>
        <pt x="156" y="99" on="0"/>
        <pt x="151" y="117" on="0"/>
        <pt x="146" y="124" on="1"/>
        <pt x="144" y="194" on="0"/>
        <pt x="174" y="289" on="0"/>
        <pt x="192" y="334" on="1"/>
        <pt x="202" y="358" on="0"/>
        <pt x="220" y="408" on="0"/>
        <pt x="227" y="434" on="1"/>
        <pt x="238" y="445" on="1"/>
        <pt x="245" y="451" on="0"/>
        <pt x="247" y="452" on="1"/>
        <pt x="247" y="465" on="0"/>
        <pt x="257" y="490" on="0"/>
        <pt x="263" y="503" on="1"/>
        <pt x="267" y="511" on="0"/>
        <pt x="274" y="527" on="0"/>
        <pt x="275" y="533" on="1"/>
        <pt x="268" y="533" on="0"/>
        <pt x="257" y="532" on="0"/>
        <pt x="251" y="531" on="1"/>
        <pt x="238" y="528" on="0"/>
        <pt x="226" y="528" on="1"/>
        <pt x="217" y="528" on="0"/>
        <pt x="213" y="529" on="1"/>
        <pt x="205" y="525" on="0"/>
        <pt x="191" y="524" on="0"/>
        <pt x="184" y="524" on="1"/>
        <pt x="172" y="524" on="1"/>
        <pt x="160" y="524" on="1"/>
        <pt x="148" y="524" on="0"/>
        <pt x="141" y="521" on="1"/>
        <pt x="127" y="521" on="0"/>
        <pt x="119" y="521" on="0"/>
        <pt x="114" y="521" on="1"/>
        <pt x="102" y="521" on="1"/>
        <pt x="90" y="521" on="1"/>
        <pt x="82" y="521" on="0"/>
        <pt x="62" y="524" on="0"/>
        <pt x="51" y="530" on="1"/>
        <pt x="44" y="538" on="1"/>
        <pt x="38" y="549" on="0"/>
        <pt x="33" y="550" on="1"/>
        <pt x="22" y="553" on="1"/>
      </contour>
    </TTGlyph>
    <TTGlyph name="Thorn" xMin="26" yMin="-8" xMax="703" yMax="743">
      <contour>
        <pt x="609" y="551" on="1"/>
        <pt x="637" y="536" on="0"/>
        <pt x="675" y="493" on="0"/>
        <pt x="696" y="444" on="0"/>
        <pt x="703" y="393" on="0"/>
        <pt x="702" y="370" on="1"/>
        <pt x="684" y="335" on="0"/>
        <pt x="618" y="284" on="0"/>
        <pt x="584" y="259" on="1"/>
        <pt x="577" y="259" on="0"/>
        <pt x="573" y="261" on="1"/>
        <pt x="568" y="253" on="0"/>
        <pt x="552" y="243" on="0"/>
        <pt x="534" y="235" on="0"/>
        <pt x="516" y="226" on="0"/>
        <pt x="510" y="220" on="1"/>
        <pt x="485" y="216" on="0"/>
        <pt x="446" y="202" on="0"/>
        <pt x="410" y="185" on="0"/>
        <pt x="372" y="171" on="0"/>
        <pt x="347" y="167" on="1"/>
        <pt x="338" y="160" on="0"/>
        <pt x="312" y="151" on="0"/>
        <pt x="284" y="143" on="0"/>
        <pt x="259" y="134" on="0"/>
        <pt x="251" y="126" on="1"/>
        <pt x="245" y="131" on="0"/>
        <pt x="223" y="128" on="0"/>
        <pt x="214" y="126" on="1"/>
        <pt x="208" y="118" on="0"/>
        <pt x="211" y="100" on="0"/>
        <pt x="212" y="92" on="1"/>
        <pt x="217" y="56" on="0"/>
        <pt x="197" y="14" on="0"/>
        <pt x="160" y="-5" on="0"/>
        <pt x="113" y="-8" on="0"/>
        <pt x="91" y="-5" on="1"/>
        <pt x="79" y="11" on="0"/>
        <pt x="59" y="62" on="0"/>
        <pt x="44" y="116" on="0"/>
        <pt x="31" y="169" on="0"/>
        <pt x="26" y="189" on="1"/>
        <pt x="32" y="204" on="0"/>
        <pt x="35" y="240" on="0"/>
        <pt x="37" y="279" on="0"/>
        <pt x="37" y="319" on="0"/>
        <pt x="40" y="337" on="1"/>
        <pt x="48" y="387" on="0"/>
        <pt x="79" y="479" on="0"/>
        <pt x="90" y="527" on="1"/>
        <pt x="92" y="538" on="0"/>
        <pt x="84" y="557" on="0"/>
        <pt x="86" y="565" on="1"/>
        <pt x="88" y="570" on="0"/>
        <pt x="99" y="574" on="0"/>
        <pt x="101" y="579" on="1"/>
        <pt x="105" y="593" on="0"/>
        <pt x="100" y="610" on="0"/>
        <pt x="107" y="622" on="1"/>
        <pt x="112" y="631" on="0"/>
        <pt x="131" y="669" on="0"/>
        <pt x="129" y="689" on="1"/>
        <pt x="140" y="696" on="0"/>
        <pt x="158" y="715" on="0"/>
        <pt x="178" y="731" on="0"/>
        <pt x="203" y="743" on="0"/>
        <pt x="221" y="743" on="1"/>
        <pt x="230" y="731" on="0"/>
        <pt x="237" y="702" on="0"/>
        <pt x="244" y="673" on="0"/>
        <pt x="255" y="648" on="0"/>
        <pt x="269" y="641" on="1"/>
        <pt x="270" y="633" on="0"/>
        <pt x="269" y="615" on="0"/>
        <pt x="270" y="604" on="1"/>
        <pt x="278" y="605" on="0"/>
        <pt x="295" y="607" on="0"/>
        <pt x="303" y="609" on="1"/>
        <pt x="366" y="607" on="0"/>
        <pt x="498" y="590" on="0"/>
        <pt x="554" y="578" on="1"/>
        <pt x="565" y="570" on="0"/>
        <pt x="590" y="554" on="0"/>
      </contour>
      <contour>
        <pt x="476" y="401" on="1"/>
        <pt x="475" y="410" on="0"/>
        <pt x="484" y="420" on="0"/>
        <pt x="489" y="425" on="1"/>
        <pt x="487" y="435" on="0"/>
        <pt x="476" y="448" on="0"/>
        <pt x="470" y="455" on="1"/>
        <pt x="421" y="462" on="0"/>
        <pt x="315" y="462" on="0"/>
        <pt x="260" y="460" on="1"/>
        <pt x="247" y="414" on="0"/>
        <pt x="226" y="323" on="0"/>
        <pt x="223" y="278" on="1"/>
        <pt x="260" y="287" on="0"/>
        <pt x="326" y="310" on="0"/>
        <pt x="348" y="328" on="1"/>
        <pt x="370" y="334" on="0"/>
        <pt x="405" y="350" on="0"/>
        <pt x="435" y="370" on="0"/>
        <pt x="462" y="391" on="0"/>
      </contour>
    </TTGlyph>
    <TTGlyph name="U" xMin="51" yMin="7" xMax="738" yMax="744">
      <contour>
        <pt x="72" y="495" on="1"/>
        <pt x="70" y="508" on="0"/>
        <pt x="67" y="511" on="1"/>
        <pt x="74" y="529" on="0"/>
        <pt x="81" y="564" on="0"/>
        <pt x="83" y="580" on="1"/>
        <pt x="85" y="594" on="0"/>
        <pt x="90" y="618" on="0"/>
        <pt x="94" y="629" on="1"/>
        <pt x="111" y="633" on="0"/>
        <pt x="128" y="654" on="0"/>
        <pt x="133" y="662" on="1"/>
        <pt x="151" y="663" on="0"/>
        <pt x="162" y="651" on="0"/>
        <pt x="169" y="637" on="1"/>
        <pt x="174" y="626" on="0"/>
        <pt x="192" y="601" on="0"/>
        <pt x="210" y="594" on="1"/>
        <pt x="213" y="583" on="0"/>
        <pt x="221" y="563" on="0"/>
        <pt x="226" y="552" on="1"/>
        <pt x="235" y="531" on="0"/>
        <pt x="251" y="486" on="0"/>
        <pt x="252" y="466" on="1"/>
        <pt x="240" y="443" on="0"/>
        <pt x="227" y="383" on="0"/>
        <pt x="224" y="322" on="0"/>
        <pt x="230" y="266" on="0"/>
        <pt x="237" y="247" on="1"/>
        <pt x="243" y="231" on="1"/>
        <pt x="265" y="233" on="1"/>
        <pt x="301" y="242" on="0"/>
        <pt x="359" y="265" on="0"/>
        <pt x="409" y="297" on="0"/>
        <pt x="455" y="338" on="0"/>
        <pt x="480" y="366" on="1"/>
        <pt x="504" y="394" on="0"/>
        <pt x="542" y="465" on="0"/>
        <pt x="567" y="541" on="0"/>
        <pt x="581" y="617" on="0"/>
        <pt x="583" y="650" on="1"/>
        <pt x="602" y="659" on="0"/>
        <pt x="604" y="679" on="1"/>
        <pt x="601" y="692" on="1"/>
        <pt x="598" y="697" on="0"/>
        <pt x="599" y="706" on="0"/>
        <pt x="601" y="710" on="1"/>
        <pt x="609" y="733" on="0"/>
        <pt x="635" y="744" on="1"/>
        <pt x="653" y="732" on="0"/>
        <pt x="684" y="704" on="0"/>
        <pt x="697" y="690" on="1"/>
        <pt x="699" y="663" on="0"/>
        <pt x="711" y="624" on="0"/>
        <pt x="718" y="606" on="1"/>
        <pt x="725" y="589" on="0"/>
        <pt x="736" y="557" on="0"/>
        <pt x="738" y="534" on="1"/>
        <pt x="728" y="504" on="0"/>
        <pt x="719" y="451" on="0"/>
        <pt x="715" y="422" on="1"/>
        <pt x="713" y="411" on="1"/>
        <pt x="695" y="380" on="0"/>
        <pt x="660" y="315" on="0"/>
        <pt x="649" y="291" on="1"/>
        <pt x="643" y="285" on="0"/>
        <pt x="634" y="269" on="0"/>
        <pt x="630" y="261" on="1"/>
        <pt x="628" y="258" on="0"/>
        <pt x="621" y="244" on="0"/>
        <pt x="618" y="241" on="1"/>
        <pt x="594" y="250" on="1"/>
        <pt x="588" y="219" on="1"/>
        <pt x="572" y="215" on="1"/>
        <pt x="560" y="201" on="1"/>
        <pt x="537" y="161" on="0"/>
        <pt x="486" y="107" on="0"/>
        <pt x="423" y="65" on="0"/>
        <pt x="344" y="28" on="0"/>
        <pt x="293" y="7" on="1"/>
        <pt x="273" y="10" on="0"/>
        <pt x="244" y="11" on="0"/>
        <pt x="230" y="12" on="1"/>
        <pt x="216" y="12" on="0"/>
        <pt x="190" y="14" on="0"/>
        <pt x="173" y="16" on="1"/>
        <pt x="169" y="25" on="0"/>
        <pt x="155" y="33" on="0"/>
        <pt x="149" y="33" on="1"/>
        <pt x="129" y="43" on="0"/>
        <pt x="109" y="79" on="0"/>
        <pt x="98" y="101" on="1"/>
        <pt x="93" y="113" on="0"/>
        <pt x="82" y="137" on="0"/>
        <pt x="74" y="148" on="1"/>
        <pt x="94" y="154" on="1"/>
        <pt x="68" y="184" on="1"/>
        <pt x="65" y="187" on="0"/>
        <pt x="58" y="193" on="0"/>
        <pt x="55" y="197" on="1"/>
        <pt x="55" y="216" on="1"/>
        <pt x="51" y="298" on="0"/>
        <pt x="52" y="437" on="0"/>
        <pt x="70" y="490" on="1"/>
      </contour>
    </TTGlyph>
    <TTGlyph name="Uacute" xMin="51" yMin="7" xMax="738" yMax="1074">
      <component glyphName="U" x="0" y="0" flags="0x204"/>
      <component glyphName="acute" x="51" y="307" flags="0x4"/>
    </TTGlyph>
    <TTGlyph name="Ucircumflex" xMin="51" yMin="7" xMax="738" yMax="1050">
      <component glyphName="U" x="0" y="0" flags="0x204"/>
      <component glyphName="circumflex" x="-19" y="256" flags="0x4"/>
    </TTGlyph>
    <TTGlyph name="Udieresis" xMin="51" yMin="7" xMax="738" yMax="980">
      <component glyphName="U" x="0" y="0" flags="0x204"/>
      <component glyphName="dieresis" x="-9" y="225" flags="0x4"/>
    </TTGlyph>
    <TTGlyph name="Ugrave" xMin="51" yMin="7" xMax="738" yMax="1033">
      <component glyphName="U" x="0" y="0" flags="0x204"/>
      <component glyphName="grave" x="-91" y="266" flags="0x4"/>
    </TTGlyph>
    <TTGlyph name="V" xMin="66" yMin="-10" xMax="675" yMax="747">
      <contour>
        <pt x="79" y="376" on="1"/>
        <pt x="74" y="404" on="0"/>
        <pt x="78" y="464" on="0"/>
        <pt x="78" y="492" on="1"/>
        <pt x="78" y="519" on="0"/>
        <pt x="71" y="580" on="0"/>
        <pt x="66" y="636" on="0"/>
        <pt x="67" y="683" on="0"/>
        <pt x="73" y="696" on="1"/>
        <pt x="81" y="711" on="0"/>
        <pt x="105" y="728" on="0"/>
        <pt x="116" y="739" on="1"/>
        <pt x="129" y="737" on="0"/>
        <pt x="150" y="726" on="0"/>
        <pt x="165" y="709" on="0"/>
        <pt x="172" y="691" on="0"/>
        <pt x="170" y="682" on="1"/>
        <pt x="195" y="667" on="0"/>
        <pt x="226" y="616" on="0"/>
        <pt x="243" y="555" on="0"/>
        <pt x="250" y="487" on="0"/>
        <pt x="255" y="421" on="0"/>
        <pt x="260" y="362" on="0"/>
        <pt x="267" y="340" on="1"/>
        <pt x="311" y="404" on="0"/>
        <pt x="372" y="503" on="0"/>
        <pt x="434" y="594" on="0"/>
        <pt x="511" y="688" on="0"/>
        <pt x="571" y="747" on="1"/>
        <pt x="584" y="745" on="0"/>
        <pt x="598" y="739" on="0"/>
        <pt x="612" y="733" on="0"/>
        <pt x="628" y="730" on="0"/>
        <pt x="642" y="732" on="1"/>
        <pt x="647" y="720" on="0"/>
        <pt x="652" y="709" on="0"/>
        <pt x="656" y="699" on="0"/>
        <pt x="662" y="683" on="0"/>
        <pt x="668" y="667" on="1"/>
        <pt x="671" y="663" on="0"/>
        <pt x="670" y="650" on="0"/>
        <pt x="668" y="640" on="0"/>
        <pt x="669" y="634" on="0"/>
        <pt x="675" y="637" on="1"/>
        <pt x="671" y="620" on="0"/>
        <pt x="653" y="593" on="0"/>
        <pt x="654" y="574" on="1"/>
        <pt x="627" y="538" on="0"/>
        <pt x="561" y="462" on="0"/>
        <pt x="495" y="379" on="0"/>
        <pt x="434" y="290" on="0"/>
        <pt x="413" y="240" on="1"/>
        <pt x="407" y="240" on="0"/>
        <pt x="401" y="234" on="0"/>
        <pt x="396" y="226" on="0"/>
        <pt x="391" y="218" on="0"/>
        <pt x="385" y="218" on="1"/>
        <pt x="383" y="186" on="0"/>
        <pt x="340" y="129" on="0"/>
        <pt x="318" y="109" on="1"/>
        <pt x="320" y="101" on="0"/>
        <pt x="320" y="91" on="0"/>
        <pt x="318" y="81" on="0"/>
        <pt x="317" y="70" on="0"/>
        <pt x="318" y="62" on="1"/>
        <pt x="309" y="38" on="0"/>
        <pt x="280" y="6" on="0"/>
        <pt x="246" y="-10" on="0"/>
        <pt x="210" y="-7" on="0"/>
        <pt x="194" y="4" on="1"/>
        <pt x="187" y="8" on="0"/>
        <pt x="177" y="22" on="0"/>
        <pt x="166" y="35" on="0"/>
        <pt x="155" y="46" on="0"/>
        <pt x="147" y="48" on="1"/>
        <pt x="149" y="58" on="0"/>
        <pt x="146" y="80" on="0"/>
        <pt x="140" y="98" on="0"/>
        <pt x="132" y="110" on="0"/>
        <pt x="128" y="110" on="1"/>
        <pt x="124" y="135" on="0"/>
        <pt x="111" y="194" on="0"/>
        <pt x="98" y="252" on="0"/>
        <pt x="90" y="308" on="0"/>
        <pt x="91" y="332" on="1"/>
        <pt x="92" y="344" on="0"/>
        <pt x="81" y="363" on="0"/>
      </contour>
    </TTGlyph>
    <TTGlyph name="W" xMin="20" yMin="-9" xMax="1069" yMax="749">
      <contour>
        <pt x="78" y="71" on="1"/>
        <pt x="73" y="82" on="0"/>
        <pt x="63" y="102" on="0"/>
        <pt x="58" y="110" on="1"/>
        <pt x="46" y="134" on="0"/>
        <pt x="28" y="172" on="0"/>
        <pt x="20" y="197" on="1"/>
        <pt x="23" y="214" on="0"/>
        <pt x="38" y="294" on="0"/>
        <pt x="58" y="389" on="0"/>
        <pt x="81" y="487" on="0"/>
        <pt x="93" y="522" on="1"/>
        <pt x="104" y="553" on="0"/>
        <pt x="131" y="623" on="0"/>
        <pt x="164" y="682" on="0"/>
        <pt x="202" y="724" on="0"/>
        <pt x="224" y="728" on="1"/>
        <pt x="230" y="720" on="0"/>
        <pt x="244" y="711" on="0"/>
        <pt x="250" y="709" on="1"/>
        <pt x="267" y="685" on="0"/>
        <pt x="299" y="652" on="0"/>
        <pt x="321" y="636" on="1"/>
        <pt x="315" y="606" on="0"/>
        <pt x="292" y="533" on="0"/>
        <pt x="267" y="459" on="0"/>
        <pt x="243" y="390" on="0"/>
        <pt x="236" y="365" on="1"/>
        <pt x="230" y="345" on="0"/>
        <pt x="224" y="319" on="1"/>
        <pt x="219" y="297" on="0"/>
        <pt x="208" y="235" on="0"/>
        <pt x="203" y="198" on="1"/>
        <pt x="217" y="202" on="0"/>
        <pt x="252" y="226" on="0"/>
        <pt x="267" y="239" on="1"/>
        <pt x="285" y="254" on="0"/>
        <pt x="302" y="271" on="1"/>
        <pt x="325" y="294" on="0"/>
        <pt x="357" y="332" on="0"/>
        <pt x="384" y="373" on="0"/>
        <pt x="413" y="422" on="0"/>
        <pt x="433" y="456" on="1"/>
        <pt x="451" y="485" on="0"/>
        <pt x="490" y="551" on="0"/>
        <pt x="530" y="611" on="0"/>
        <pt x="568" y="662" on="0"/>
        <pt x="584" y="676" on="1"/>
        <pt x="595" y="665" on="0"/>
        <pt x="624" y="641" on="0"/>
        <pt x="641" y="636" on="1"/>
        <pt x="648" y="625" on="0"/>
        <pt x="661" y="608" on="0"/>
        <pt x="667" y="600" on="1"/>
        <pt x="675" y="589" on="0"/>
        <pt x="688" y="571" on="0"/>
        <pt x="693" y="560" on="1"/>
        <pt x="692" y="552" on="0"/>
        <pt x="687" y="526" on="0"/>
        <pt x="681" y="495" on="0"/>
        <pt x="674" y="463" on="0"/>
        <pt x="671" y="448" on="1"/>
        <pt x="661" y="403" on="0"/>
        <pt x="651" y="357" on="0"/>
        <pt x="647" y="331" on="0"/>
        <pt x="646" y="313" on="0"/>
        <pt x="646" y="297" on="1"/>
        <pt x="646" y="285" on="0"/>
        <pt x="648" y="273" on="1"/>
        <pt x="650" y="262" on="0"/>
        <pt x="655" y="239" on="0"/>
        <pt x="662" y="229" on="1"/>
        <pt x="710" y="266" on="1"/>
        <pt x="730" y="281" on="0"/>
        <pt x="767" y="336" on="0"/>
        <pt x="802" y="407" on="0"/>
        <pt x="836" y="490" on="0"/>
        <pt x="853" y="534" on="1"/>
        <pt x="865" y="566" on="0"/>
        <pt x="890" y="629" on="0"/>
        <pt x="916" y="686" on="0"/>
        <pt x="941" y="733" on="0"/>
        <pt x="953" y="749" on="1"/>
        <pt x="980" y="732" on="0"/>
        <pt x="1019" y="698" on="0"/>
        <pt x="1048" y="657" on="0"/>
        <pt x="1065" y="604" on="0"/>
        <pt x="1069" y="568" on="1"/>
        <pt x="1047" y="526" on="0"/>
        <pt x="1009" y="438" on="0"/>
        <pt x="990" y="393" on="1"/>
        <pt x="966" y="335" on="0"/>
        <pt x="915" y="220" on="0"/>
        <pt x="853" y="116" on="0"/>
        <pt x="776" y="29" on="0"/>
        <pt x="726" y="-1" on="1"/>
        <pt x="712" y="2" on="0"/>
        <pt x="702" y="2" on="1"/>
        <pt x="691" y="2" on="0"/>
        <pt x="676" y="-4" on="0"/>
        <pt x="670" y="-9" on="1"/>
        <pt x="629" y="10" on="0"/>
        <pt x="579" y="85" on="0"/>
        <pt x="555" y="131" on="1"/>
        <pt x="552" y="138" on="0"/>
        <pt x="545" y="151" on="0"/>
        <pt x="541" y="158" on="1"/>
        <pt x="524" y="189" on="1"/>
        <pt x="514" y="208" on="1"/>
        <pt x="500" y="195" on="1"/>
        <pt x="479" y="176" on="1"/>
        <pt x="467" y="164" on="1"/>
        <pt x="436" y="135" on="0"/>
        <pt x="372" y="80" on="0"/>
        <pt x="302" y="35" on="0"/>
        <pt x="223" y="7" on="0"/>
        <pt x="178" y="6" on="1"/>
        <pt x="170" y="10" on="0"/>
        <pt x="157" y="16" on="0"/>
        <pt x="151" y="19" on="1"/>
        <pt x="128" y="30" on="0"/>
        <pt x="98" y="50" on="0"/>
      </contour>
    </TTGlyph>
    <TTGlyph name="X" xMin="-24" yMin="-34" xMax="704" yMax="732">
      <contour>
        <pt x="52" y="-34" on="1"/>
        <pt x="13" y="-5" on="0"/>
        <pt x="-24" y="80" on="0"/>
        <pt x="-10" y="122" on="1"/>
        <pt x="-8" y="153" on="0"/>
        <pt x="19" y="210" on="0"/>
        <pt x="58" y="262" on="0"/>
        <pt x="104" y="308" on="0"/>
        <pt x="124" y="328" on="1"/>
        <pt x="128" y="340" on="0"/>
        <pt x="148" y="358" on="0"/>
        <pt x="171" y="375" on="0"/>
        <pt x="194" y="395" on="0"/>
        <pt x="201" y="408" on="1"/>
        <pt x="197" y="422" on="0"/>
        <pt x="179" y="450" on="0"/>
        <pt x="157" y="478" on="0"/>
        <pt x="133" y="506" on="0"/>
        <pt x="123" y="521" on="1"/>
        <pt x="122" y="526" on="0"/>
        <pt x="109" y="522" on="0"/>
        <pt x="106" y="525" on="1"/>
        <pt x="108" y="541" on="0"/>
        <pt x="91" y="578" on="0"/>
        <pt x="77" y="591" on="1"/>
        <pt x="82" y="603" on="0"/>
        <pt x="91" y="641" on="0"/>
        <pt x="84" y="663" on="1"/>
        <pt x="83" y="673" on="0"/>
        <pt x="90" y="691" on="0"/>
        <pt x="98" y="707" on="0"/>
        <pt x="102" y="722" on="0"/>
        <pt x="99" y="730" on="1"/>
        <pt x="114" y="732" on="0"/>
        <pt x="139" y="725" on="0"/>
        <pt x="160" y="716" on="0"/>
        <pt x="179" y="710" on="0"/>
        <pt x="188" y="714" on="1"/>
        <pt x="186" y="708" on="0"/>
        <pt x="189" y="703" on="0"/>
        <pt x="194" y="700" on="0"/>
        <pt x="199" y="698" on="0"/>
        <pt x="199" y="694" on="1"/>
        <pt x="218" y="688" on="0"/>
        <pt x="263" y="648" on="0"/>
        <pt x="305" y="600" on="0"/>
        <pt x="339" y="553" on="0"/>
        <pt x="347" y="540" on="1"/>
        <pt x="376" y="558" on="0"/>
        <pt x="443" y="608" on="0"/>
        <pt x="514" y="660" on="0"/>
        <pt x="587" y="707" on="0"/>
        <pt x="622" y="721" on="1"/>
        <pt x="642" y="712" on="0"/>
        <pt x="665" y="684" on="0"/>
        <pt x="680" y="653" on="0"/>
        <pt x="693" y="622" on="0"/>
        <pt x="704" y="610" on="1"/>
        <pt x="694" y="590" on="0"/>
        <pt x="672" y="563" on="0"/>
        <pt x="667" y="544" on="1"/>
        <pt x="642" y="534" on="0"/>
        <pt x="607" y="512" on="1"/>
        <pt x="577" y="493" on="0"/>
        <pt x="485" y="427" on="0"/>
        <pt x="422" y="373" on="1"/>
        <pt x="437" y="356" on="0"/>
        <pt x="456" y="326" on="0"/>
        <pt x="462" y="315" on="1"/>
        <pt x="469" y="302" on="0"/>
        <pt x="473" y="291" on="1"/>
        <pt x="484" y="283" on="0"/>
        <pt x="498" y="261" on="0"/>
        <pt x="511" y="238" on="0"/>
        <pt x="527" y="218" on="0"/>
        <pt x="540" y="212" on="1"/>
        <pt x="544" y="194" on="0"/>
        <pt x="556" y="163" on="0"/>
        <pt x="567" y="133" on="0"/>
        <pt x="574" y="104" on="0"/>
        <pt x="573" y="89" on="1"/>
        <pt x="565" y="62" on="0"/>
        <pt x="533" y="26" on="0"/>
        <pt x="526" y="7" on="1"/>
        <pt x="515" y="4" on="0"/>
        <pt x="494" y="-3" on="0"/>
        <pt x="487" y="-10" on="1"/>
        <pt x="419" y="38" on="1"/>
        <pt x="401" y="98" on="0"/>
        <pt x="333" y="208" on="0"/>
        <pt x="301" y="248" on="1"/>
        <pt x="253" y="211" on="0"/>
        <pt x="165" y="121" on="0"/>
        <pt x="129" y="70" on="1"/>
        <pt x="127" y="45" on="0"/>
        <pt x="119" y="12" on="0"/>
        <pt x="101" y="-10" on="0"/>
        <pt x="73" y="-26" on="0"/>
      </contour>
    </TTGlyph>
    <TTGlyph name="Y" xMin="42" yMin="-33" xMax="618" yMax="757">
      <contour>
        <pt x="149" y="-33" on="1"/>
        <pt x="61" y="-21" on="0"/>
        <pt x="42" y="60" on="1"/>
        <pt x="43" y="71" on="1"/>
        <pt x="47" y="83" on="0"/>
        <pt x="52" y="98" on="1"/>
        <pt x="57" y="115" on="0"/>
        <pt x="69" y="148" on="0"/>
        <pt x="83" y="161" on="1"/>
        <pt x="86" y="170" on="0"/>
        <pt x="103" y="207" on="0"/>
        <pt x="123" y="244" on="1"/>
        <pt x="139" y="273" on="0"/>
        <pt x="158" y="307" on="0"/>
        <pt x="164" y="316" on="1"/>
        <pt x="154" y="334" on="0"/>
        <pt x="136" y="351" on="1"/>
        <pt x="120" y="381" on="0"/>
        <pt x="97" y="436" on="0"/>
        <pt x="91" y="458" on="1"/>
        <pt x="90" y="482" on="0"/>
        <pt x="83" y="507" on="1"/>
        <pt x="80" y="520" on="0"/>
        <pt x="74" y="546" on="0"/>
        <pt x="74" y="560" on="1"/>
        <pt x="70" y="567" on="0"/>
        <pt x="67" y="578" on="1"/>
        <pt x="69" y="590" on="1"/>
        <pt x="74" y="598" on="0"/>
        <pt x="69" y="625" on="0"/>
        <pt x="65" y="639" on="1"/>
        <pt x="62" y="652" on="0"/>
        <pt x="57" y="681" on="0"/>
        <pt x="59" y="709" on="0"/>
        <pt x="72" y="735" on="0"/>
        <pt x="88" y="744" on="1"/>
        <pt x="98" y="751" on="1"/>
        <pt x="108" y="745" on="1"/>
        <pt x="119" y="738" on="0"/>
        <pt x="139" y="728" on="0"/>
        <pt x="149" y="723" on="1"/>
        <pt x="161" y="717" on="0"/>
        <pt x="185" y="704" on="0"/>
        <pt x="199" y="696" on="1"/>
        <pt x="209" y="689" on="1"/>
        <pt x="208" y="678" on="1"/>
        <pt x="208" y="676" on="0"/>
        <pt x="210" y="670" on="0"/>
        <pt x="212" y="668" on="1"/>
        <pt x="223" y="665" on="1"/>
        <pt x="224" y="651" on="1"/>
        <pt x="224" y="639" on="1"/>
        <pt x="224" y="630" on="0"/>
        <pt x="226" y="623" on="0"/>
        <pt x="229" y="619" on="1"/>
        <pt x="234" y="606" on="1"/>
        <pt x="234" y="588" on="0"/>
        <pt x="240" y="560" on="0"/>
        <pt x="244" y="546" on="1"/>
        <pt x="249" y="532" on="0"/>
        <pt x="255" y="503" on="0"/>
        <pt x="253" y="486" on="1"/>
        <pt x="259" y="489" on="0"/>
        <pt x="265" y="495" on="1"/>
        <pt x="267" y="497" on="0"/>
        <pt x="272" y="501" on="0"/>
        <pt x="275" y="503" on="1"/>
        <pt x="345" y="598" on="1"/>
        <pt x="343" y="610" on="1"/>
        <pt x="368" y="634" on="1"/>
        <pt x="378" y="642" on="0"/>
        <pt x="396" y="659" on="0"/>
        <pt x="402" y="670" on="1"/>
        <pt x="408" y="679" on="1"/>
        <pt x="453" y="739" on="0"/>
        <pt x="524" y="753" on="1"/>
        <pt x="541" y="757" on="1"/>
        <pt x="546" y="741" on="1"/>
        <pt x="551" y="727" on="0"/>
        <pt x="580" y="706" on="0"/>
        <pt x="597" y="696" on="1"/>
        <pt x="608" y="689" on="1"/>
        <pt x="614" y="677" on="0"/>
        <pt x="614" y="665" on="0"/>
        <pt x="613" y="661" on="1"/>
        <pt x="618" y="648" on="1"/>
        <pt x="607" y="619" on="0"/>
        <pt x="581" y="594" on="0"/>
        <pt x="567" y="583" on="1"/>
        <pt x="556" y="574" on="0"/>
        <pt x="538" y="556" on="0"/>
        <pt x="533" y="545" on="1"/>
        <pt x="525" y="535" on="1"/>
        <pt x="500" y="522" on="0"/>
        <pt x="493" y="497" on="1"/>
        <pt x="489" y="483" on="1"/>
        <pt x="474" y="483" on="1"/>
        <pt x="473" y="483" on="0"/>
        <pt x="465" y="474" on="0"/>
        <pt x="457" y="457" on="1"/>
        <pt x="448" y="445" on="0"/>
        <pt x="441" y="438" on="0"/>
        <pt x="439" y="436" on="1"/>
        <pt x="437" y="431" on="0"/>
        <pt x="434" y="423" on="0"/>
        <pt x="432" y="417" on="1"/>
        <pt x="426" y="409" on="1"/>
        <pt x="417" y="401" on="0"/>
        <pt x="409" y="386" on="0"/>
        <pt x="404" y="376" on="1"/>
        <pt x="400" y="367" on="0"/>
        <pt x="390" y="348" on="0"/>
        <pt x="381" y="339" on="1"/>
        <pt x="383" y="328" on="1"/>
        <pt x="375" y="321" on="1"/>
        <pt x="367" y="314" on="0"/>
        <pt x="355" y="293" on="0"/>
        <pt x="349" y="282" on="1"/>
        <pt x="343" y="270" on="0"/>
        <pt x="329" y="246" on="0"/>
        <pt x="318" y="236" on="1"/>
        <pt x="311" y="218" on="0"/>
        <pt x="300" y="198" on="0"/>
        <pt x="287" y="184" on="1"/>
        <pt x="275" y="136" on="0"/>
        <pt x="230" y="81" on="1"/>
        <pt x="229" y="70" on="0"/>
        <pt x="218" y="49" on="0"/>
        <pt x="212" y="40" on="1"/>
        <pt x="210" y="36" on="0"/>
        <pt x="205" y="27" on="0"/>
        <pt x="204" y="25" on="1"/>
        <pt x="201" y="14" on="1"/>
        <pt x="195" y="3" on="0"/>
        <pt x="182" y="-11" on="0"/>
        <pt x="176" y="-17" on="1"/>
        <pt x="173" y="-19" on="0"/>
        <pt x="168" y="-25" on="0"/>
        <pt x="166" y="-27" on="1"/>
      </contour>
    </TTGlyph>
    <TTGlyph name="Yacute" xMin="42" yMin="-33" xMax="618" yMax="1136">
      <component glyphName="Y" x="0" y="0" flags="0x204"/>
      <component glyphName="acute" x="-9" y="369" flags="0x4"/>
    </TTGlyph>
    <TTGlyph name="Ydieresis" xMin="42" yMin="-33" xMax="620" yMax="1021">
      <component glyphName="Y" x="0" y="0" flags="0x204"/>
      <component glyphName="dieresis" x="-50" y="266" flags="0x4"/>
    </TTGlyph>
    <TTGlyph name="Z" xMin="-11" yMin="-41" xMax="715" yMax="735">
      <contour>
        <pt x="-8" y="88" on="1"/>
        <pt x="-11" y="118" on="0"/>
        <pt x="-8" y="166" on="0"/>
        <pt x="3" y="210" on="0"/>
        <pt x="22" y="250" on="0"/>
        <pt x="34" y="273" on="1"/>
        <pt x="48" y="278" on="0"/>
        <pt x="70" y="295" on="0"/>
        <pt x="80" y="303" on="1"/>
        <pt x="90" y="312" on="0"/>
        <pt x="109" y="325" on="0"/>
        <pt x="118" y="326" on="1"/>
        <pt x="128" y="332" on="1"/>
        <pt x="148" y="355" on="0"/>
        <pt x="206" y="394" on="0"/>
        <pt x="237" y="412" on="1"/>
        <pt x="263" y="427" on="0"/>
        <pt x="313" y="458" on="0"/>
        <pt x="334" y="478" on="1"/>
        <pt x="344" y="477" on="0"/>
        <pt x="351" y="482" on="1"/>
        <pt x="356" y="489" on="0"/>
        <pt x="355" y="497" on="1"/>
        <pt x="358" y="499" on="0"/>
        <pt x="363" y="504" on="0"/>
        <pt x="366" y="506" on="1"/>
        <pt x="374" y="513" on="0"/>
        <pt x="403" y="528" on="0"/>
        <pt x="408" y="541" on="1"/>
        <pt x="434" y="566" on="1"/>
        <pt x="398" y="565" on="1"/>
        <pt x="371" y="565" on="0"/>
        <pt x="310" y="559" on="0"/>
        <pt x="288" y="557" on="1"/>
        <pt x="270" y="555" on="0"/>
        <pt x="233" y="553" on="0"/>
        <pt x="210" y="552" on="1"/>
        <pt x="191" y="564" on="0"/>
        <pt x="164" y="602" on="0"/>
        <pt x="149" y="646" on="0"/>
        <pt x="147" y="694" on="0"/>
        <pt x="154" y="716" on="1"/>
        <pt x="162" y="718" on="0"/>
        <pt x="175" y="723" on="0"/>
        <pt x="181" y="726" on="1"/>
        <pt x="192" y="727" on="0"/>
        <pt x="199" y="725" on="0"/>
        <pt x="204" y="725" on="1"/>
        <pt x="264" y="735" on="0"/>
        <pt x="302" y="735" on="1"/>
        <pt x="344" y="735" on="0"/>
        <pt x="378" y="725" on="1"/>
        <pt x="420" y="725" on="0"/>
        <pt x="507" y="731" on="0"/>
        <pt x="552" y="723" on="1"/>
        <pt x="584" y="733" on="0"/>
        <pt x="648" y="724" on="0"/>
        <pt x="671" y="700" on="1"/>
        <pt x="673" y="680" on="0"/>
        <pt x="691" y="659" on="0"/>
        <pt x="706" y="654" on="1"/>
        <pt x="715" y="619" on="0"/>
        <pt x="700" y="567" on="0"/>
        <pt x="664" y="526" on="0"/>
        <pt x="614" y="494" on="0"/>
        <pt x="590" y="479" on="1"/>
        <pt x="583" y="468" on="0"/>
        <pt x="563" y="454" on="0"/>
        <pt x="554" y="446" on="1"/>
        <pt x="515" y="394" on="0"/>
        <pt x="412" y="321" on="0"/>
        <pt x="359" y="286" on="1"/>
        <pt x="321" y="260" on="0"/>
        <pt x="246" y="208" on="0"/>
        <pt x="211" y="178" on="1"/>
        <pt x="198" y="167" on="1"/>
        <pt x="209" y="155" on="1"/>
        <pt x="223" y="141" on="0"/>
        <pt x="243" y="141" on="1"/>
        <pt x="254" y="141" on="0"/>
        <pt x="275" y="147" on="0"/>
        <pt x="284" y="151" on="1"/>
        <pt x="293" y="154" on="0"/>
        <pt x="308" y="159" on="0"/>
        <pt x="313" y="159" on="1"/>
        <pt x="324" y="157" on="1"/>
        <pt x="339" y="165" on="0"/>
        <pt x="358" y="172" on="0"/>
        <pt x="368" y="175" on="1"/>
        <pt x="376" y="177" on="0"/>
        <pt x="395" y="183" on="0"/>
        <pt x="404" y="188" on="1"/>
        <pt x="430" y="188" on="0"/>
        <pt x="478" y="203" on="0"/>
        <pt x="501" y="212" on="1"/>
        <pt x="515" y="217" on="0"/>
        <pt x="542" y="227" on="0"/>
        <pt x="556" y="231" on="1"/>
        <pt x="561" y="224" on="0"/>
        <pt x="574" y="215" on="0"/>
        <pt x="580" y="212" on="1"/>
        <pt x="589" y="207" on="0"/>
        <pt x="597" y="200" on="0"/>
        <pt x="598" y="194" on="1"/>
        <pt x="602" y="161" on="1"/>
        <pt x="623" y="184" on="1"/>
        <pt x="638" y="170" on="0"/>
        <pt x="640" y="141" on="0"/>
        <pt x="636" y="118" on="1"/>
        <pt x="597" y="79" on="0"/>
        <pt x="482" y="35" on="0"/>
        <pt x="418" y="16" on="1"/>
        <pt x="404" y="12" on="0"/>
        <pt x="378" y="5" on="0"/>
        <pt x="364" y="0" on="1"/>
        <pt x="365" y="21" on="1"/>
        <pt x="339" y="4" on="1"/>
        <pt x="334" y="0" on="0"/>
        <pt x="328" y="-7" on="0"/>
        <pt x="325" y="-11" on="1"/>
        <pt x="294" y="-18" on="0"/>
        <pt x="253" y="-26" on="0"/>
        <pt x="235" y="-30" on="1"/>
        <pt x="215" y="-35" on="0"/>
        <pt x="180" y="-41" on="0"/>
        <pt x="159" y="-41" on="1"/>
        <pt x="152" y="-41" on="0"/>
        <pt x="139" y="-40" on="0"/>
        <pt x="132" y="-39" on="1"/>
        <pt x="126" y="-37" on="0"/>
        <pt x="118" y="-35" on="1"/>
        <pt x="104" y="-9" on="1"/>
        <pt x="85" y="-23" on="1"/>
        <pt x="74" y="-14" on="0"/>
        <pt x="60" y="-4" on="1"/>
        <pt x="48" y="6" on="0"/>
        <pt x="28" y="26" on="0"/>
        <pt x="27" y="36" on="1"/>
        <pt x="26" y="48" on="1"/>
        <pt x="14" y="51" on="1"/>
        <pt x="12" y="53" on="0"/>
        <pt x="10" y="61" on="1"/>
        <pt x="8" y="67" on="0"/>
        <pt x="0" y="83" on="0"/>
      </contour>
    </TTGlyph>
    <TTGlyph name="Zcaron" xMin="-11" yMin="-41" xMax="729" yMax="1101">
      <component glyphName="Z" x="0" y="0" flags="0x204"/>
      <component glyphName="caron" x="72" y="307" flags="0x4"/>
    </TTGlyph>
    <TTGlyph name="a" xMin="-26" yMin="-14" xMax="600" yMax="613">
      <contour>
        <pt x="529" y="84" on="1"/>
        <pt x="523" y="67" on="0"/>
        <pt x="500" y="32" on="0"/>
        <pt x="469" y="5" on="0"/>
        <pt x="431" y="-13" on="0"/>
        <pt x="410" y="-14" on="1"/>
        <pt x="397" y="-11" on="0"/>
        <pt x="388" y="-4" on="0"/>
        <pt x="383" y="-1" on="1"/>
        <pt x="380" y="1" on="0"/>
        <pt x="375" y="4" on="0"/>
        <pt x="373" y="5" on="1"/>
        <pt x="361" y="10" on="1"/>
        <pt x="365" y="23" on="1"/>
        <pt x="367" y="31" on="0"/>
        <pt x="361" y="40" on="0"/>
        <pt x="352" y="48" on="1"/>
        <pt x="349" y="51" on="0"/>
        <pt x="343" y="57" on="0"/>
        <pt x="341" y="60" on="1"/>
        <pt x="324" y="79" on="1"/>
        <pt x="351" y="86" on="1"/>
        <pt x="376" y="93" on="0"/>
        <pt x="393" y="115" on="0"/>
        <pt x="391" y="141" on="1"/>
        <pt x="371" y="145" on="0"/>
        <pt x="344" y="139" on="0"/>
        <pt x="330" y="135" on="1"/>
        <pt x="312" y="130" on="0"/>
        <pt x="275" y="123" on="0"/>
        <pt x="253" y="123" on="1"/>
        <pt x="245" y="123" on="0"/>
        <pt x="231" y="124" on="0"/>
        <pt x="223" y="125" on="1"/>
        <pt x="213" y="127" on="1"/>
        <pt x="211" y="138" on="0"/>
        <pt x="207" y="141" on="0"/>
        <pt x="205" y="143" on="1"/>
        <pt x="200" y="148" on="0"/>
        <pt x="189" y="165" on="0"/>
        <pt x="192" y="178" on="1"/>
        <pt x="187" y="187" on="0"/>
        <pt x="186" y="196" on="1"/>
        <pt x="180" y="184" on="0"/>
        <pt x="177" y="171" on="1"/>
        <pt x="173" y="161" on="1"/>
        <pt x="163" y="159" on="1"/>
        <pt x="161" y="158" on="0"/>
        <pt x="159" y="151" on="0"/>
        <pt x="159" y="149" on="1"/>
        <pt x="154" y="132" on="1"/>
        <pt x="152" y="130" on="0"/>
        <pt x="148" y="127" on="0"/>
        <pt x="146" y="125" on="1"/>
        <pt x="144" y="116" on="0"/>
        <pt x="138" y="98" on="0"/>
        <pt x="135" y="90" on="1"/>
        <pt x="130" y="77" on="0"/>
        <pt x="123" y="52" on="0"/>
        <pt x="124" y="40" on="1"/>
        <pt x="120" y="29" on="1"/>
        <pt x="115" y="23" on="0"/>
        <pt x="103" y="16" on="0"/>
        <pt x="97" y="13" on="1"/>
        <pt x="95" y="11" on="0"/>
        <pt x="88" y="8" on="0"/>
        <pt x="86" y="7" on="1"/>
        <pt x="83" y="-4" on="1"/>
        <pt x="71" y="-6" on="1"/>
        <pt x="60" y="-8" on="0"/>
        <pt x="51" y="-10" on="0"/>
        <pt x="45" y="-10" on="1"/>
        <pt x="35" y="-9" on="1"/>
        <pt x="24" y="0" on="0"/>
        <pt x="12" y="11" on="0"/>
        <pt x="4" y="16" on="1"/>
        <pt x="-5" y="28" on="0"/>
        <pt x="-7" y="40" on="0"/>
        <pt x="-8" y="45" on="1"/>
        <pt x="-10" y="51" on="0"/>
        <pt x="-11" y="59" on="0"/>
        <pt x="-13" y="61" on="1"/>
        <pt x="-26" y="73" on="1"/>
        <pt x="-15" y="82" on="1"/>
        <pt x="-14" y="99" on="1"/>
        <pt x="6" y="150" on="0"/>
        <pt x="51" y="244" on="0"/>
        <pt x="75" y="293" on="1"/>
        <pt x="83" y="309" on="0"/>
        <pt x="98" y="341" on="0"/>
        <pt x="106" y="357" on="1"/>
        <pt x="105" y="360" on="0"/>
        <pt x="105" y="368" on="0"/>
        <pt x="107" y="373" on="1"/>
        <pt x="118" y="390" on="0"/>
        <pt x="132" y="417" on="0"/>
        <pt x="139" y="431" on="1"/>
        <pt x="147" y="448" on="0"/>
        <pt x="164" y="480" on="0"/>
        <pt x="177" y="497" on="1"/>
        <pt x="193" y="504" on="1"/>
        <pt x="196" y="505" on="0"/>
        <pt x="204" y="508" on="0"/>
        <pt x="209" y="508" on="1"/>
        <pt x="224" y="506" on="1"/>
        <pt x="252" y="519" on="0"/>
        <pt x="294" y="566" on="0"/>
        <pt x="316" y="599" on="1"/>
        <pt x="326" y="613" on="1"/>
        <pt x="339" y="605" on="1"/>
        <pt x="344" y="602" on="0"/>
        <pt x="362" y="597" on="0"/>
        <pt x="372" y="594" on="1"/>
        <pt x="390" y="590" on="0"/>
        <pt x="422" y="580" on="0"/>
        <pt x="432" y="570" on="1"/>
        <pt x="438" y="554" on="0"/>
        <pt x="440" y="538" on="0"/>
        <pt x="442" y="530" on="1"/>
        <pt x="445" y="513" on="0"/>
        <pt x="450" y="479" on="0"/>
        <pt x="451" y="458" on="1"/>
        <pt x="456" y="441" on="0"/>
        <pt x="463" y="408" on="0"/>
        <pt x="466" y="391" on="1"/>
        <pt x="471" y="367" on="0"/>
        <pt x="481" y="322" on="0"/>
        <pt x="489" y="302" on="1"/>
        <pt x="497" y="302" on="0"/>
        <pt x="499" y="301" on="1"/>
        <pt x="504" y="303" on="0"/>
        <pt x="515" y="305" on="0"/>
        <pt x="522" y="306" on="1"/>
        <pt x="533" y="307" on="1"/>
        <pt x="537" y="297" on="1"/>
        <pt x="538" y="292" on="0"/>
        <pt x="547" y="287" on="1"/>
        <pt x="560" y="286" on="0"/>
        <pt x="572" y="277" on="0"/>
        <pt x="577" y="272" on="1"/>
        <pt x="581" y="268" on="0"/>
        <pt x="585" y="266" on="1"/>
        <pt x="600" y="260" on="1"/>
        <pt x="592" y="245" on="1"/>
        <pt x="582" y="227" on="0"/>
        <pt x="545" y="194" on="0"/>
        <pt x="522" y="183" on="1"/>
        <pt x="523" y="177" on="0"/>
        <pt x="524" y="166" on="0"/>
        <pt x="526" y="160" on="1"/>
        <pt x="529" y="143" on="0"/>
        <pt x="533" y="107" on="0"/>
        <pt x="531" y="88" on="1"/>
      </contour>
      <contour>
        <pt x="240" y="257" on="1"/>
        <pt x="270" y="259" on="0"/>
        <pt x="319" y="264" on="0"/>
        <pt x="349" y="270" on="1"/>
        <pt x="342" y="300" on="0"/>
        <pt x="326" y="365" on="0"/>
        <pt x="317" y="397" on="1"/>
        <pt x="311" y="387" on="1"/>
        <pt x="291" y="366" on="0"/>
        <pt x="254" y="314" on="0"/>
        <pt x="241" y="291" on="1"/>
        <pt x="235" y="282" on="0"/>
        <pt x="223" y="264" on="0"/>
        <pt x="218" y="255" on="1"/>
        <pt x="224" y="256" on="0"/>
        <pt x="235" y="256" on="0"/>
      </contour>
    </TTGlyph>
    <TTGlyph name="aacute" xMin="-26" yMin="-14" xMax="600" yMax="972">
      <component glyphName="a" x="0" y="0" flags="0x204"/>
      <component glyphName="acute" x="-71" y="205" flags="0x4"/>
    </TTGlyph>
    <TTGlyph name="acircumflex" xMin="-26" yMin="-14" xMax="600" yMax="907">
      <component glyphName="a" x="0" y="0" flags="0x204"/>
      <component glyphName="circumflex" x="-81" y="113" flags="0x4"/>
    </TTGlyph>
    <TTGlyph name="acute" xMin="295" yMin="454" xMax="599" yMax="767">
      <contour>
        <pt x="590" y="624" on="1"/>
        <pt x="582" y="622" on="0"/>
        <pt x="545" y="598" on="0"/>
        <pt x="516" y="572" on="1"/>
        <pt x="501" y="559" on="0"/>
        <pt x="459" y="520" on="0"/>
        <pt x="410" y="483" on="0"/>
        <pt x="358" y="455" on="0"/>
        <pt x="334" y="454" on="1"/>
        <pt x="327" y="461" on="0"/>
        <pt x="313" y="475" on="0"/>
        <pt x="304" y="489" on="0"/>
        <pt x="302" y="505" on="0"/>
        <pt x="308" y="515" on="1"/>
        <pt x="295" y="536" on="0"/>
        <pt x="299" y="558" on="0"/>
        <pt x="316" y="574" on="0"/>
        <pt x="337" y="588" on="0"/>
        <pt x="341" y="602" on="1"/>
        <pt x="364" y="627" on="0"/>
        <pt x="419" y="680" on="0"/>
        <pt x="443" y="707" on="1"/>
        <pt x="453" y="709" on="0"/>
        <pt x="472" y="724" on="0"/>
        <pt x="490" y="742" on="0"/>
        <pt x="509" y="761" on="0"/>
        <pt x="520" y="767" on="1"/>
        <pt x="522" y="761" on="0"/>
        <pt x="541" y="750" on="0"/>
        <pt x="546" y="753" on="1"/>
        <pt x="547" y="742" on="0"/>
        <pt x="567" y="721" on="0"/>
        <pt x="575" y="717" on="1"/>
        <pt x="581" y="703" on="0"/>
        <pt x="593" y="680" on="0"/>
        <pt x="599" y="658" on="0"/>
        <pt x="598" y="636" on="0"/>
      </contour>
    </TTGlyph>
    <TTGlyph name="adieresis" xMin="-26" yMin="-14" xMax="620" yMax="868">
      <component glyphName="a" x="0" y="0" flags="0x204"/>
      <component glyphName="dieresis" x="-50" y="113" flags="0x4"/>
    </TTGlyph>
</ttFont>
